<svg xmlns="http://www.w3.org/2000/svg" xmlns:xlink="http://www.w3.org/1999/xlink" width="584.88" height="143.991" viewBox="0 0 584.88 143.991">
  <defs>
    <clipPath id="clip-path">
      <rect id="Rechteck_586" data-name="Rechteck 586" width="584.64" height="83.519" fill="none"/>
    </clipPath>
    <clipPath id="clip-path-2">
      <rect id="Rechteck_587" data-name="Rechteck 587" width="584.88" height="83.553" fill="none"/>
    </clipPath>
  </defs>
  <g id="Claim_Wohnen_wie_im_Urlaub_mit_Seit_1992_2-Line_negativ" data-name="Claim Wohnen wie im Urlaub mit Seit 1992 2-Line negativ" transform="translate(292.44 71.995)">
    <g id="Gruppe_6757" data-name="Gruppe 6757" transform="translate(-292.44 -71.995)">
      <g id="Gruppe_6754" data-name="Gruppe 6754" transform="translate(0.122)">
        <g id="Gruppe_6753" data-name="Gruppe 6753" clip-path="url(#clip-path)">
          <path id="Pfad_8671" data-name="Pfad 8671" d="M52.8,72.437c-.179-.034-.37-.21-.583-.529a7.665,7.665,0,0,1-.689-1.433c-.248-.671-.488-1.421-.716-2.255s-.488-1.737-.77-2.727c-.107-.389-.213-.789-.317-1.2s-.213-.823-.32-1.246-.2-.85-.294-1.272-.168-.846-.236-1.272q-.371-1.7-.743-3.318c-.248-1.078-.476-2.126-.689-3.154s-.389-1.916-.53-2.674-.247-1.372-.316-1.833c-.111-.6-.217-1.17-.32-1.7s-.213-1.021-.32-1.482c-.141-.461-.267-.884-.37-1.276s-.213-.743-.32-1.055c-.248-.636-.488-1.2-.717-1.676a9.786,9.786,0,0,0-.663-1.192c-.175-.21-.354-.408-.529-.579a2.69,2.69,0,0,0-.53-.427c-.141-.107-.293-.21-.453-.316s-.312-.218-.446-.324a2.177,2.177,0,0,1-.217-.1c-.069-.038-.141-.068-.21-.106l-.32-.21a1.035,1.035,0,0,1,.32-.373,3.053,3.053,0,0,1,.427-.266,2.822,2.822,0,0,1,.553-.16,3.516,3.516,0,0,1,.609-.049h2.122a4,4,0,0,1,.427.023,3.3,3.3,0,0,1,.423.084.833.833,0,0,1,.213.027,1.274,1.274,0,0,0,.263.023,1.274,1.274,0,0,0,.214.083.972.972,0,0,0,.213.023c.1.035.209.072.316.111s.229.069.373.1l.316.1c.107.041.213.072.32.106.21.072.415.156.61.24s.381.172.556.24c.176.1.343.2.5.294a3.386,3.386,0,0,1,.4.24c.1.065.2.13.29.183a.466.466,0,0,1,.187.187,13.6,13.6,0,0,1,.529,1.592q.269.954.583,2.225.262,1.325.556,2.757t.613,3.025c.035.278.077.564.13.85s.1.56.134.846c.034.145.061.282.08.422a2.232,2.232,0,0,0,.08.373c.035.141.057.286.08.427a2.557,2.557,0,0,0,.08.419q.423,2.6.876,5.017c.3,1.6.61,3.135.926,4.583.107.53.214,1.021.32,1.459a11.784,11.784,0,0,0,.316,1.139c.141-.282.3-.6.477-.952s.354-.739.533-1.17q.795-1.743,1.726-3.684c.613-1.287,1.261-2.64,1.931-4.057l.32-.743c.106-.248.21-.5.316-.743s.221-.5.347-.739.255-.5.4-.743c.564-1.131,1.116-2.205,1.669-3.208s1.086-1.939,1.615-2.788A10.045,10.045,0,0,1,66.935,44.7a1.848,1.848,0,0,1,1.192-.636h.267l.106-.049h2.229c.351,0,.723.309,1.112.922a14.246,14.246,0,0,1,1.219,2.785q.64,1.914,1.3,3.981T75.712,56c.072.286.141.568.213.85a8.149,8.149,0,0,0,.266.85c.069.248.149.5.24.77s.164.537.237.819c.175.572.354,1.136.529,1.7a16.813,16.813,0,0,0,.587,1.593c.175.492.351.979.526,1.455s.354.929.534,1.352c.175.388.343.743.5,1.067a4.478,4.478,0,0,0,.5.793,22.478,22.478,0,0,0,2.6-2.861,19.6,19.6,0,0,0,2.011-3.291,32.885,32.885,0,0,0,1.646-3.9,32.476,32.476,0,0,0,1.112-4c.072-.393.141-.773.213-1.143s.141-.751.213-1.139c.034-.354.08-.728.134-1.116s.1-.754.129-1.109q.109-1.114.16-2.205c.034-.724.053-1.421.053-2.092,0-.709-.007-1.4-.027-2.072s-.061-1.326-.134-1.962c-.034-.632-.1-1.238-.182-1.8s-.172-1.093-.241-1.592h2.122a5.928,5.928,0,0,1,2.176.666,3.738,3.738,0,0,1,1.428,1.4,5.726,5.726,0,0,1,.85,1.935,10.126,10.126,0,0,1,.266,2.419A18.773,18.773,0,0,1,94.2,45.95a20.553,20.553,0,0,1-.61,2.838c-.248.986-.549,1.977-.9,2.963s-.743,2-1.165,3.029q-.634,1.486-1.379,2.967c-.5.99-1.006,1.966-1.539,2.915-.247.461-.51.922-.8,1.383s-.545.918-.793,1.375c-.286.427-.56.853-.823,1.272s-.541.834-.823,1.223q-.9,1.325-1.775,2.411a24.234,24.234,0,0,1-1.779,1.988A10.243,10.243,0,0,1,80.2,71.668a5.975,5.975,0,0,1-1.406.717l-2.121.053a3.756,3.756,0,0,1-1.753-1.352,11.212,11.212,0,0,1-1.482-2.838c-.461-1.238-.91-2.514-1.352-3.844s-.876-2.7-1.3-4.11a4.577,4.577,0,0,0-.134-.5,3.086,3.086,0,0,0-.187-.449c-.034-.179-.072-.343-.106-.5s-.069-.313-.107-.454q-.211-.794-.476-1.565C69.6,56.3,69.437,55.8,69.3,55.31c-.179-.5-.347-.975-.506-1.436s-.324-.914-.5-1.379c-.141-.385-.282-.754-.423-1.112a6.156,6.156,0,0,0-.476-.956q-2.337,4.405-4.008,7.744T60.7,63.794q-1.115,2.44-2.016,4.163a21.3,21.3,0,0,1-1.642,2.732,1.994,1.994,0,0,1-.24.289.931.931,0,0,1-.241.187.42.42,0,0,0-.156.134,1,1,0,0,1-.107.129.823.823,0,0,0-.16.107.909.909,0,0,1-.106.106,3.048,3.048,0,0,1-.5.4c-.195.122-.381.236-.556.343l-2.122.053Z" transform="translate(-15.844 -14.107)" fill="#fff"/>
          <path id="Pfad_8672" data-name="Pfad 8672" d="M147.3,66.033a9.342,9.342,0,0,1,1.067.129,10.808,10.808,0,0,1,1.216.19c.423.084.849.183,1.272.289a11.968,11.968,0,0,1,1.988.793,12.147,12.147,0,0,1,1.779,1.12,4.067,4.067,0,0,1,1.272,1.536,4.809,4.809,0,0,1,.423,2.068,5.322,5.322,0,0,1-.106,1.063c-.069.354-.16.724-.263,1.112a8.318,8.318,0,0,1-.454,1.219,11.753,11.753,0,0,1-.716,1.326,11.524,11.524,0,0,1-1.193,1.589,10.983,10.983,0,0,1-1.565,1.432,11.4,11.4,0,0,1-1.775,1.2,11.567,11.567,0,0,1-1.878.819c-.145.038-.3.08-.457.133s-.309.1-.449.137c-.176.031-.335.065-.476.1s-.3.068-.477.1c-.32.072-.621.126-.9.164a7.116,7.116,0,0,1-.85.049h-.316a.622.622,0,0,0-.267.053h-.956a.65.65,0,0,0-.263.054h-.636l-2.122.053h-.636a20.794,20.794,0,0,1-2.865-.4,13.444,13.444,0,0,1-2.6-.823,4.267,4.267,0,0,1-1.962-1.752,6.327,6.327,0,0,1-.8-2.915,6.436,6.436,0,0,1,.08-.952c.053-.354.133-.766.236-1.219a9.171,9.171,0,0,1,.453-1.41,8.995,8.995,0,0,1,.77-1.459,8.651,8.651,0,0,1,1.562-1.931,15.814,15.814,0,0,1,2.309-1.783,11.291,11.291,0,0,1,3.234-1.4,24.317,24.317,0,0,1,4.3-.717v-.053H146.4c.282.038.583.061.9.08m1.619,4.453a5.369,5.369,0,0,0-1.619-1.352,8.453,8.453,0,0,0-1.433-.61,6.308,6.308,0,0,0-1.481-.293q-.532.057-1.063.16c-.354.073-.7.164-1.058.267a10.042,10.042,0,0,0-1.459.506c-.442.19-.823.381-1.139.553a3.642,3.642,0,0,1-.4.266c-.122.072-.236.141-.343.21a1.043,1.043,0,0,0-.24.217,2.218,2.218,0,0,1-.187.21,1.113,1.113,0,0,1-.13.21,1.624,1.624,0,0,1-.187.213,1.747,1.747,0,0,1-.106.266c-.035.072-.072.141-.107.213-.068.141-.133.282-.187.423s-.114.286-.182.427c-.038.137-.072.29-.107.449s-.072.324-.106.5a1.819,1.819,0,0,0-.054.423v.427a5.9,5.9,0,0,0,.556,2.518,6.944,6.944,0,0,0,1.672,2.2,7.292,7.292,0,0,0,2.042,1.352,7.5,7.5,0,0,0,2.412.613c.179-.038.362-.076.556-.111s.381-.072.56-.106a7.9,7.9,0,0,0,2.118-.793,6.277,6.277,0,0,0,1.7-1.382,5.68,5.68,0,0,0,1.139-1.776,5.481,5.481,0,0,0,.4-2.091v-.324a.365.365,0,0,1-.053-.183v-.129a2.383,2.383,0,0,0-.027-.324c-.019-.1-.046-.21-.077-.316l-.057-.32-.107-.316v-.054a8.623,8.623,0,0,0-1.245-2.148" transform="translate(-50.258 -25.176)" fill="#fff"/>
          <path id="Pfad_8673" data-name="Pfad 8673" d="M178.037,69.907V64.791c0-.728.019-1.459.053-2.2q0-1.115.023-2.229t.083-2.228V56.939a.835.835,0,0,1,.054-.289v-.48c0-.777,0-1.547.027-2.3s.042-1.531.076-2.312.065-1.535.08-2.278.027-1.467.027-2.172c0-1.028-.015-2.026-.054-3s-.087-1.9-.156-2.781c-.038-.922-.107-1.768-.213-2.544s-.229-1.5-.37-2.179a1.372,1.372,0,0,1,.156-.236.521.521,0,0,1,.266-.183.8.8,0,0,1,.4-.133,3.814,3.814,0,0,1,.453-.027h2.331a.184.184,0,0,0,.133.053h.4a.208.208,0,0,0,.134.049h.134c.281.106.556.221.819.343a5.029,5.029,0,0,1,.773.458,1.831,1.831,0,0,1,.556.61,1.6,1.6,0,0,1,.187.765c0,2.194-.023,4.244-.054,6.152s-.091,3.661-.16,5.253c-.034,1.588-.1,3.059-.19,4.4s-.164,2.583-.236,3.715c-.034.777-.076,1.509-.133,2.2s-.114,1.333-.183,1.935c.316-.571.663-1.124,1.036-1.676s.765-1.086,1.192-1.611a14.762,14.762,0,0,1,2.012-2.046A13.271,13.271,0,0,1,190.181,55c.248-.106.484-.2.717-.289a3.646,3.646,0,0,1,.663-.187,2.919,2.919,0,0,1,.636-.134c.213-.015.4-.023.583-.023H194.9a2.8,2.8,0,0,1,1.432.37,2.613,2.613,0,0,1,1.01,1.112,7.969,7.969,0,0,1,.716,1.886,25.117,25.117,0,0,1,.5,2.675c0,.323.015.674.049,1.063s.092.834.16,1.326c.072.461.171.948.293,1.459s.255,1.036.4,1.562c.213.781.453,1.531.716,2.259a19.7,19.7,0,0,0,.876,2.038,5.148,5.148,0,0,0,1.036,1.41,1.663,1.663,0,0,0,1.086.5c.176.03.282.1.32.183a.453.453,0,0,1-.053.343,1.673,1.673,0,0,1-.32.507,2.633,2.633,0,0,1-.529.453,1,1,0,0,1-.16.107.317.317,0,0,0-.16.156,1.6,1.6,0,0,0-.183.107,2.009,2.009,0,0,1-.187.106.949.949,0,0,1-.16.107.552.552,0,0,0-.16.106,1.057,1.057,0,0,0-.183.107,2.031,2.031,0,0,1-.187.1c-.179.072-.347.153-.506.236a1.664,1.664,0,0,1-.5.19,2.411,2.411,0,0,1-.423.16,1.846,1.846,0,0,1-.369.049l-2.122.053h-.271l-.156-.1-.107-.111-.106-.106a6.813,6.813,0,0,1-.632-1.059,12.4,12.4,0,0,1-.64-1.588c-.213-.636-.4-1.276-.583-1.912s-.354-1.307-.529-2.012c-.141-.6-.275-1.188-.4-1.752s-.24-1.135-.347-1.7-.187-1.07-.236-1.516a11.489,11.489,0,0,0-.19-1.139c-.03-.141-.057-.29-.076-.454a1.407,1.407,0,0,0-.134-.446,1,1,0,0,1-.08-.24,1.414,1.414,0,0,1-.027-.236.844.844,0,0,1-.08-.24,1.94,1.94,0,0,0-.076-.293c-.145-.389-.293-.77-.453-1.143a8.682,8.682,0,0,0-.56-1.086.522.522,0,0,0-.1-.156c-.035-.035-.069-.072-.107-.111a.62.62,0,0,0-.106-.156,1.4,1.4,0,0,1-.1-.106,7.217,7.217,0,0,0-1.326.929,9.328,9.328,0,0,0-1.223,1.3,20.361,20.361,0,0,0-1.3,1.806,20.772,20.772,0,0,0-1.086,1.912c-.179.316-.347.636-.5.948s-.328.636-.507.96c-.145.316-.282.624-.423.926s-.282.594-.422.876c-.107.21-.206.423-.294.636s-.168.423-.24.636a5.7,5.7,0,0,1-.13.61c-.053.194-.118.377-.186.56-.038.1-.073.206-.107.313a.974.974,0,0,0-.057.323,2.289,2.289,0,0,1-.1.286,2.171,2.171,0,0,1-.106.244c-.038.069-.077.156-.13.263a2.267,2.267,0,0,0-.133.32.486.486,0,0,0-.107.156.774.774,0,0,1-.107.16l-2.121.053c-.248-.072-.469-.129-.663-.187s-.346-.1-.453-.133l-.419-.107-.053-.049h-.053l-.266-.16a.263.263,0,0,0-.213-.129c-.107-.023-.232-.049-.37-.08a7.491,7.491,0,0,1-.053-.9" transform="translate(-67.942 -13.749)" fill="#fff"/>
          <path id="Pfad_8674" data-name="Pfad 8674" d="M223.771,65.748a.228.228,0,0,1-.027-.107.047.047,0,0,1-.053-.053v-.107l-.053-.316.16-.427a.454.454,0,0,1,.24-.13,1.4,1.4,0,0,1,.289-.027h2.388a.181.181,0,0,0,.13.053h.133a1.053,1.053,0,0,0,.267.08,1.866,1.866,0,0,1,.316.076.969.969,0,0,0,.187.08c.053.019.114.046.187.077a.305.305,0,0,0,.16.083.348.348,0,0,1,.156.08,1.617,1.617,0,0,1,.187.106.275.275,0,0,0,.134.053,1.211,1.211,0,0,1,.187.107.76.76,0,0,1,.129.1l.267.213.159.213a.431.431,0,0,1,.16.134.954.954,0,0,1,.1.236,1.926,1.926,0,0,1,.08.373,3.6,3.6,0,0,1,.027.476,10.136,10.136,0,0,1-.053,1.033c-.035.373-.088.769-.156,1.2l-.106.636a3.866,3.866,0,0,0-.054.689c-.034.21-.072.43-.106.663s-.072.472-.107.716l-.053.107v.049a20.11,20.11,0,0,1,2.255-2.941,7.928,7.928,0,0,1,2.148-1.672,23.553,23.553,0,0,1,2.838-1.272,6.227,6.227,0,0,1,1.935-.423h2.918a1.913,1.913,0,0,1,1.375.556,4.048,4.048,0,0,1,.956,1.669c.247.743.476,1.523.689,2.335a25.607,25.607,0,0,1,.529,2.6v.16a.207.207,0,0,0,.054.16.527.527,0,0,0,.027.183.563.563,0,0,1,.027.187v.156a.231.231,0,0,0,.053.164.509.509,0,0,0,.027.182.566.566,0,0,1,.027.187c.107.675.229,1.318.37,1.935s.286,1.2.427,1.726a5.331,5.331,0,0,0,.5,1.353,1.478,1.478,0,0,0,.663.663,1.512,1.512,0,0,1,.423.236.882.882,0,0,1,.213.24.494.494,0,0,1,.053.53,1.275,1.275,0,0,1-.32.4,1.444,1.444,0,0,1-.529.294,1.251,1.251,0,0,1-.317.16,1.245,1.245,0,0,0-.32.16,1.777,1.777,0,0,0-.37.134,2.231,2.231,0,0,1-.32.129,2.927,2.927,0,0,1-.4.08,2.252,2.252,0,0,0-.347.08h-.134a.434.434,0,0,0-.182.054h-.267l-2.122.053a3.631,3.631,0,0,0-.4-.08.836.836,0,0,1-.294-.08.343.343,0,0,1-.21-.156.578.578,0,0,1-.053-.266c-.038-.247-.1-.548-.187-.9s-.187-.8-.293-1.326a6.447,6.447,0,0,0-.156-.823,6.023,6.023,0,0,1-.16-.766c-.072-.286-.133-.564-.187-.85s-.114-.564-.187-.85l-.1-.423c-.042-.141-.072-.286-.106-.427-.038-.175-.072-.343-.107-.5s-.072-.309-.106-.449c-.107-.32-.206-.636-.294-.956s-.168-.636-.236-.952c-.072-.286-.141-.56-.213-.823s-.141-.5-.213-.716a5.6,5.6,0,0,0-.529-1.353,4.358,4.358,0,0,0-.69-.929,1.118,1.118,0,0,0-.133-.107,1.542,1.542,0,0,0-.29-.209.5.5,0,0,0-.16-.107c-.069.035-.153.069-.241.107a.747.747,0,0,0-.236.156,6.361,6.361,0,0,0-.929.636,8.339,8.339,0,0,0-.876.85,16.425,16.425,0,0,0-1.509,1.882c-.48.689-.964,1.444-1.459,2.255q-.691,1.274-1.326,2.544a22.054,22.054,0,0,0-1.116,2.652,2.315,2.315,0,0,1-.13.32,2.342,2.342,0,0,0-.134.32.342.342,0,0,0-.08.129.41.41,0,0,0-.027.134c-.034.072-.061.126-.08.16a.343.343,0,0,0-.027.16.546.546,0,0,1-.16.182,2.372,2.372,0,0,0-.21.187.391.391,0,0,1-.134.08.4.4,0,0,1-.134.027h-2.6a1.535,1.535,0,0,1-.5-.08,3.4,3.4,0,0,1-.453-.186.758.758,0,0,1-.317-.263.648.648,0,0,1-.106-.373V77.919a8.807,8.807,0,0,1,.053-.93V74.765a2.326,2.326,0,0,1,.053-.48v-1.4a2.65,2.65,0,0,1,.054-.56V70.708a2.4,2.4,0,0,1,.053-.507V68.133a2.344,2.344,0,0,1-.053-.5V67.18q-.057-.423-.08-.743a3.834,3.834,0,0,0-.08-.53v-.053a.481.481,0,0,1-.08-.106" transform="translate(-85.491 -24.653)" fill="#fff"/>
          <path id="Pfad_8675" data-name="Pfad 8675" d="M270.217,70.245a9.514,9.514,0,0,1,1.722-1.562c.564-.392,1.04-.7,1.433-.933s.686-.4.9-.5a1.087,1.087,0,0,0,.213-.133.982.982,0,0,1,.266-.13c.069-.034.13-.061.183-.083a1.139,1.139,0,0,0,.19-.076,1.046,1.046,0,0,0,.263-.027q.1-.028.263-.08a8.542,8.542,0,0,1,.983-.293c.37-.084.77-.168,1.2-.236s.861-.134,1.322-.187.918-.1,1.379-.13h2.816a10.112,10.112,0,0,1,1.825.156,7.475,7.475,0,0,1,1.619.476,2.95,2.95,0,0,1,1.192.9,2.606,2.606,0,0,1,.5,1.486c0,.317.012.6.027.846s.045.476.08.689l.187.56a1.619,1.619,0,0,0,.187.4.953.953,0,0,1,.076.21,1.211,1.211,0,0,0,.08.21.374.374,0,0,0,.027.133.346.346,0,0,0,.08.134.535.535,0,0,1,.137.21,1.108,1.108,0,0,1,.023.217l-.107.263a1.38,1.38,0,0,1-.16.134,1.779,1.779,0,0,0-.209.187c-.248.034-.648.106-1.2.21s-1.227.228-2.038.369c-.392.077-.8.145-1.219.213s-.853.141-1.276.218c-.423.1-.858.194-1.3.259s-.892.145-1.353.217c-.884.141-1.76.278-2.625.419s-1.706.286-2.518.43c-.781.141-1.432.255-1.965.343s-.937.168-1.219.236a8.689,8.689,0,0,0,.96,2.469,5.937,5.937,0,0,0,1.638,1.829,5.593,5.593,0,0,0,1.94.979,11.615,11.615,0,0,0,2.571.453c.422-.034.864-.08,1.326-.129s.937-.118,1.432-.187a20.441,20.441,0,0,0,2.225-.48c.777-.21,1.611-.458,2.5-.739.388-.072.75-.145,1.086-.213s.628-.126.88-.16a5.231,5.231,0,0,1,.712-.133c.194-.019.362-.027.507-.027h2.118a3.474,3.474,0,0,1,.5.027.3.3,0,0,1,.24.133.375.375,0,0,0,.053.16.31.31,0,0,1-.027.107.609.609,0,0,1-.08.106l-.213.263-.317.16c-.636.244-1.284.476-1.935.689s-1.337.408-2.042.579q-1.012.217-2.1.427c-.728.145-1.444.282-2.148.423-.53.072-1.063.152-1.593.24s-1.059.148-1.592.187c-.53.069-1.052.114-1.562.134s-1.017.023-1.512.023l-2.122.057a24.03,24.03,0,0,1-3.527-.347,15.341,15.341,0,0,1-2.941-.819,4.148,4.148,0,0,1-1.988-1.543,4.327,4.327,0,0,1-.663-2.438,7.129,7.129,0,0,1,.1-1.193,11.326,11.326,0,0,1,.32-1.3c.175-.5.381-.99.61-1.482a14.535,14.535,0,0,1,.876-1.592v-.049a19.547,19.547,0,0,1,1.779-2.362m3.5,3.554c.442-.057.876-.1,1.3-.137.176-.034.362-.057.556-.076a4.172,4.172,0,0,0,.556-.08c.392-.069.769-.126,1.143-.156a9.4,9.4,0,0,0,1.033-.16c.32-.038.621-.08.9-.137s.548-.092.8-.13c.6-.106,1.093-.21,1.486-.316a3.137,3.137,0,0,0,.9-.373,1.038,1.038,0,0,0,.48-.476,1.818,1.818,0,0,0,.156-.8v-.1a.161.161,0,0,1,.053-.106v-.263a.153.153,0,0,1,.053-.107v-.164a2.584,2.584,0,0,0-.263-1.162,2.907,2.907,0,0,0-.8-.956,4.483,4.483,0,0,0-.822-.454,5.629,5.629,0,0,0-1.036-.289c-.141.034-.3.072-.477.107s-.369.091-.582.156a6.811,6.811,0,0,0-1.406.507,13.206,13.206,0,0,0-1.459.823,10.883,10.883,0,0,0-1.139.956c-.373.354-.751.743-1.139,1.162a8.083,8.083,0,0,0-.956,1.3,9.163,9.163,0,0,0-.743,1.615q.743-.1,1.405-.183" transform="translate(-101.864 -25.145)" fill="#fff"/>
          <path id="Pfad_8676" data-name="Pfad 8676" d="M313.67,65.748a.221.221,0,0,1-.027-.107.046.046,0,0,1-.053-.053v-.107l-.054-.316.16-.427a.454.454,0,0,1,.24-.13,1.4,1.4,0,0,1,.29-.027h2.388a.179.179,0,0,0,.129.053h.134a1.048,1.048,0,0,0,.266.08,1.873,1.873,0,0,1,.317.076.954.954,0,0,0,.187.08c.053.019.114.046.187.077a.3.3,0,0,0,.16.083.354.354,0,0,1,.156.08,1.619,1.619,0,0,1,.187.106.271.271,0,0,0,.133.053,1.417,1.417,0,0,1,.187.107.768.768,0,0,1,.13.1l.266.213.16.213a.436.436,0,0,1,.16.134.957.957,0,0,1,.1.236,1.879,1.879,0,0,1,.08.373,3.71,3.71,0,0,1,.027.476,9.973,9.973,0,0,1-.054,1.033c-.034.373-.087.769-.156,1.2l-.107.636a3.926,3.926,0,0,0-.053.689c-.034.21-.072.43-.107.663s-.072.472-.106.716l-.053.107v.049a20.153,20.153,0,0,1,2.255-2.941,7.937,7.937,0,0,1,2.148-1.672,23.6,23.6,0,0,1,2.839-1.272,6.223,6.223,0,0,1,1.935-.423h2.918a1.914,1.914,0,0,1,1.376.556,4.047,4.047,0,0,1,.956,1.669c.248.743.476,1.523.689,2.335a25.6,25.6,0,0,1,.53,2.6v.16a.209.209,0,0,0,.053.16.527.527,0,0,0,.027.183.563.563,0,0,1,.027.187v.156a.228.228,0,0,0,.054.164.51.51,0,0,0,.027.182.566.566,0,0,1,.027.187c.106.675.229,1.318.37,1.935s.286,1.2.427,1.726a5.33,5.33,0,0,0,.5,1.353,1.477,1.477,0,0,0,.663.663,1.5,1.5,0,0,1,.423.236.861.861,0,0,1,.213.24.536.536,0,0,1,.107.294.523.523,0,0,1-.054.236,1.273,1.273,0,0,1-.32.4,1.446,1.446,0,0,1-.53.294,1.247,1.247,0,0,1-.316.16,1.248,1.248,0,0,0-.32.16,1.759,1.759,0,0,0-.369.134,2.24,2.24,0,0,1-.32.129,2.928,2.928,0,0,1-.4.08,2.245,2.245,0,0,0-.346.08H334.4a.436.436,0,0,0-.183.054h-.266l-2.122.053a3.639,3.639,0,0,0-.4-.08.836.836,0,0,1-.293-.08.34.34,0,0,1-.21-.156.57.57,0,0,1-.053-.266c-.038-.247-.1-.548-.187-.9s-.187-.8-.294-1.326a6.342,6.342,0,0,0-.156-.823,5.919,5.919,0,0,1-.16-.766c-.072-.286-.134-.564-.187-.85s-.114-.564-.187-.85l-.1-.423c-.042-.141-.072-.286-.107-.427-.038-.175-.072-.343-.106-.5s-.072-.309-.107-.449c-.106-.32-.206-.636-.293-.956s-.168-.636-.236-.952c-.072-.286-.141-.56-.213-.823s-.141-.5-.213-.716a5.6,5.6,0,0,0-.53-1.353,4.507,4.507,0,0,0-.689-.929,1.127,1.127,0,0,0-.134-.107.524.524,0,0,1-.129-.106.515.515,0,0,1-.16-.1.505.505,0,0,0-.16-.107c-.072.035-.152.069-.24.107a.741.741,0,0,0-.236.156,6.292,6.292,0,0,0-.929.636,8.4,8.4,0,0,0-.877.85,16.568,16.568,0,0,0-1.509,1.882c-.48.689-.963,1.444-1.458,2.255q-.692,1.274-1.326,2.544a22.158,22.158,0,0,0-1.116,2.652,2.23,2.23,0,0,1-.129.32,2.205,2.205,0,0,0-.134.32.291.291,0,0,0-.08.129.414.414,0,0,0-.027.134c-.034.072-.061.126-.08.16a.345.345,0,0,0-.027.16.548.548,0,0,1-.16.182,2.368,2.368,0,0,0-.21.187.383.383,0,0,1-.133.08.41.41,0,0,1-.134.027h-2.6a1.53,1.53,0,0,1-.5-.08,3.4,3.4,0,0,1-.454-.186.756.756,0,0,1-.316-.263.649.649,0,0,1-.107-.373V77.919a8.643,8.643,0,0,1,.054-.93V74.765a2.285,2.285,0,0,1,.053-.48v-1.4a2.691,2.691,0,0,1,.053-.56V70.708a2.443,2.443,0,0,1,.053-.507V68.133a2.384,2.384,0,0,1-.053-.5V67.18c-.038-.282-.065-.529-.08-.743a3.728,3.728,0,0,0-.08-.53v-.053a.5.5,0,0,1-.08-.106" transform="translate(-119.807 -24.653)" fill="#fff"/>
          <path id="Pfad_8677" data-name="Pfad 8677" d="M383.632,70.782a13.406,13.406,0,0,0-1.962-3.474,14.943,14.943,0,0,1-1.379-1.642,2.779,2.779,0,0,1-.529-1.063v-.316a.723.723,0,0,1,.129-.19.586.586,0,0,0,.134-.183h.32l.316-.057h2.7a8.6,8.6,0,0,1,1.962.19,3.272,3.272,0,0,1,1.276.556,3.708,3.708,0,0,1,.872,1.036,8.324,8.324,0,0,1,.716,1.562c.176.568.381,1.2.61,1.909s.469,1.524.716,2.442q.314,1.114.819,2.411c.339.869.735,1.813,1.2,2.838l.053-.057.053-.049a9.481,9.481,0,0,0,.743-.979q.371-.56.743-1.246c.141-.213.271-.43.4-.636s.255-.446.4-.69c.1-.213.217-.434.343-.666s.255-.465.4-.712c.422-.816.827-1.6,1.219-2.362s.762-1.475,1.112-2.148a10.208,10.208,0,0,1,1.01-1.566,1.131,1.131,0,0,1,.793-.5h2.126c.1-.069.263.061.472.4s.5.857.85,1.562.72,1.459,1.089,2.255.747,1.619,1.139,2.464v.107l.1.1q.531,1.171,1.04,2.286c.331.743.663,1.433.979,2.069q.269.582.5,1.005a4.915,4.915,0,0,0,.453.69,4.62,4.62,0,0,0,.663-.717c.229-.3.469-.644.716-1.036.282-.5.545-.982.793-1.455s.48-.983.693-1.513c.065-.247.149-.483.236-.72s.168-.465.24-.712a7.16,7.16,0,0,1,.24-.717,3.6,3.6,0,0,0,.182-.663,3.769,3.769,0,0,0,.16-.636c.035-.213.072-.423.1-.636a1.512,1.512,0,0,1,.03-.32,2.232,2.232,0,0,0,.027-.317.609.609,0,0,0,.049-.266V68.1c0-.282-.007-.541-.023-.77s-.046-.469-.083-.716a2.8,2.8,0,0,1-.077-.343,2.36,2.36,0,0,1-.027-.347,2.629,2.629,0,0,1-.08-.316,2.444,2.444,0,0,0-.08-.32.993.993,0,0,1-.08-.24,1.348,1.348,0,0,1-.027-.289.9.9,0,0,1-.076-.24,1.5,1.5,0,0,0-.08-.236c-.038-.179-.064-.328-.083-.453a2.2,2.2,0,0,1-.023-.347v-.24a.5.5,0,0,1,.053-.236.571.571,0,0,1,.134-.183.6.6,0,0,1,.182-.134h2.122a6.161,6.161,0,0,1,1.726.61,2.955,2.955,0,0,1,1.081.983,3.735,3.735,0,0,1,.61,1.272,5.372,5.372,0,0,1,.19,1.432v.37a.5.5,0,0,0-.057.213v.21c-.03.145-.057.275-.076.4a2.575,2.575,0,0,0-.027.4c-.106.423-.221.83-.342,1.219a10.709,10.709,0,0,1-.453,1.165,5.05,5.05,0,0,1-.236.587,5.628,5.628,0,0,0-.24.526c-.111.179-.206.339-.294.48a4.442,4.442,0,0,0-.236.427c-.076.106-.141.2-.213.289a2.7,2.7,0,0,1-.213.24l-.373.423c-.141.213-.289.442-.446.689s-.328.514-.506.8c-.176.247-.37.5-.583.769s-.427.541-.636.823a8.437,8.437,0,0,1-.556.69c-.195.209-.381.423-.556.632s-.362.427-.556.641-.381.407-.56.582a11.814,11.814,0,0,1-1.033.93,7.962,7.962,0,0,1-.983.663,4.613,4.613,0,0,1-.9.476,2.293,2.293,0,0,1-.8.156l-2.118.057h-.266a2.028,2.028,0,0,1-.56-.583,10.05,10.05,0,0,1-.765-1.329c-.282-.6-.587-1.227-.9-1.882s-.636-1.333-.956-2.042c-.034-.069-.072-.141-.106-.21s-.072-.145-.107-.213a1.244,1.244,0,0,1-.08-.213,1.348,1.348,0,0,0-.076-.213c-.324-.6-.621-1.182-.9-1.749s-.568-1.1-.849-1.592a.2.2,0,0,0-.03-.107.305.305,0,0,0-.076-.1.089.089,0,0,1-.08-.053.284.284,0,0,1-.027-.107c-.072.137-.156.309-.263.5s-.213.381-.32.556q-.531.851-1.059,1.752t-1.112,1.855c-.072.141-.145.275-.213.4s-.141.236-.214.347c-.072.141-.141.274-.213.4s-.141.236-.209.347c-.427.67-.823,1.28-1.193,1.829s-.754,1.07-1.143,1.565a5,5,0,0,1-1.01.956,1.267,1.267,0,0,1-.85.263l-2.118.049a5.027,5.027,0,0,1-.316-.446c-.107-.164-.213-.328-.32-.5s-.213-.366-.32-.56a3.549,3.549,0,0,1-.266-.663,1.041,1.041,0,0,0-.129-.21.9.9,0,0,1-.134-.267c-.034-.072-.072-.148-.107-.24s-.072-.182-.106-.293c-.035-.069-.069-.137-.1-.21a.552.552,0,0,1-.054-.266c-.034-.069-.076-.141-.106-.21s-.072-.141-.111-.213a2.269,2.269,0,0,0-.106-.213c-.031-.069-.065-.156-.1-.263-.038-.072-.069-.141-.1-.218s-.072-.137-.107-.209v-.05a59.487,59.487,0,0,0-2.228-6.445" transform="translate(-145.088 -23.932)" fill="#fff"/>
          <path id="Pfad_8678" data-name="Pfad 8678" d="M448.009,57.955l-.054-.049V57.8l.156-.427a.662.662,0,0,1,.187-.133.748.748,0,0,1,.24-.027h2.118a2.687,2.687,0,0,1,.369.027,1.536,1.536,0,0,1,.427.133,1.735,1.735,0,0,1,.506.187c.156.091.3.168.449.24a.427.427,0,0,0,.1.077.192.192,0,0,0,.107.03.088.088,0,0,0,.057.076.2.2,0,0,0,.107.027.376.376,0,0,0,.1.08.237.237,0,0,0,.1.027.48.48,0,0,0,.11.08.392.392,0,0,1,.107.08.512.512,0,0,1,.156.106.223.223,0,0,0,.16.049.65.65,0,0,0,.134.107,1.057,1.057,0,0,1,.134.11,1.166,1.166,0,0,1,.293.134,1.212,1.212,0,0,1,.236.183c.072.038.114.122.134.263s.041.32.08.534v.316a1.819,1.819,0,0,0,.049.37v1.965a4.46,4.46,0,0,0-.049.636v.636c-.038.461-.065.91-.08,1.352s-.027.911-.027,1.406l-.054.263v.266c-.034.423-.061.85-.08,1.272s-.027.85-.027,1.272c-.038.427-.054.83-.054,1.219v2.286a4.175,4.175,0,0,0,.027.5,3.182,3.182,0,0,0,.08.453v.156l.053.217v.21l.054.21v.217l-.16.316c-.038.035-.088.076-.16.13a1.268,1.268,0,0,1-.21.133l-.164.107-.106.057h-2.6l-.209-.057a1.477,1.477,0,0,0-.423-.134.742.742,0,0,1-.37-.133,1.365,1.365,0,0,1-.187-.1.31.31,0,0,0-.187-.053l-.106-.107-.107-.106-.156-.107-.053-.16a1.9,1.9,0,0,1-.08-.477c-.019-.213-.027-.476-.027-.792V66.545q-.057-1.531-.107-2.914c-.038-.918-.088-1.8-.16-2.652a10.277,10.277,0,0,0-.316-1.988,1.407,1.407,0,0,0-.529-.876v-.16Zm3.074-11.509h-2.126l.164-.053h2.491a3.25,3.25,0,0,1,.556.053,2.9,2.9,0,0,1,.56.164c.171.065.335.141.476.206s.278.145.419.213a2.542,2.542,0,0,1,.373.217.556.556,0,0,1,.213.21l.107.21v4.986l-.213.16a.244.244,0,0,1-.183.053h-2.785a1.119,1.119,0,0,1-.24-.027,1.06,1.06,0,0,1-.24-.08c-.176-.072-.347-.141-.5-.213a3.874,3.874,0,0,1-.5-.267,1,1,0,0,1-.32-.392,1.172,1.172,0,0,1-.1-.453l-.373-5.04h2.122Z" transform="translate(-171.119 -17.71)" fill="#fff"/>
          <path id="Pfad_8679" data-name="Pfad 8679" d="M469.909,70.245a9.492,9.492,0,0,1,1.722-1.562c.564-.392,1.04-.7,1.432-.933s.686-.4.9-.5a1.089,1.089,0,0,0,.213-.133.981.981,0,0,1,.266-.13c.069-.034.13-.061.183-.083a1.14,1.14,0,0,0,.19-.076,1.046,1.046,0,0,0,.263-.027c.069-.019.156-.045.263-.08a8.538,8.538,0,0,1,.983-.293c.37-.084.77-.168,1.2-.236s.861-.134,1.322-.187.918-.1,1.379-.13h2.815a10.113,10.113,0,0,1,1.825.156,7.478,7.478,0,0,1,1.619.476,2.952,2.952,0,0,1,1.193.9,2.606,2.606,0,0,1,.5,1.486c0,.317.012.6.027.846s.046.476.08.689l.187.56a1.619,1.619,0,0,0,.187.4.953.953,0,0,1,.076.21,1.211,1.211,0,0,0,.08.21.386.386,0,0,0,.027.133.354.354,0,0,0,.08.134.535.535,0,0,1,.137.21,1.108,1.108,0,0,1,.023.217l-.107.263a1.376,1.376,0,0,1-.16.134,1.83,1.83,0,0,0-.21.187c-.247.034-.647.106-1.2.21s-1.227.228-2.038.369c-.392.077-.8.145-1.219.213s-.854.141-1.277.218c-.422.1-.857.194-1.3.259s-.891.145-1.352.217c-.883.141-1.76.278-2.625.419s-1.707.286-2.518.43c-.781.141-1.432.255-1.965.343s-.937.168-1.219.236a8.689,8.689,0,0,0,.96,2.469,5.937,5.937,0,0,0,1.638,1.829,5.6,5.6,0,0,0,1.939.979,11.629,11.629,0,0,0,2.571.453c.423-.034.865-.08,1.326-.129s.937-.118,1.432-.187a20.444,20.444,0,0,0,2.225-.48c.777-.21,1.611-.458,2.495-.739.389-.072.751-.145,1.086-.213s.629-.126.88-.16a5.231,5.231,0,0,1,.712-.133c.194-.019.362-.027.506-.027h2.118a3.48,3.48,0,0,1,.5.027.3.3,0,0,1,.24.133.375.375,0,0,0,.053.16.325.325,0,0,1-.027.107.586.586,0,0,1-.08.106l-.213.263-.316.16c-.636.244-1.284.476-1.935.689s-1.337.408-2.042.579q-1.011.217-2.095.427c-.728.145-1.444.282-2.149.423-.529.072-1.063.152-1.592.24s-1.059.148-1.593.187c-.529.069-1.051.114-1.562.134s-1.017.023-1.512.023l-2.122.057a24.013,24.013,0,0,1-3.527-.347,15.341,15.341,0,0,1-2.941-.819,4.145,4.145,0,0,1-1.988-1.543,4.327,4.327,0,0,1-.663-2.438,7.126,7.126,0,0,1,.1-1.193,11.32,11.32,0,0,1,.32-1.3c.175-.5.381-.99.609-1.482a14.64,14.64,0,0,1,.877-1.592v-.049a19.544,19.544,0,0,1,1.779-2.362m3.5,3.554c.442-.057.876-.1,1.3-.137.176-.034.362-.057.556-.076a4.147,4.147,0,0,0,.556-.08c.393-.069.77-.126,1.143-.156a9.4,9.4,0,0,0,1.033-.16c.32-.038.621-.08.9-.137s.548-.092.8-.13c.6-.106,1.093-.21,1.486-.316a3.136,3.136,0,0,0,.9-.373,1.038,1.038,0,0,0,.48-.476,1.828,1.828,0,0,0,.156-.8v-.1a.16.16,0,0,1,.053-.106v-.263a.153.153,0,0,1,.053-.107v-.164a2.585,2.585,0,0,0-.263-1.162,2.915,2.915,0,0,0-.8-.956,4.469,4.469,0,0,0-.823-.454,5.608,5.608,0,0,0-1.036-.289c-.141.034-.3.072-.477.107s-.369.091-.582.156a6.812,6.812,0,0,0-1.406.507,13.209,13.209,0,0,0-1.459.823,10.871,10.871,0,0,0-1.139.956c-.373.354-.751.743-1.139,1.162a8.078,8.078,0,0,0-.956,1.3A9.166,9.166,0,0,0,472,73.981q.743-.1,1.405-.183" transform="translate(-178.092 -25.145)" fill="#fff"/>
          <path id="Pfad_8680" data-name="Pfad 8680" d="M538.931,57.955l-.053-.049V57.8l.156-.427a.67.67,0,0,1,.187-.133.752.752,0,0,1,.24-.027h2.118a2.7,2.7,0,0,1,.37.027,1.531,1.531,0,0,1,.427.133,1.733,1.733,0,0,1,.507.187c.156.091.3.168.449.24a.414.414,0,0,0,.1.077.189.189,0,0,0,.107.03.087.087,0,0,0,.057.076.2.2,0,0,0,.1.027.454.454,0,0,0,.107.08.234.234,0,0,0,.1.027.482.482,0,0,0,.111.08.387.387,0,0,1,.106.08.517.517,0,0,1,.156.106.222.222,0,0,0,.16.049.63.63,0,0,0,.133.107,1.012,1.012,0,0,1,.134.11,1.16,1.16,0,0,1,.294.134,1.251,1.251,0,0,1,.236.183c.072.038.114.122.133.263s.042.32.08.534v.316a1.777,1.777,0,0,0,.049.37v1.965a4.373,4.373,0,0,0-.049.636v.636c-.038.461-.065.91-.08,1.352s-.027.911-.027,1.406l-.053.263v.266c-.035.423-.061.85-.08,1.272s-.027.85-.027,1.272c-.038.427-.053.83-.053,1.219v2.286a4.178,4.178,0,0,0,.027.5,3.172,3.172,0,0,0,.08.453v.156l.053.217v.21l.053.21v.217l-.16.316a1.98,1.98,0,0,1-.159.13,1.273,1.273,0,0,1-.21.133l-.164.107-.107.057h-2.6l-.21-.057a1.465,1.465,0,0,0-.423-.134.74.74,0,0,1-.369-.133,1.329,1.329,0,0,1-.187-.1.311.311,0,0,0-.187-.053l-.107-.107-.106-.106-.156-.107-.053-.16a1.893,1.893,0,0,1-.08-.477c-.019-.213-.027-.476-.027-.792V66.545q-.057-1.531-.106-2.914c-.038-.918-.088-1.8-.16-2.652a10.276,10.276,0,0,0-.316-1.988,1.4,1.4,0,0,0-.53-.876v-.16Zm3.074-11.509H539.88l.164-.053h2.492a3.25,3.25,0,0,1,.556.053,2.884,2.884,0,0,1,.56.164c.171.065.335.141.476.206s.278.145.419.213a2.551,2.551,0,0,1,.373.217.557.557,0,0,1,.213.21l.107.21v4.986l-.213.16a.245.245,0,0,1-.183.053h-2.785a1.115,1.115,0,0,1-.24-.027,1.066,1.066,0,0,1-.24-.08c-.175-.072-.346-.141-.5-.213a3.8,3.8,0,0,1-.5-.267,1,1,0,0,1-.32-.392,1.171,1.171,0,0,1-.1-.453l-.373-5.04H541.9Z" transform="translate(-205.827 -17.71)" fill="#fff"/>
          <path id="Pfad_8681" data-name="Pfad 8681" d="M559.787,78.484c.068-1.009.122-1.935.16-2.785.031-.811.057-1.565.08-2.255s.027-1.314.027-1.882V70.5a1.605,1.605,0,0,1-.053-.427V68.911a.852.852,0,0,1-.054-.29v-.293c-.038-.175-.061-.347-.083-.5s-.023-.313-.023-.454V66.366a1.006,1.006,0,0,1,.023-.213,1.574,1.574,0,0,1,.083-.213.663.663,0,0,0,.183-.023.659.659,0,0,1,.187-.027.2.2,0,0,1,.156-.054h.346a.182.182,0,0,0,.134-.053h2.442a3.606,3.606,0,0,1,1.113.156,1.337,1.337,0,0,1,.743.587,2.646,2.646,0,0,1,.4.872,4.37,4.37,0,0,1,.134,1.143,9.028,9.028,0,0,1-.107,1.326c-.069.458-.16.953-.263,1.486-.038.179-.072.351-.107.53s-.072.354-.106.529a3.144,3.144,0,0,0-.16.53c-.034.179-.069.354-.106.529l.106-.1c.038-.038.072-.072.1-.107s.077-.072.111-.106.072-.073.107-.107q.159-.211.343-.423c.126-.145.259-.286.4-.427a1.787,1.787,0,0,0,.183-.21c.053-.072.114-.16.187-.266a.765.765,0,0,1,.16-.213c.068-.069.141-.141.213-.21.137-.145.278-.286.423-.427l.422-.423a2.822,2.822,0,0,1,.373-.4c.137-.122.278-.255.423-.4.282-.247.541-.476.77-.689a3.833,3.833,0,0,1,.716-.53c.389-.213.743-.407,1.059-.582a9.236,9.236,0,0,1,.849-.427,6.017,6.017,0,0,1,.77-.236,2.887,2.887,0,0,1,.663-.08h2.122a1.817,1.817,0,0,1,1.112.317,1.934,1.934,0,0,1,.636,1.063,9.186,9.186,0,0,1,.32,1.588,17.94,17.94,0,0,1,.107,2.016v.636a1.456,1.456,0,0,0-.053.373v.743c.175-.248.343-.488.5-.717s.328-.468.5-.716a7.822,7.822,0,0,0,.587-.663c.176-.229.37-.469.583-.716q.634-.743,1.272-1.433a10.607,10.607,0,0,1,1.322-1.219c.358-.282.709-.541,1.063-.769A10.725,10.725,0,0,1,584.45,67a5.661,5.661,0,0,1,1.006-.4,3.582,3.582,0,0,1,.956-.13h2.122a2.443,2.443,0,0,1,1.006.21,2.99,2.99,0,0,1,.9.636,3.8,3.8,0,0,1,.743,1.143,8.961,8.961,0,0,1,.53,1.668,3.768,3.768,0,0,1,.183.8c.057.354.1.777.133,1.272.072.529.153,1.063.236,1.593s.19,1.078.3,1.642c.106.675.236,1.329.4,1.965s.309,1.254.453,1.855a4.84,4.84,0,0,0,.556,1.272.816.816,0,0,0,.663.423c.069.038.122.065.156.08a.221.221,0,0,0,.107.027.388.388,0,0,0,.106.08.5.5,0,0,1,.107.08.511.511,0,0,1,.1.16.144.144,0,0,1,.057.107v.209c0,.038-.019.054-.057.054a.214.214,0,0,1-.023.106.221.221,0,0,0-.027.107l-.213.316a3.7,3.7,0,0,0-.37.294c-.141.122-.3.255-.48.4-.175.107-.362.213-.556.32a6.146,6.146,0,0,1-.556.266,2.4,2.4,0,0,1-.317.076,2.417,2.417,0,0,0-.32.08,1.641,1.641,0,0,1-.32.08,1.474,1.474,0,0,1-.263.027l-2.122.054a.865.865,0,0,0-.293-.054.477.477,0,0,1-.236-.053.459.459,0,0,1-.24-.16,1.275,1.275,0,0,1-.134-.21c-.038-.179-.08-.354-.13-.529s-.118-.354-.186-.534c-.035-.175-.084-.35-.134-.529s-.114-.354-.187-.529q-.16-.583-.289-1.166c-.092-.388-.168-.781-.24-1.169-.035-.107-.061-.2-.08-.29a1.388,1.388,0,0,1-.026-.293,1.016,1.016,0,0,1-.08-.263,1.958,1.958,0,0,0-.08-.32,2.067,2.067,0,0,1-.08-.316,2.234,2.234,0,0,1-.023-.32.8.8,0,0,1-.08-.266,1.456,1.456,0,0,1-.027-.317c-.11-.457-.213-.9-.32-1.326s-.21-.83-.317-1.219c-.141-.389-.266-.77-.373-1.143s-.213-.731-.317-1.086c-.145-.388-.286-.735-.427-1.036a2.636,2.636,0,0,0-.476-.716l-.053.053a9.264,9.264,0,0,0-1.406.956,8.663,8.663,0,0,0-1.405,1.486c-.458.563-.9,1.165-1.326,1.8s-.83,1.272-1.219,1.909q-.531.954-.983,1.833c-.3.582-.575,1.158-.823,1.722s-.457,1.044-.633,1.432a7.559,7.559,0,0,0-.373.956l-.213.21-.316.053H574a.217.217,0,0,0-.16-.053.151.151,0,0,0-.106-.054h-.21c-.038,0-.053-.015-.053-.053a.246.246,0,0,1-.111-.027.193.193,0,0,0-.1-.023,3.193,3.193,0,0,1-.449-.16,1.541,1.541,0,0,1-.454-.32,1.124,1.124,0,0,1-.289-.449,1.326,1.326,0,0,1-.08-.449v-.107l.053-.16c.141-.811.266-1.581.37-2.309s.194-1.386.266-1.988.125-1.146.16-1.642.053-.956.053-1.379a8.485,8.485,0,0,0-.107-1.406,3.1,3.1,0,0,0-.32-.982,1,1,0,0,0-.53-.53h-.053a5.822,5.822,0,0,0-1.486.956,12.487,12.487,0,0,0-1.482,1.535q-.743.954-1.436,1.962c-.457.678-.88,1.364-1.268,2.069-.248.461-.5.922-.743,1.379s-.48.9-.693,1.326-.4.822-.579,1.2-.339.717-.48,1.033a.374.374,0,0,1-.107.266.365.365,0,0,1-.263.107,1.413,1.413,0,0,1-.4.129,2.644,2.644,0,0,1-.4.027l-2.121.054c-.141-.035-.275-.061-.4-.08a.861.861,0,0,1-.347-.129c-.107,0-.167-.038-.187-.107a.487.487,0,0,1,.027-.266v-.053q.161-1.749.267-3.261" transform="translate(-213.693 -25.111)" fill="#fff"/>
          <path id="Pfad_8682" data-name="Pfad 8682" d="M657.612,53.317a1.388,1.388,0,0,0-.027.293,2.183,2.183,0,0,0-.08.347c-.019.122-.046.255-.08.4s-.061.27-.08.4a2.671,2.671,0,0,0-.027.4,3.556,3.556,0,0,0-.076.427q-.034.211-.08.48a3,3,0,0,0-.08.392,2.258,2.258,0,0,0-.027.4c-.034.141-.061.278-.08.4a2.316,2.316,0,0,0-.031.347c-.069.533-.133,1.044-.182,1.539s-.114.99-.187,1.486c-.035.461-.069.83-.1,1.112a5.036,5.036,0,0,0-.053.587A6.821,6.821,0,0,0,657,64.585a7.038,7.038,0,0,0,1.326,1.966,6.066,6.066,0,0,0,1.433,1.143,5.377,5.377,0,0,0,1.7.61c.034-.038.061-.057.08-.057h.076c.248-.069.5-.137.743-.213a3.186,3.186,0,0,0,.746-.313,13.155,13.155,0,0,0,2.892-1.912,17.533,17.533,0,0,0,2.518-2.7,36.849,36.849,0,0,0,2.255-3.185q1.034-1.641,1.989-3.341c.278-.5.533-.979.765-1.459s.472-.941.72-1.4c.244-.5.483-.964.712-1.41s.453-.872.663-1.3a4.661,4.661,0,0,0,.453-.979c.122-.373.236-.793.343-1.25s.205-.93.289-1.406.171-.948.244-1.4c.069-.534.145-1.055.236-1.566s.148-1.017.187-1.512c.069-.5.134-.937.187-1.326s.1-.724.13-1.006h2.6a4.539,4.539,0,0,1,2.224.472,2.752,2.752,0,0,1,1.223,1.433,15,15,0,0,1,.5,1.988,17.692,17.692,0,0,1,.236,2.2v.476a.506.506,0,0,0-.049.24V48.89a.433.433,0,0,0-.053.21v2.069a.55.55,0,0,0,.053.266c.069.743.145,1.459.236,2.148s.148,1.371.187,2.042c.069.674.134,1.31.187,1.912s.1,1.2.129,1.8q.16,2.44.454,4.453c.19,1.345.415,2.526.663,3.554a6,6,0,0,0,1.3,2.442,4.271,4.271,0,0,0,2.255,1.269.257.257,0,0,1,0,.213.347.347,0,0,1-.159.156c-.107.072-.213.153-.324.244s-.229.182-.37.289c-.069.034-.137.072-.21.1s-.145.077-.213.107a.479.479,0,0,0-.21.053c-.076.038-.14.072-.217.107-.137.072-.278.141-.419.213s-.286.141-.427.213c-.247.069-.506.148-.769.24s-.5.164-.717.236c-.247.069-.449.126-.609.156a1.625,1.625,0,0,1-.343.053l-.106.106H682.51c-.316-.034-.61-.289-.872-.769a8.015,8.015,0,0,1-.716-2.092c-.213-.956-.412-1.969-.583-3.051s-.354-2.217-.534-3.421c-.034-.248-.068-.5-.106-.743a5.241,5.241,0,0,1-.049-.792c-.038-.248-.072-.5-.111-.743l-.1-.743c-.035-.248-.072-.484-.107-.717a4.439,4.439,0,0,1-.053-.716c-.034-.213-.069-.43-.111-.663s-.064-.449-.1-.667v-.156a.157.157,0,0,1-.053-.107v-.32c-.035,0-.049-.015-.049-.053v-.1a1.5,1.5,0,0,1-.107-.263,1.126,1.126,0,0,1-.057-.373,4.562,4.562,0,0,1-.077-.453,4.33,4.33,0,0,1-.027-.5c-.034-.176-.061-.347-.08-.5s-.046-.323-.08-.5-.061-.365-.08-.56-.027-.4-.027-.609a.786.786,0,0,0-.027-.21,1.008,1.008,0,0,1-.027-.213.757.757,0,0,1-.077-.213.812.812,0,0,1-.027-.21.984.984,0,0,0-.083.21.916.916,0,0,1-.076.213.969.969,0,0,0-.08.213.99.99,0,0,1-.083.21c-.248.674-.526,1.333-.846,1.992s-.652,1.334-1.01,2.038a40.905,40.905,0,0,1-2.118,3.741,43.35,43.35,0,0,1-2.549,3.581,19.432,19.432,0,0,1-3.047,3.1,17.483,17.483,0,0,1-3.581,2.255,4.16,4.16,0,0,1-.423.183,3.4,3.4,0,0,0-.427.19,2.313,2.313,0,0,0-.4.133c-.122.049-.255.114-.4.183-.286.038-.568.08-.85.13s-.568.1-.849.133a3.673,3.673,0,0,1-.77.134c-.263.019-.541.03-.819.03l-2.122.049a9.345,9.345,0,0,1-2.309-.373,6.04,6.04,0,0,1-1.988-1,4.511,4.511,0,0,1-1.459-1.783,7.344,7.344,0,0,1-.61-2.571,5.189,5.189,0,0,1-.053-.712V63.207c0-1.128.019-2.191.053-3.181s.107-1.9.214-2.754.213-1.638.316-2.362.213-1.405.32-2.042c.069-.427.149-.823.24-1.2s.168-.716.236-1.029.141-.621.213-.906.122-.545.16-.793c.141-.6.263-1.169.37-1.7a12.587,12.587,0,0,0,.213-1.482c.069-.5.122-.948.16-1.352s.049-.788.049-1.139c0-.393-.007-.743-.023-1.067a4.1,4.1,0,0,0-.134-.846,3.829,3.829,0,0,1-.083-.4,2.837,2.837,0,0,1-.023-.347,2.335,2.335,0,0,1-.08-.32,2.522,2.522,0,0,0-.08-.317c-.106-.388-.187-.7-.24-.929a2.261,2.261,0,0,0-.187-.552.347.347,0,0,1,.137-.373,2.1,2.1,0,0,1,.556-.32l.263-.049.32-.106h2.122a12.594,12.594,0,0,1,1.988.5,3.919,3.919,0,0,1,1.3.716,2.308,2.308,0,0,1,.717.983,3.648,3.648,0,0,1,.236,1.352,9.777,9.777,0,0,1-.236,1.985c-.164.758-.381,1.619-.663,2.575-.32.956-.648,2.05-.983,3.288s-.7,2.6-1.089,4.084H655.57v-.053h2.118a1.293,1.293,0,0,0-.076.236" transform="translate(-248.751 -14.372)" fill="#fff"/>
          <path id="Pfad_8683" data-name="Pfad 8683" d="M718.761,78.377c.019-.438.045-.892.08-1.353v-.663a4.194,4.194,0,0,1,.053-.663V73.311a2.891,2.891,0,0,1-.053-.556V71.193a2.013,2.013,0,0,1-.053-.48v-.477c-.035-.278-.061-.568-.08-.85s-.023-.545-.023-.8V67.211c0-.312,0-.6.023-.846a3.8,3.8,0,0,1,.08-.582,1.558,1.558,0,0,1,.213-.4.394.394,0,0,1,.316-.134h.373l.156-.053h2.495a5.292,5.292,0,0,1,1.112.106,1.169,1.169,0,0,1,.69.373,1.254,1.254,0,0,1,.4.61,2.65,2.65,0,0,1,.134.872,7.315,7.315,0,0,1-.08,1.036c-.054.37-.114.773-.183,1.192-.072.354-.152.743-.24,1.17s-.168.869-.24,1.326c.427-.533.841-1.044,1.25-1.539s.785-.956,1.139-1.375a13.654,13.654,0,0,0,.956-1.17c.244-.354.438-.655.583-.9l-.053-.164v-.21a1.8,1.8,0,0,1,.027-.32,3.475,3.475,0,0,1,.08-.373c.035-.1.077-.229.13-.37a3.09,3.09,0,0,0,.134-.423,2.829,2.829,0,0,1,.427-.769c.175-.232.369-.465.582-.717a3.184,3.184,0,0,1,.636-.5,1.228,1.228,0,0,1,.636-.187h2.229a.138.138,0,0,1,.1.053.378.378,0,0,0,.16.054.247.247,0,0,1,.111.027.248.248,0,0,0,.106.027.072.072,0,0,0,.049.076.212.212,0,0,0,.107.027,18.376,18.376,0,0,0,.316,2.335,9.553,9.553,0,0,0,.476,1.646,5.779,5.779,0,0,0,.587,1.086,3.646,3.646,0,0,0,.636.716,2.455,2.455,0,0,0,.427.267,2.266,2.266,0,0,0,.419.16,3.473,3.473,0,0,0,.4.077,1.823,1.823,0,0,0,.343.027h.214a.151.151,0,0,0,.106.053h.107a.231.231,0,0,1,.129.134.546.546,0,0,1,.027.187,1.391,1.391,0,0,1-.316.476,1.281,1.281,0,0,1-.53.316,2.192,2.192,0,0,1-.636.217,5.2,5.2,0,0,1-.742.049h-2.758a1.173,1.173,0,0,1-.32-.049c-.106-.034-.209-.072-.316-.11a5.1,5.1,0,0,1-1.2-.343,8.854,8.854,0,0,1-1.082-.556l-.057-.054a.183.183,0,0,1-.107-.049v.049a.047.047,0,0,0-.053.054c-.069.1-.148.221-.236.343s-.168.24-.24.347c-.107.141-.2.263-.289.369a2.472,2.472,0,0,0-.236.32c-.076.107-.156.221-.24.343s-.172.24-.24.346c-.106.141-.205.263-.293.37s-.168.213-.24.32c-.423.6-.827,1.219-1.219,1.855s-.777,1.311-1.165,2.016a13.687,13.687,0,0,0-1.01,2.175,18.71,18.71,0,0,0-.689,2.438h-.156l-.156.053-.217.054h-2.281c-.282-.035-.545-.072-.793-.107a1.578,1.578,0,0,1-.689-.266.925.925,0,0,1-.4-.449.6.6,0,0,1,.083-.5v-.049c.031-.5.057-.968.077-1.409" transform="translate(-274.423 -23.997)" fill="#fff"/>
          <path id="Pfad_8684" data-name="Pfad 8684" d="M753.12,49.049q0-1.7-.03-3.1c-.015-.937-.042-1.757-.076-2.469s-.072-1.341-.107-1.909-.072-1.059-.106-1.486-.08-.785-.13-1.086-.1-.556-.133-.769c-.038-.176-.065-.347-.084-.5s-.023-.309-.023-.453a.529.529,0,0,1-.053-.236.986.986,0,0,1,.053-.293c.035-.069.08-.156.134-.263a2.024,2.024,0,0,0,.129-.373.579.579,0,0,1,.134-.08,1.212,1.212,0,0,0,.187-.076,1.032,1.032,0,0,1,.24-.083,1.349,1.349,0,0,1,.236-.023h2.388a.419.419,0,0,0,.187.049h.13a1.6,1.6,0,0,0,.316.08.84.84,0,0,1,.324.134c.244.11.476.217.686.32a3.4,3.4,0,0,1,.64.423,2.863,2.863,0,0,1,.53.454,1.077,1.077,0,0,1,.263.5v.076c0,.023.015.049.053.08v.956c0,.5-.012,1.112-.027,1.855s-.061,1.608-.134,2.6c-.034.5-.061,1.01-.076,1.543s-.03,1.059-.03,1.593c-.035.56-.061,1.131-.077,1.691s-.049,1.154-.08,1.753c-.034.388-.065.785-.084,1.192s-.027.8-.027,1.193c-.03.427-.057.841-.076,1.246s-.03.8-.03,1.2c-.03.846-.065,1.7-.1,2.549s-.049,1.676-.049,2.488c-.038.815-.053,1.6-.053,2.362v2.2c0,.781.007,1.524.027,2.228s.038,1.36.076,1.962.08,1.116.134,1.539a6.84,6.84,0,0,0,.187,1.01.336.336,0,0,1-.084.213.5.5,0,0,1-.182.156.473.473,0,0,1-.263.134,2.244,2.244,0,0,1-.324.027l-2.118.053a.207.207,0,0,0-.156-.053.157.157,0,0,0-.106-.053h-.324a.142.142,0,0,0-.1-.053h-.107c-.141-.035-.274-.061-.4-.08a1.389,1.389,0,0,1-.392-.129,1.5,1.5,0,0,0-.19-.084.654.654,0,0,0-.183-.027.407.407,0,0,0-.134-.08.291.291,0,0,1-.129-.077l-.267-.16v-.16c-.038-.213-.072-.442-.106-.689a4.817,4.817,0,0,1-.057-.743,7.718,7.718,0,0,1-.049-.819V66.234c0-.248.012-.5.027-.743s.041-.5.08-.743v-.956a2.011,2.011,0,0,1,.049-.423V62.1a2.3,2.3,0,0,1,.057-.48V49.049Z" transform="translate(-287.325 -13.683)" fill="#fff"/>
          <path id="Pfad_8685" data-name="Pfad 8685" d="M791.763,67.77c.015,0,.042-.015.076-.049h.107a.679.679,0,0,0,.187-.027c.049-.019.114-.046.182-.08a.3.3,0,0,1,.164-.08.331.331,0,0,0,.156-.08h2.122l.053.316v.107a.482.482,0,0,0,.049.16V68.3c.038.316.077.7.107,1.139s.072.93.111,1.459c.03.564.076,1.124.129,1.669s.118,1.124.187,1.726c.069.884.179,1.722.316,2.518a21.473,21.473,0,0,0,.53,2.255,4.075,4.075,0,0,0,.716,1.642,1.294,1.294,0,0,0,.983.534h.16a.741.741,0,0,1,.236.236.236.236,0,0,1,.03.24.671.671,0,0,1-.187.213c-.091.069-.183.141-.289.21s-.225.141-.347.213a3.679,3.679,0,0,1-.453.213c-.069.03-.141.069-.213.1s-.141.072-.206.107a2.24,2.24,0,0,0-.266.106c-.072.035-.145.072-.213.107-.107.034-.206.061-.294.08a1.074,1.074,0,0,0-.236.08,1.391,1.391,0,0,0-.293.027.788.788,0,0,0-.24.08,1.292,1.292,0,0,1-.423.13,2.841,2.841,0,0,1-.37.027l-2.126.053-.316-.053-.107-.1a2.83,2.83,0,0,1-.263-.587c-.072-.209-.141-.441-.213-.689-.035-.247-.08-.51-.134-.792s-.114-.587-.187-.9l-.053-.106v-.16c-.03-.21-.069-.415-.106-.61a2.9,2.9,0,0,0-.156-.552,8.492,8.492,0,0,1-.956.712,13.084,13.084,0,0,1-1.162.663,20.007,20.007,0,0,1-2.7,1.059,24,24,0,0,1-2.812.689c-.392.038-.781.08-1.169.134s-.781.1-1.166.134c-.354.034-.72.061-1.089.08s-.735.027-1.086.027l-2.122.053c-.351-.034-.689-.061-1.01-.08s-.617-.046-.9-.08-.552-.077-.819-.134-.506-.1-.716-.134a4.863,4.863,0,0,1-1.352-.663,3.1,3.1,0,0,1-.876-.926,3.044,3.044,0,0,1-.53-1.036,4.311,4.311,0,0,1-.16-1.193,5.767,5.767,0,0,1,.08-.956,8.374,8.374,0,0,1,.24-1.006c.1-.32.229-.655.37-1.01a7.486,7.486,0,0,1,.533-1.058,16.863,16.863,0,0,1,1.8-2.412,27.9,27.9,0,0,1,2.385-2.362,26.239,26.239,0,0,1,2.758-1.962,15.122,15.122,0,0,1,2.868-1.379c.278-.107.571-.2.869-.294a5.555,5.555,0,0,1,.876-.183,4.788,4.788,0,0,1,.876-.133c.3-.019.59-.027.876-.027h2.118a6.323,6.323,0,0,1,1.432.16,7.615,7.615,0,0,1,1.326.427,5.555,5.555,0,0,1,1.17.712,6.333,6.333,0,0,1,1.059,1.032Zm-2.019,7.772a1.66,1.66,0,0,0,.03-.343v-.187a.433.433,0,0,1,.049-.186v-.37c0-.213-.007-.442-.023-.689s-.049-.5-.084-.743-.057-.492-.08-.739-.042-.5-.076-.747a3.4,3.4,0,0,1-.084-.4,2.778,2.778,0,0,0-.076-.4,1.57,1.57,0,0,1-.08-.343,3.27,3.27,0,0,1-.027-.4,8.98,8.98,0,0,0-1.112-1.3,4.782,4.782,0,0,0-1.276-.876c-.316-.141-.636-.263-.952-.37a4.661,4.661,0,0,0-.9-.213,5.562,5.562,0,0,0-1.219.24c-.389.126-.781.259-1.165.4-.568.248-1.071.5-1.513.743a13.326,13.326,0,0,0-1.25.8l-.312.32-.324.263a9.49,9.49,0,0,0-.979,1.165,10.66,10.66,0,0,0-.823,1.379,8.311,8.311,0,0,0-.579,1.512,11.856,11.856,0,0,0-.324,1.512.561.561,0,0,0-.049.213v1.086a2.927,2.927,0,0,0,.049.5c.038.141.072.294.106.454s.072.323.111.5a3.813,3.813,0,0,0,.686,1.112,3.41,3.41,0,0,0,1.112.8,5.908,5.908,0,0,0,1.013.347,6.831,6.831,0,0,0,1.055.182h.32a.326.326,0,0,0,.133-.027.561.561,0,0,1,.134-.027c.282-.069.582-.141.9-.21a9.734,9.734,0,0,0,.956-.266,11.613,11.613,0,0,0,1.829-.716,19.374,19.374,0,0,0,1.775-.979,12.058,12.058,0,0,0,1.623-1.25,13.728,13.728,0,0,0,1.352-1.455v-.053a1.24,1.24,0,0,0,.077-.24" transform="translate(-294.068 -24.98)" fill="#fff"/>
          <path id="Pfad_8686" data-name="Pfad 8686" d="M822.369,72.851a4.256,4.256,0,0,1,.08-.423,2.572,2.572,0,0,1,.027-.4,2.982,2.982,0,0,1,.08-.4v-.187a.406.406,0,0,1,.053-.187v-.5a.381.381,0,0,1,.053-.183,1.374,1.374,0,0,1,.023-.16.669.669,0,0,0,.027-.16c.038-.282.065-.556.084-.823s.042-.541.076-.819.08-.606.137-.956.1-.709.134-1.063l.263-.16.316-.049h2.389a.17.17,0,0,0,.129.049h.134a.908.908,0,0,0,.266.084.782.782,0,0,1,.32.134.9.9,0,0,1,.183.106.382.382,0,0,0,.187.049.619.619,0,0,0,.156.107.585.585,0,0,1,.16.106,2.911,2.911,0,0,1,.32.24c.107.084.213.164.317.241.072.064.152.137.24.209a.671.671,0,0,1,.187.21l.263.324c-.035.065-.069.137-.107.206a.5.5,0,0,0-.049.213c-.038.106-.072.206-.106.293s-.072.183-.107.289-.072.218-.106.32a1.022,1.022,0,0,0-.05.316c-.038.107-.076.221-.11.347s-.069.255-.107.4c-.069.247-.141.514-.21.8s-.141.564-.209.846c-.038.282-.084.564-.134.85s-.118.564-.19.846c-.03.247-.069.5-.1.743s-.072.5-.106.743a5.029,5.029,0,0,0-.053.689v.636a4.79,4.79,0,0,0,.263,2.068,2.734,2.734,0,0,0,.4.663,1.216,1.216,0,0,0,.56.4h.05c.179-.072.362-.14.56-.213a5.682,5.682,0,0,0,.61-.266,8.9,8.9,0,0,0,1.669-1.086,11.837,11.837,0,0,0,1.619-1.619q.794-.9,1.509-1.881a15.354,15.354,0,0,0,1.245-1.989c.107-.175.21-.343.294-.5a3.983,3.983,0,0,0,.24-.506c.069-.141.141-.3.21-.477s.141-.331.217-.476c.137-.316.263-.628.37-.926s.19-.594.263-.876a1.52,1.52,0,0,1,.24-.427,1.771,1.771,0,0,1,.347-.317c.137-.072.278-.141.423-.213a1.866,1.866,0,0,1,.427-.16.677.677,0,0,0,.21-.027,1.261,1.261,0,0,1,.263-.027.488.488,0,0,1,.213-.049h.4a.415.415,0,0,0,.187-.057h2.335v.16a.159.159,0,0,0-.053.106v1.539a27.021,27.021,0,0,0,.134,2.732c.088.9.2,1.779.343,2.629q.263,1.268.507,2.331a18.051,18.051,0,0,0,.5,1.855,1.809,1.809,0,0,1,.156.449,1.156,1.156,0,0,0,.16.4,1.779,1.779,0,0,0,.133.373c.057.1.1.19.134.263a1.875,1.875,0,0,0,.293.4.338.338,0,0,0,.24.133,2.118,2.118,0,0,1,1.136.427c.159.175.1.388-.187.636a6.023,6.023,0,0,1-1.189.717,19.288,19.288,0,0,1-2.045.819l-.317.16-.32.107h-2.118a4.755,4.755,0,0,1-.427-.819,7.448,7.448,0,0,1-.373-1.2c-.141-.492-.263-1.013-.37-1.562s-.213-1.1-.316-1.669c-.145-.64-.275-1.238-.4-1.805s-.24-1.112-.343-1.642c-.072.1-.152.21-.236.317a3.292,3.292,0,0,0-.24.316,1.968,1.968,0,0,1-.24.373c-.091.106-.187.213-.293.316q-.531.692-1.166,1.383c-.427.457-.865.9-1.326,1.322s-.922.815-1.375,1.169-.926.671-1.379.956a7.051,7.051,0,0,1-.956.526c-.32.145-.617.267-.907.373-.282.035-.564.084-.841.134a4.7,4.7,0,0,1-.849.08l-2.126.053c-.282-.038-.552-.08-.819-.133s-.526-.114-.773-.183a2.736,2.736,0,0,1-.712-.453,4.189,4.189,0,0,1-.667-.717,2.394,2.394,0,0,1-.312-.716c-.076-.266-.145-.541-.213-.819-.038-.286-.072-.587-.111-.906s-.049-.652-.049-1.006V77.1a4.46,4.46,0,0,1,.049-.636c0-.213.012-.427.027-.636s.046-.427.083-.636v-.556a2.12,2.12,0,0,1,.049-.5V73.91a.432.432,0,0,1,.057-.21v-.48a2.544,2.544,0,0,0,.076-.37" transform="translate(-313.912 -25.34)" fill="#fff"/>
          <path id="Pfad_8687" data-name="Pfad 8687" d="M866.881,37.362a1.709,1.709,0,0,1,.213-.587,2.418,2.418,0,0,1,.373-.476,3.265,3.265,0,0,1,.556-.266,1.8,1.8,0,0,1,.61-.107h2.281a2.187,2.187,0,0,1,.713.241,2.685,2.685,0,0,1,.663.5,2.541,2.541,0,0,1,.48.876,5.543,5.543,0,0,1,.21,1.193v.369a.229.229,0,0,0-.05.16v.213a2.8,2.8,0,0,0-.08.427,4.087,4.087,0,0,1-.08.423c-.034.568-.1,1.2-.187,1.912s-.187,1.467-.293,2.278c-.038.427-.077.838-.13,1.246s-.1.819-.134,1.245c-.072.423-.125.861-.159,1.3s-.092.9-.16,1.353a3.213,3.213,0,0,0-.08.427,3.865,3.865,0,0,0-.023.423,3.322,3.322,0,0,0-.084.423,4.016,4.016,0,0,0-.023.427q-.159,1.166-.266,2.278c-.072.747-.141,1.489-.213,2.233-.035.5-.08.971-.13,1.428s-.1.922-.133,1.379c.316-.179.636-.373.952-.583s.655-.427,1.01-.636a9.87,9.87,0,0,1,1.352-.823c.511-.263,1.07-.518,1.669-.765a1.764,1.764,0,0,1,.24-.107,2.435,2.435,0,0,1,.293-.106c.069-.035.13-.061.183-.084a.325.325,0,0,0,.134-.076.47.47,0,0,0,.187-.03.334.334,0,0,0,.133-.076c.282-.072.583-.149.9-.236a6.02,6.02,0,0,1,1.01-.191q.531-.1,1.086-.16c.373-.031.754-.049,1.143-.049h2.545a11.06,11.06,0,0,1,2.3.343,8.641,8.641,0,0,1,2.1.876,3.454,3.454,0,0,1,1.512,1.512,5.11,5.11,0,0,1,.5,2.358v.85a.207.207,0,0,1-.049.156.863.863,0,0,1-.027.19.527.527,0,0,0-.027.183,3.024,3.024,0,0,0-.08.4.811.811,0,0,1-.137.346.414.414,0,0,0-.076.16.643.643,0,0,0-.027.16,1.966,1.966,0,0,0-.08.183,1.389,1.389,0,0,1-.08.19,11.389,11.389,0,0,1-1.589,2.327,16.747,16.747,0,0,1-2.445,2.282,23.743,23.743,0,0,1-2.911,1.962,20.154,20.154,0,0,1-3.078,1.433c-.461.141-.911.266-1.352.37s-.877.217-1.3.323c-.461.107-.892.183-1.3.236a8.993,8.993,0,0,1-1.188.08l-2.126.053c-.248-.038-.491-.065-.739-.08a3.641,3.641,0,0,1-.743-.134,3.946,3.946,0,0,1-.689-.156c-.213-.076-.407-.141-.583-.217a3.385,3.385,0,0,1-1.352-.819,3.8,3.8,0,0,1-.876-1.512,12.331,12.331,0,0,1-.583-1.962,19.964,19.964,0,0,1-.32-2.069c-.034-.213-.061-.422-.076-.636s-.049-.442-.08-.69c0-.21-.012-.427-.027-.636s-.027-.423-.027-.636V59.9Zm3.715,24.5v.582a6.692,6.692,0,0,0,.529,2.7,7.093,7.093,0,0,0,1.646,2.286,7.766,7.766,0,0,0,1.962,1.352,7.528,7.528,0,0,0,2.229.659c.175-.034.362-.076.556-.133s.4-.114.61-.183c.316-.107.632-.229.956-.37a7.05,7.05,0,0,0,.952-.533,3.305,3.305,0,0,0,.476-.347c.145-.122.3-.255.48-.4a4.322,4.322,0,0,0,.45-.4c.16-.156.309-.3.45-.449a15.35,15.35,0,0,0,.9-1.4,7.089,7.089,0,0,0,.583-1.353,6.292,6.292,0,0,0,.373-1.276,7.591,7.591,0,0,0,.1-1.219,5.8,5.8,0,0,0-.37-2.122,4.379,4.379,0,0,0-1.112-1.642,4.978,4.978,0,0,0-1.116-.853,5.348,5.348,0,0,0-1.219-.476c-.141.034-.309.076-.5.106a2.936,2.936,0,0,0-.556.16c-.388.141-.788.293-1.2.453s-.819.328-1.246.5a9.892,9.892,0,0,0-1.058.507c-.354.194-.708.377-1.063.56-.179.1-.343.209-.5.312a2.685,2.685,0,0,1-.5.266c-.141.107-.286.213-.427.32l-.423.32a7.475,7.475,0,0,0-.61.446c-.194.164-.381.331-.556.507-.141.145-.282.293-.427.449a2.082,2.082,0,0,0-.316.453h-2.122v-.058h2.122a.945.945,0,0,0-.053.267" transform="translate(-330.712 -13.714)" fill="#fff"/>
        </g>
      </g>
      <g id="Gruppe_6756" data-name="Gruppe 6756" transform="translate(0 60.437)">
        <g id="Gruppe_6755" data-name="Gruppe 6755" clip-path="url(#clip-path-2)">
          <path id="Pfad_8688" data-name="Pfad 8688" d="M329.379,171.463a13.978,13.978,0,0,1-7.467-2.034l.419-2.171a12.345,12.345,0,0,0,7.048,2.034c4.171,0,6.312-2.034,6.312-5.436,0-7.048-13.5-3.962-13.5-12.621,0-3.962,2.522-6.979,8.167-6.979a15.9,15.9,0,0,1,6.732,1.405l-.423,2.069a15.3,15.3,0,0,0-6.2-1.333c-4.35,0-6.068,2.205-6.068,4.7,0,6.7,13.531,3.543,13.531,12.621,0,4.8-2.945,7.748-8.552,7.748" transform="translate(-122.883 -115.504)" fill="#fff"/>
          <path id="Pfad_8689" data-name="Pfad 8689" d="M356.629,163.434c0-6.483,2.769-9.992,8.236-9.992,4.667,0,7.924,2.842,7.924,9.539a10.093,10.093,0,0,1-.069,1.048H358.8c.106,6.628,2.312,8.872,7.257,8.872a11.559,11.559,0,0,0,5.714-1.471l.282,1.855a12.178,12.178,0,0,1-6.206,1.616c-6.59,0-9.218-3.471-9.218-11.467m14.2-.91c-.072-5.223-2.521-7.185-5.961-7.185-4.065,0-5.89,2.416-6.1,7.185Z" transform="translate(-136.135 -119.01)" fill="#fff"/>
          <path id="Pfad_8690" data-name="Pfad 8690" d="M396.454,145.329c-1.055,0-1.65-.351-1.65-1.471,0-.945.594-1.474,1.65-1.474s1.646.529,1.646,1.474c0,1.018-.595,1.471-1.646,1.471m-1.089,24.929V149.679l2.14-.175v20.754Z" transform="translate(-150.708 -114.789)" fill="#fff"/>
          <path id="Pfad_8691" data-name="Pfad 8691" d="M416.62,152.244v13.988c0,2.487,1.3,3.47,3.368,3.47a5.254,5.254,0,0,0,1.752-.282l.175,1.684a7.011,7.011,0,0,1-2.487.422c-3.23,0-4.949-1.684-4.949-5.226V152.244h-3.222v-1.718h3.261l.419-5.432,1.684-.213v5.645h5.436v1.718Z" transform="translate(-156.988 -115.742)" fill="#fff"/>
          <path id="Pfad_8692" data-name="Pfad 8692" d="M464.855,169.343h5.12V150.727l.069-2.838-.069-.034-6.03,4.1-.282-2.034,7.3-5.158h1.33v24.579h4.945v1.821H464.855Z" transform="translate(-176.993 -115.698)" fill="#fff"/>
          <path id="Pfad_8693" data-name="Pfad 8693" d="M506.315,171.339a13.4,13.4,0,0,1-5.82-1.158l.351-1.962a12.514,12.514,0,0,0,5.257,1.086c5.47,0,8.031-3.329,8.274-11.711l-.069-.034a10.047,10.047,0,0,1-7.048,2.56c-5.924,0-8.483-3.013-8.483-7.714,0-4.907,2.7-7.924,8.483-7.924s9.185,3.928,9.185,11.958c0,10.762-3.436,14.9-10.13,14.9m.911-24.857c-4.171,0-6.313,2.035-6.313,5.817,0,3.684,2.072,5.927,6.628,5.927a8.475,8.475,0,0,0,6.732-2.7c-.107-6.454-2.808-9.048-7.048-9.048" transform="translate(-190.397 -115.59)" fill="#fff"/>
          <path id="Pfad_8694" data-name="Pfad 8694" d="M546.252,171.339a13.4,13.4,0,0,1-5.821-1.158l.351-1.962a12.517,12.517,0,0,0,5.257,1.086c5.47,0,8.03-3.329,8.274-11.711l-.069-.034a10.049,10.049,0,0,1-7.048,2.56c-5.924,0-8.484-3.013-8.484-7.714,0-4.907,2.7-7.924,8.484-7.924s9.184,3.928,9.184,11.958c0,10.762-3.432,14.9-10.129,14.9m.911-24.857c-4.171,0-6.313,2.035-6.313,5.817,0,3.684,2.072,5.927,6.629,5.927a8.474,8.474,0,0,0,6.731-2.7c-.106-6.454-2.808-9.048-7.047-9.048" transform="translate(-205.642 -115.59)" fill="#fff"/>
          <path id="Pfad_8695" data-name="Pfad 8695" d="M584.658,169.343h5.12V150.727l.069-2.838-.069-.034-6.03,4.1-.282-2.034,7.3-5.158h1.329v24.579h4.945v1.821H584.658Z" transform="translate(-222.725 -115.698)" fill="#fff"/>
          <path id="Pfad_8696" data-name="Pfad 8696" d="M620.432,186.021c-1.123,0-1.684-.457-1.684-1.65a1.466,1.466,0,0,1,1.684-1.611,1.427,1.427,0,0,1,1.612,1.611,1.453,1.453,0,0,1-1.612,1.65" transform="translate(-236.193 -130.202)" fill="#fff"/>
        </g>
      </g>
    </g>
  </g>
</svg>
