<svg xmlns="http://www.w3.org/2000/svg" width="414.769" height="59.253" viewBox="0 0 414.769 59.253">
  <g id="Claim_Wohnen_wie_im_Urlaub_1-Line" data-name="Claim Wohnen wie im Urlaub 1-Line" transform="translate(207.385 29.626)">
    <g id="Gruppe_5179" data-name="Gruppe 5179" transform="translate(-207.385 -29.626)">
      <g id="Gruppe_5178" data-name="Gruppe 5178" transform="translate(17.981 15.723)">
        <path id="Pfad_6328" data-name="Pfad 6328" d="M16.842,32.927q-.188-.038-.414-.376a5.475,5.475,0,0,1-.487-1.016c-.176-.477-.347-1.01-.51-1.6S15.086,28.7,14.888,28c-.077-.276-.153-.558-.228-.847s-.151-.583-.226-.884-.144-.6-.207-.9-.117-.6-.169-.905q-.263-1.2-.527-2.352t-.489-2.239q-.226-1.091-.376-1.9t-.224-1.3c-.075-.426-.153-.828-.228-1.2s-.151-.725-.226-1.054q-.151-.489-.263-.9c-.075-.276-.148-.527-.226-.753q-.263-.677-.508-1.185a7.09,7.09,0,0,0-.47-.847c-.125-.151-.249-.288-.376-.414a1.978,1.978,0,0,0-.376-.3c-.1-.075-.207-.148-.32-.226s-.219-.151-.318-.226c-.052-.025-.1-.048-.153-.075s-.1-.05-.151-.075L8.6,9.261A.765.765,0,0,1,8.828,9a1.9,1.9,0,0,1,.3-.188A2.136,2.136,0,0,1,9.524,8.7a2.416,2.416,0,0,1,.433-.038h1.505a2.425,2.425,0,0,1,.3.019,2.539,2.539,0,0,1,.3.056.619.619,0,0,1,.151.019.791.791,0,0,0,.188.019.666.666,0,0,0,.151.056.623.623,0,0,0,.153.019c.073.025.148.052.224.075s.163.052.263.075l.226.075.226.075c.151.05.295.109.433.169s.27.119.4.169c.125.075.247.144.357.207s.207.119.282.171.144.092.209.13a.33.33,0,0,1,.13.134,9.574,9.574,0,0,1,.376,1.129q.188.674.414,1.578.188.941.4,1.957t.433,2.145c.023.2.054.4.092.6s.069.4.094.6a2.538,2.538,0,0,1,.056.3,1.56,1.56,0,0,0,.056.263,2.571,2.571,0,0,1,.056.3,2.587,2.587,0,0,0,.056.3q.3,1.844.623,3.556c.211,1.141.433,2.226.656,3.255.075.376.151.723.228,1.035s.148.583.224.809l.339-.675c.128-.253.251-.527.376-.83q.564-1.239,1.225-2.615t1.371-2.878l.226-.527c.075-.176.153-.351.226-.527s.157-.351.245-.527.182-.351.284-.527c.4-.8.794-1.561,1.183-2.276s.771-1.373,1.148-1.975a7.294,7.294,0,0,1,1.035-1.355,1.315,1.315,0,0,1,.847-.452H27.9l.075-.038h1.58c.251,0,.514.222.79.658a9.877,9.877,0,0,1,.865,1.975c.3.9.608,1.844.924,2.822s.631,1.994.959,3.048c.048.2.1.4.148.6a5.132,5.132,0,0,0,.19.6c.048.176.1.357.169.548s.117.38.167.581c.125.4.251.8.376,1.2a11.26,11.26,0,0,0,.416,1.129q.185.527.374,1.035t.376.959c.128.276.245.527.357.755a3.075,3.075,0,0,0,.357.562,15.851,15.851,0,0,0,1.846-2.032A13.966,13.966,0,0,0,39.3,24.876a22.615,22.615,0,0,0,1.166-2.765,23.327,23.327,0,0,0,.79-2.839c.05-.278.1-.548.151-.811s.1-.533.151-.809c.025-.251.059-.514.094-.79s.069-.539.094-.79c.052-.527.088-1.047.113-1.561s.038-1.01.038-1.486c0-.5-.006-.989-.017-1.467s-.046-.941-.1-1.392q-.038-.677-.132-1.279c-.063-.4-.117-.776-.169-1.129h1.505a4.211,4.211,0,0,1,1.543.47,2.709,2.709,0,0,1,1.018,1,4.211,4.211,0,0,1,.6,1.373,7.358,7.358,0,0,1,.186,1.712,13.493,13.493,0,0,1-.132,1.827,14.585,14.585,0,0,1-.433,2.011q-.263,1.054-.64,2.107T44.309,20.4q-.452,1.054-.978,2.1t-1.089,2.069c-.176.326-.366.652-.566.978s-.389.652-.564.978q-.3.451-.583.9c-.188.3-.38.589-.583.865-.426.629-.844,1.2-1.26,1.712a17.591,17.591,0,0,1-1.26,1.411,7.374,7.374,0,0,1-1.148.959,4.409,4.409,0,0,1-1,.508l-1.505.038a2.671,2.671,0,0,1-1.242-.959,8.036,8.036,0,0,1-1.054-2.013c-.326-.878-.644-1.787-.959-2.728s-.621-1.913-.92-2.916a3.422,3.422,0,0,0-.1-.357,2.438,2.438,0,0,0-.132-.32c-.023-.125-.05-.245-.075-.355s-.05-.222-.075-.322c-.1-.374-.213-.746-.339-1.11s-.238-.721-.339-1.072c-.125-.351-.242-.69-.357-1.016s-.23-.652-.357-.978q-.15-.414-.3-.79a4.177,4.177,0,0,0-.339-.677q-1.656,3.123-2.841,5.493t-1.9,3.988q-.79,1.731-1.43,2.954a15.336,15.336,0,0,1-1.164,1.938,1.656,1.656,0,0,1-.169.207.738.738,0,0,1-.171.132.284.284,0,0,0-.113.094.642.642,0,0,1-.073.094.419.419,0,0,0-.115.075l-.075.075a2.088,2.088,0,0,1-.357.282q-.207.132-.4.245l-1.505.038Z" transform="translate(-8.602 -7.267)" fill="#7c7b7b"/>
        <path id="Pfad_6329" data-name="Pfad 6329" d="M38.845,13.9a6.706,6.706,0,0,1,.753.094,7.539,7.539,0,0,1,.863.132c.3.063.6.132.905.207a8.348,8.348,0,0,1,1.411.564,8.526,8.526,0,0,1,1.258.792,2.9,2.9,0,0,1,.905,1.089,3.446,3.446,0,0,1,.3,1.467,3.71,3.71,0,0,1-.075.755c-.048.251-.113.514-.188.788a5.98,5.98,0,0,1-.318.867,9.4,9.4,0,0,1-.508.939A8.282,8.282,0,0,1,43.3,22.72a7.989,7.989,0,0,1-1.112,1.016,8.248,8.248,0,0,1-2.594,1.43q-.154.038-.32.094c-.113.038-.222.069-.322.1-.123.023-.238.048-.339.073s-.211.05-.339.075c-.224.05-.439.088-.638.113a4.883,4.883,0,0,1-.6.038h-.224a.435.435,0,0,0-.19.038h-.675a.435.435,0,0,0-.19.038h-.452l-1.5.038h-.452a15.376,15.376,0,0,1-2.034-.282,9.534,9.534,0,0,1-1.844-.583,3.049,3.049,0,0,1-1.392-1.242,4.544,4.544,0,0,1-.562-2.069,4.913,4.913,0,0,1,.054-.677q.06-.376.169-.865a6.547,6.547,0,0,1,.32-1,6.8,6.8,0,0,1,.546-1.035,6.141,6.141,0,0,1,1.11-1.371,11.04,11.04,0,0,1,1.639-1.263,8.007,8.007,0,0,1,2.293-1,17.542,17.542,0,0,1,3.048-.508V13.84h1.507C38.406,13.865,38.617,13.884,38.845,13.9Zm1.148,3.161a3.807,3.807,0,0,0-1.148-.959,6.127,6.127,0,0,0-1.018-.433,4.476,4.476,0,0,0-1.054-.207q-.376.038-.753.113c-.249.05-.5.115-.75.188a7.043,7.043,0,0,0-1.035.36,8.716,8.716,0,0,0-.809.393,3.008,3.008,0,0,1-.284.188c-.088.05-.169.1-.242.151a.687.687,0,0,0-.169.151,1.442,1.442,0,0,1-.134.15.689.689,0,0,1-.094.151,1.384,1.384,0,0,1-.13.151,1.664,1.664,0,0,1-.075.188c-.027.052-.052.1-.075.151a3.158,3.158,0,0,0-.134.3,2.9,2.9,0,0,1-.13.3q-.041.151-.075.32c-.025.113-.052.232-.077.357a1.36,1.36,0,0,0-.036.3v.3a4.167,4.167,0,0,0,.393,1.787,4.9,4.9,0,0,0,1.187,1.561,5.1,5.1,0,0,0,1.446.959,5.253,5.253,0,0,0,1.712.433c.125-.023.259-.05.4-.075s.27-.05.393-.075a5.664,5.664,0,0,0,1.505-.562,4.5,4.5,0,0,0,1.2-.98,4.129,4.129,0,0,0,.811-1.26,3.91,3.91,0,0,0,.282-1.486v-.226a.283.283,0,0,1-.04-.132v-.094a1.372,1.372,0,0,0-.019-.226,1.266,1.266,0,0,0-.054-.226l-.038-.226-.077-.226v-.038A6.087,6.087,0,0,0,39.993,17.057Z" transform="translate(12.024 -0.633)" fill="#7c7b7b"/>
        <path id="Pfad_6330" data-name="Pfad 6330" d="M37.5,31.6V27.97q0-.771.038-1.561,0-.79.019-1.58t.056-1.58V22.4a.63.63,0,0,1,.04-.207v-.339c0-.55,0-1.1.017-1.637s.031-1.083.056-1.637.044-1.091.056-1.618.019-1.041.019-1.543q0-1.088-.038-2.126c-.025-.688-.063-1.348-.111-1.975-.027-.652-.075-1.252-.153-1.806s-.163-1.066-.263-1.543a.986.986,0,0,1,.113-.169.408.408,0,0,1,.188-.132.626.626,0,0,1,.282-.094,2.9,2.9,0,0,1,.32-.019H39.8a.128.128,0,0,0,.094.038h.282a.129.129,0,0,0,.1.038h.094c.2.075.393.157.581.245a3.735,3.735,0,0,1,.548.32,1.318,1.318,0,0,1,.393.433,1.133,1.133,0,0,1,.134.546q0,2.333-.04,4.365t-.113,3.725c-.023,1.129-.069,2.17-.132,3.123s-.119,1.831-.169,2.634c-.025.554-.056,1.072-.094,1.561s-.082.947-.132,1.373q.339-.6.734-1.185c.263-.389.548-.771.847-1.148a10.516,10.516,0,0,1,1.43-1.449,9.218,9.218,0,0,1,1.768-1.148c.176-.075.345-.144.51-.207a2.366,2.366,0,0,1,.468-.132,2.069,2.069,0,0,1,.452-.094q.226-.019.414-.019h1.505a1.979,1.979,0,0,1,1.016.263,1.833,1.833,0,0,1,.715.79,5.4,5.4,0,0,1,.508,1.338,17.157,17.157,0,0,1,.357,1.9q0,.339.038.753t.113.941q.075.492.207,1.035T52.7,28.7q.226.828.508,1.6a14.437,14.437,0,0,0,.621,1.449,3.649,3.649,0,0,0,.734,1,1.176,1.176,0,0,0,.773.357c.123.025.2.069.224.132a.3.3,0,0,1-.038.245,1.221,1.221,0,0,1-.226.357,1.877,1.877,0,0,1-.376.32.46.46,0,0,1-.111.075.232.232,0,0,0-.115.113,1.23,1.23,0,0,0-.132.075,1.229,1.229,0,0,1-.132.075.438.438,0,0,1-.113.075.388.388,0,0,0-.111.075.984.984,0,0,0-.134.077c-.036.023-.082.048-.13.073a3,3,0,0,0-.36.169,1.227,1.227,0,0,1-.357.132,1.471,1.471,0,0,1-.3.113,1.12,1.12,0,0,1-.263.04l-1.5.036h-.19l-.113-.075-.075-.075-.075-.075a5.133,5.133,0,0,1-.452-.753,9.074,9.074,0,0,1-.452-1.129q-.226-.677-.414-1.355t-.376-1.43q-.151-.64-.282-1.24t-.245-1.206q-.113-.6-.169-1.072a7.806,7.806,0,0,0-.132-.809,2.421,2.421,0,0,1-.056-.32.942.942,0,0,0-.094-.32.644.644,0,0,1-.056-.169.855.855,0,0,1-.019-.169.672.672,0,0,1-.056-.169c-.013-.063-.031-.132-.054-.207-.1-.274-.209-.546-.322-.809a6.1,6.1,0,0,0-.4-.771.555.555,0,0,0-.073-.113.852.852,0,0,1-.075-.075.5.5,0,0,0-.077-.113c-.025-.025-.05-.048-.075-.075a5.177,5.177,0,0,0-.941.658,6.942,6.942,0,0,0-.865.922,13.46,13.46,0,0,0-.92,1.279,14.187,14.187,0,0,0-.773,1.357c-.125.224-.245.449-.355.675s-.234.452-.357.677c-.1.226-.2.445-.3.658s-.2.422-.3.621c-.077.15-.146.3-.209.452s-.119.3-.169.452a3.758,3.758,0,0,1-.094.433,3.644,3.644,0,0,1-.132.4l-.075.226a.71.71,0,0,0-.038.226c-.025.075-.05.146-.073.207s-.052.121-.075.169-.059.113-.094.188a1.294,1.294,0,0,0-.094.226.352.352,0,0,0-.075.113.5.5,0,0,1-.077.113l-1.5.038-.472-.132q-.207-.056-.32-.094l-.3-.075-.036-.038h-.04l-.188-.113A.186.186,0,0,0,37.8,32.3q-.113-.019-.263-.056A5.164,5.164,0,0,1,37.5,31.6Z" transform="translate(22.622 -7.483)" fill="#7c7b7b"/>
        <path id="Pfad_6331" data-name="Pfad 6331" d="M46.982,14.38a.167.167,0,0,1-.019-.075c-.027,0-.04-.013-.04-.038v-.075l-.036-.226.113-.3a.32.32,0,0,1,.169-.094,1.247,1.247,0,0,1,.207-.019H49.07a.128.128,0,0,0,.094.038h.094a.715.715,0,0,0,.188.059,1.267,1.267,0,0,1,.226.054.787.787,0,0,0,.13.056,1.046,1.046,0,0,1,.134.056.229.229,0,0,0,.113.056.259.259,0,0,1,.113.056c.05.025.094.052.132.075a.177.177,0,0,0,.094.038,1.231,1.231,0,0,1,.132.075.985.985,0,0,1,.094.075l.188.153.113.148a.279.279,0,0,1,.111.094.65.65,0,0,1,.077.169,1.56,1.56,0,0,1,.056.263,2.774,2.774,0,0,1,.019.339q0,.339-.038.734c-.027.263-.063.546-.115.847l-.073.454a2.935,2.935,0,0,0-.038.487c-.025.151-.052.307-.075.472s-.05.332-.077.506l-.036.075v.038a14.29,14.29,0,0,1,1.6-2.088A5.74,5.74,0,0,1,53.849,15.7a16.99,16.99,0,0,1,2.013-.9,4.38,4.38,0,0,1,1.373-.3H59.3a1.373,1.373,0,0,1,.978.4,2.889,2.889,0,0,1,.677,1.185q.26.79.489,1.656a17.76,17.76,0,0,1,.374,1.846v.111a.143.143,0,0,0,.04.113.417.417,0,0,0,.019.132.417.417,0,0,1,.019.132v.113a.142.142,0,0,0,.038.113.408.408,0,0,0,.019.132.417.417,0,0,1,.019.132c.075.477.163.936.263,1.375s.2.844.3,1.221a3.769,3.769,0,0,0,.357.959,1.045,1.045,0,0,0,.47.47,1.118,1.118,0,0,1,.3.169.613.613,0,0,1,.15.169.387.387,0,0,1,.075.207.373.373,0,0,1-.038.169.909.909,0,0,1-.226.282,1.051,1.051,0,0,1-.376.207.95.95,0,0,1-.226.113.912.912,0,0,0-.226.113,1.137,1.137,0,0,0-.263.1,2.048,2.048,0,0,1-.226.092,2.8,2.8,0,0,1-.282.056,1.4,1.4,0,0,0-.245.056h-.094a.319.319,0,0,0-.134.038h-.186l-1.505.038a2.8,2.8,0,0,0-.282-.056.727.727,0,0,1-.209-.056.243.243,0,0,1-.148-.113.392.392,0,0,1-.038-.188c-.025-.176-.071-.387-.132-.64s-.132-.564-.207-.941a4.424,4.424,0,0,0-.113-.583,4.3,4.3,0,0,1-.113-.546c-.05-.2-.094-.4-.132-.6s-.082-.4-.132-.6c-.027-.1-.05-.2-.075-.3s-.05-.2-.075-.3c-.025-.125-.052-.245-.075-.357s-.052-.217-.075-.32q-.116-.339-.207-.677c-.063-.226-.121-.452-.169-.677-.052-.2-.1-.4-.151-.583s-.1-.357-.153-.508a3.943,3.943,0,0,0-.374-.959,3.248,3.248,0,0,0-.489-.658.671.671,0,0,0-.1-.075.74.74,0,0,1-.094-.075.376.376,0,0,1-.111-.075.552.552,0,0,0-.113-.075c-.05.027-.109.05-.169.075a.512.512,0,0,0-.169.113,4.392,4.392,0,0,0-.658.452,5.255,5.255,0,0,0-.621.6,11.409,11.409,0,0,0-1.072,1.334c-.339.491-.684,1.022-1.035,1.6q-.489.9-.941,1.806a15.534,15.534,0,0,0-.79,1.883,2.225,2.225,0,0,1-.094.224,1.723,1.723,0,0,0-.094.226.215.215,0,0,0-.056.094.309.309,0,0,0-.019.094c-.025.052-.044.088-.059.113a.318.318,0,0,0-.017.115.411.411,0,0,1-.113.13,1.1,1.1,0,0,0-.15.134.259.259,0,0,1-.094.054.265.265,0,0,1-.094.019H48.017a1.114,1.114,0,0,1-.357-.056,2.438,2.438,0,0,1-.32-.132.568.568,0,0,1-.226-.188.464.464,0,0,1-.075-.263V23.015a5.9,5.9,0,0,1,.038-.656V20.776a1.708,1.708,0,0,1,.038-.337v-1a1.989,1.989,0,0,1,.038-.393V17.9a1.99,1.99,0,0,1,.036-.357V16.073a1.99,1.99,0,0,1-.036-.357V15.4c-.025-.2-.046-.376-.056-.525a2.445,2.445,0,0,0-.056-.378v-.038A.229.229,0,0,1,46.982,14.38Z" transform="translate(33.141 -0.947)" fill="#7c7b7b"/>
        <path id="Pfad_6332" data-name="Pfad 6332" d="M58.5,16.928a6.741,6.741,0,0,1,1.223-1.112q.6-.414,1.014-.658c.276-.161.491-.282.642-.357a.834.834,0,0,0,.148-.094.7.7,0,0,1,.19-.094c.048-.025.094-.042.13-.056a1.188,1.188,0,0,0,.134-.056.966.966,0,0,0,.188-.017c.048-.015.111-.033.188-.059a5.75,5.75,0,0,1,.7-.207c.263-.063.543-.119.847-.167s.615-.1.939-.134.654-.069.98-.094h1.994a7.206,7.206,0,0,1,1.3.113,5.375,5.375,0,0,1,1.15.339,2.061,2.061,0,0,1,.844.64,1.845,1.845,0,0,1,.357,1.056c0,.224.006.426.021.6s.029.339.054.489c.052.151.094.282.134.4a1.186,1.186,0,0,0,.13.282.8.8,0,0,1,.059.151.553.553,0,0,0,.056.151.257.257,0,0,0,.019.094.233.233,0,0,0,.054.094.358.358,0,0,1,.1.151.618.618,0,0,1,.019.151l-.075.188a1.393,1.393,0,0,1-.113.094,1.1,1.1,0,0,0-.15.132c-.176.025-.458.077-.849.15s-.872.163-1.446.263q-.417.075-.865.151l-.905.151c-.3.075-.608.14-.92.188l-.959.151q-.944.151-1.865.3c-.615.1-1.21.2-1.785.3q-.831.151-1.392.247c-.378.061-.667.117-.865.167a6.176,6.176,0,0,0,.677,1.752,4.2,4.2,0,0,0,1.166,1.3,3.972,3.972,0,0,0,1.373.7,8.233,8.233,0,0,0,1.825.32c.3-.025.615-.056.939-.094s.665-.082,1.016-.13a14.09,14.09,0,0,0,1.58-.341q.828-.226,1.77-.525c.276-.052.533-.1.769-.153s.445-.088.623-.111a3.253,3.253,0,0,1,.506-.1c.138-.013.257-.019.36-.019h1.505a2.657,2.657,0,0,1,.357.019.205.205,0,0,1,.169.1.279.279,0,0,0,.036.111.161.161,0,0,1-.019.075.249.249,0,0,1-.056.077l-.148.186-.228.113q-.674.263-1.373.489t-1.446.414c-.479.1-.974.2-1.486.3s-1.022.2-1.526.3c-.374.05-.753.107-1.129.169s-.75.107-1.129.132c-.374.05-.746.082-1.11.094s-.721.019-1.072.019l-1.5.04a17.08,17.08,0,0,1-2.5-.247,10.759,10.759,0,0,1-2.088-.583,2.921,2.921,0,0,1-1.409-1.091,3.063,3.063,0,0,1-.47-1.731,5.168,5.168,0,0,1,.073-.847,8.054,8.054,0,0,1,.226-.922q.188-.527.433-1.054a10.849,10.849,0,0,1,.621-1.129V18.6A13.966,13.966,0,0,1,58.5,16.928Zm2.481,2.521c.316-.04.621-.071.924-.1A3.7,3.7,0,0,1,62.3,19.3a3.3,3.3,0,0,0,.4-.056c.276-.048.543-.088.807-.113a5.97,5.97,0,0,0,.734-.111c.226-.027.439-.059.642-.1s.387-.069.562-.094c.426-.073.778-.151,1.054-.226a2.275,2.275,0,0,0,.642-.263A.748.748,0,0,0,67.477,18a1.285,1.285,0,0,0,.113-.564v-.073a.106.106,0,0,1,.036-.077V17.1a.1.1,0,0,1,.04-.077v-.113a1.852,1.852,0,0,0-.188-.828,2.092,2.092,0,0,0-.566-.677,2.943,2.943,0,0,0-.583-.32,3.782,3.782,0,0,0-.734-.207c-.1.025-.213.05-.339.075a3.589,3.589,0,0,0-.414.113,4.931,4.931,0,0,0-.995.357A9.527,9.527,0,0,0,62.809,16a8.2,8.2,0,0,0-.807.677q-.4.376-.811.828a5.717,5.717,0,0,0-.675.922,6.188,6.188,0,0,0-.527,1.148C60.34,19.531,60.671,19.485,60.984,19.449Z" transform="translate(42.954 -0.653)" fill="#7c7b7b"/>
        <path id="Pfad_6333" data-name="Pfad 6333" d="M65.846,14.38a.167.167,0,0,1-.019-.075.033.033,0,0,1-.038-.038v-.075l-.038-.226.113-.3a.328.328,0,0,1,.169-.094,1.252,1.252,0,0,1,.209-.019h1.691a.128.128,0,0,0,.094.038h.094a.741.741,0,0,0,.188.059,1.266,1.266,0,0,1,.226.054.8.8,0,0,0,.132.056,1.033,1.033,0,0,1,.132.056.229.229,0,0,0,.113.056.281.281,0,0,1,.115.056c.048.025.092.052.13.075a.183.183,0,0,0,.094.038,1.232,1.232,0,0,1,.132.075.776.776,0,0,1,.094.075l.188.153.113.148a.3.3,0,0,1,.113.094.737.737,0,0,1,.075.169,1.56,1.56,0,0,1,.056.263,2.774,2.774,0,0,1,.019.339q0,.339-.038.734t-.113.847l-.075.454a2.935,2.935,0,0,0-.038.487c-.025.151-.05.307-.075.472s-.05.332-.075.506l-.038.075v.038a14.289,14.289,0,0,1,1.6-2.088A5.7,5.7,0,0,1,72.713,15.7a17.143,17.143,0,0,1,2.013-.9,4.391,4.391,0,0,1,1.373-.3h2.071a1.368,1.368,0,0,1,.976.4,2.891,2.891,0,0,1,.679,1.185q.26.79.487,1.656a18.311,18.311,0,0,1,.376,1.846v.111a.15.15,0,0,0,.038.113.416.416,0,0,0,.019.132.417.417,0,0,1,.019.132v.113a.15.15,0,0,0,.038.113.408.408,0,0,0,.019.132.416.416,0,0,1,.019.132c.075.477.163.936.263,1.375s.2.844.3,1.221a3.769,3.769,0,0,0,.357.959,1.045,1.045,0,0,0,.47.47,1.118,1.118,0,0,1,.3.169.58.58,0,0,1,.15.169.387.387,0,0,1,.075.207.373.373,0,0,1-.038.169.909.909,0,0,1-.226.282,1.052,1.052,0,0,1-.376.207.95.95,0,0,1-.226.113.991.991,0,0,0-.226.113,1.214,1.214,0,0,0-.263.1,2.048,2.048,0,0,1-.226.092,2.8,2.8,0,0,1-.282.056,1.4,1.4,0,0,0-.245.056h-.094a.311.311,0,0,0-.132.038h-.188l-1.505.038a2.8,2.8,0,0,0-.282-.056.692.692,0,0,1-.207-.056.248.248,0,0,1-.15-.113.419.419,0,0,1-.038-.188c-.025-.176-.069-.387-.132-.64s-.132-.564-.207-.941A4.424,4.424,0,0,0,77.6,23.8a4.7,4.7,0,0,1-.113-.546c-.05-.2-.094-.4-.132-.6s-.082-.4-.132-.6l-.075-.3c-.025-.1-.05-.2-.075-.3Q77.04,21.265,77,21.1c-.025-.113-.05-.217-.075-.32q-.113-.339-.207-.677t-.169-.677c-.05-.2-.1-.4-.15-.583s-.1-.357-.15-.508a4.028,4.028,0,0,0-.376-.959,3.167,3.167,0,0,0-.487-.658,1.034,1.034,0,0,0-.1-.075.528.528,0,0,1-.094-.075.39.39,0,0,1-.113-.075.5.5,0,0,0-.113-.075,1.634,1.634,0,0,1-.169.075.534.534,0,0,0-.169.113,4.392,4.392,0,0,0-.658.452,5.419,5.419,0,0,0-.621.6,11.41,11.41,0,0,0-1.072,1.334c-.339.491-.684,1.022-1.035,1.6q-.489.9-.941,1.806a15.535,15.535,0,0,0-.79,1.883,1.826,1.826,0,0,1-.094.224,1.723,1.723,0,0,0-.094.226.236.236,0,0,0-.056.094.31.31,0,0,0-.019.094c-.025.052-.044.088-.056.113a.272.272,0,0,0-.019.115.386.386,0,0,1-.113.13,1.236,1.236,0,0,0-.15.134.243.243,0,0,1-.094.054.257.257,0,0,1-.094.019H66.881a1.123,1.123,0,0,1-.357-.056,2.562,2.562,0,0,1-.32-.132.547.547,0,0,1-.224-.188.449.449,0,0,1-.077-.263V23.015a5.9,5.9,0,0,1,.038-.656V20.776a1.575,1.575,0,0,1,.04-.337v-1a1.992,1.992,0,0,1,.036-.393V17.9a1.825,1.825,0,0,1,.038-.357V16.073a1.825,1.825,0,0,1-.038-.357V15.4c-.025-.2-.044-.376-.056-.525a2.445,2.445,0,0,0-.056-.378v-.038A.263.263,0,0,1,65.846,14.38Z" transform="translate(53.709 -0.947)" fill="#7c7b7b"/>
        <path id="Pfad_6334" data-name="Pfad 6334" d="M82.395,18.894A9.474,9.474,0,0,0,81,16.432a10.63,10.63,0,0,1-.978-1.168,1.989,1.989,0,0,1-.376-.75v-.228a.458.458,0,0,1,.094-.132.47.47,0,0,0,.094-.132h.226l.226-.038h1.919a6.241,6.241,0,0,1,1.392.132,2.314,2.314,0,0,1,.9.4,2.614,2.614,0,0,1,.621.732,6.182,6.182,0,0,1,.508,1.11c.125.4.27.855.433,1.355s.332,1.079.508,1.731q.223.79.581,1.712c.24.615.523,1.288.849,2.013l.038-.038.038-.038a6.71,6.71,0,0,0,.527-.7q.263-.4.527-.884.151-.226.282-.452c.088-.151.18-.314.282-.489.073-.151.157-.305.245-.47s.18-.332.282-.508q.452-.865.865-1.674t.79-1.524a7.02,7.02,0,0,1,.715-1.11.807.807,0,0,1,.564-.357h1.505c.073-.05.188.044.337.284s.351.608.6,1.108.51,1.035.773,1.6.533,1.148.809,1.75v.077l.073.073q.379.828.736,1.618c.236.527.47,1.016.7,1.467q.188.414.357.715a3.369,3.369,0,0,0,.32.489,3.157,3.157,0,0,0,.47-.508q.245-.317.508-.734.3-.527.564-1.033c.176-.341.339-.7.489-1.074a5.353,5.353,0,0,1,.169-.508c.061-.161.119-.33.169-.506s.107-.347.169-.51a2.581,2.581,0,0,0,.132-.47,2.971,2.971,0,0,0,.113-.452l.073-.452a1.177,1.177,0,0,1,.021-.226,1.354,1.354,0,0,0,.019-.226.419.419,0,0,0,.038-.188v-.226q0-.3-.019-.546c-.013-.163-.031-.332-.059-.508a1.62,1.62,0,0,1-.054-.245,1.472,1.472,0,0,1-.019-.245,1.425,1.425,0,0,1-.056-.226,1.785,1.785,0,0,0-.056-.226.644.644,0,0,1-.056-.169.9.9,0,0,1-.021-.207.733.733,0,0,1-.054-.169.945.945,0,0,0-.056-.169c-.025-.123-.046-.232-.059-.32a2.091,2.091,0,0,1-.017-.245v-.169a.358.358,0,0,1,.038-.167.481.481,0,0,1,.094-.134.47.47,0,0,1,.132-.094h1.505a4.364,4.364,0,0,1,1.223.433,2.1,2.1,0,0,1,.769.7,2.709,2.709,0,0,1,.433.9A3.891,3.891,0,0,1,106.1,16.2v.263a.344.344,0,0,0-.04.151v.15c-.023.1-.042.194-.054.282a1.727,1.727,0,0,0-.019.282q-.113.452-.245.865a7.92,7.92,0,0,1-.32.828,3.472,3.472,0,0,1-.169.414c-.065.128-.119.251-.169.376q-.116.188-.207.339a3.387,3.387,0,0,0-.169.3,2.539,2.539,0,0,1-.15.207,1.767,1.767,0,0,1-.153.169l-.263.3c-.1.148-.2.311-.318.487s-.232.364-.357.564q-.188.263-.414.546c-.15.188-.3.383-.452.583a5.168,5.168,0,0,1-.4.489q-.207.226-.4.452c-.125.151-.257.3-.4.454s-.27.286-.4.412a8.454,8.454,0,0,1-.734.658,5.374,5.374,0,0,1-.7.47,3.188,3.188,0,0,1-.64.339,1.621,1.621,0,0,1-.564.113l-1.505.038h-.188a1.382,1.382,0,0,1-.4-.414,6.466,6.466,0,0,1-.546-.941q-.3-.636-.64-1.336T94.435,22.6l-.075-.151c-.025-.05-.052-.1-.075-.151a.734.734,0,0,1-.056-.151A.883.883,0,0,0,94.171,22c-.226-.424-.439-.84-.64-1.242s-.4-.778-.6-1.129a.147.147,0,0,0-.021-.075.215.215,0,0,0-.054-.073.06.06,0,0,1-.056-.04.161.161,0,0,1-.019-.075c-.052.1-.113.219-.188.357s-.151.272-.226.4c-.251.4-.5.815-.753,1.242s-.514.865-.79,1.317q-.075.154-.151.282c-.05.09-.1.169-.15.245-.052.1-.1.2-.151.284s-.1.167-.15.242q-.452.715-.847,1.3t-.809,1.11a3.452,3.452,0,0,1-.717.677.872.872,0,0,1-.6.188l-1.5.038c-.075-.1-.153-.207-.226-.32s-.15-.232-.226-.357-.15-.257-.228-.4a2.373,2.373,0,0,1-.186-.47,1.1,1.1,0,0,0-.094-.151.609.609,0,0,1-.094-.188,1.455,1.455,0,0,1-.075-.169c-.025-.063-.052-.132-.075-.207l-.075-.151a.416.416,0,0,1-.038-.186c-.025-.052-.052-.1-.075-.153s-.052-.1-.075-.15-.05-.1-.077-.151a1.892,1.892,0,0,1-.073-.188l-.075-.151c-.027-.05-.05-.1-.075-.15v-.038A42.348,42.348,0,0,0,82.395,18.894Z" transform="translate(68.86 -1.379)" fill="#7c7b7b"/>
        <path id="Pfad_6335" data-name="Pfad 6335" d="M94,17.938l-.04-.038v-.075l.115-.3a.4.4,0,0,1,.13-.094.571.571,0,0,1,.169-.019h1.505a2.158,2.158,0,0,1,.263.019,1,1,0,0,1,.3.094,1.25,1.25,0,0,1,.357.132c.111.065.217.119.32.169a.287.287,0,0,0,.073.056.144.144,0,0,0,.075.019.059.059,0,0,0,.04.056.135.135,0,0,0,.075.019.288.288,0,0,0,.073.056.174.174,0,0,0,.075.019.336.336,0,0,0,.075.056.308.308,0,0,1,.075.056.391.391,0,0,1,.113.077.164.164,0,0,0,.115.036.449.449,0,0,0,.094.075c.036.025.067.052.094.075a1.022,1.022,0,0,1,.2.094.815.815,0,0,1,.169.132c.052.027.082.088.094.188s.031.226.059.376v.226a1.207,1.207,0,0,0,.036.263V21.1a2.991,2.991,0,0,0-.036.454V22c-.027.328-.046.646-.059.959s-.017.646-.017,1l-.038.188v.188q-.041.452-.056.9t-.019.9c-.027.3-.04.589-.04.865v1.618a3.216,3.216,0,0,0,.019.357,2.865,2.865,0,0,0,.056.322v.111l.04.153v.148l.038.15v.151l-.113.226a1.168,1.168,0,0,1-.115.094.972.972,0,0,1-.148.094l-.115.075-.075.038H96.139l-.148-.038a.956.956,0,0,0-.3-.094.622.622,0,0,1-.263-.094,1.017,1.017,0,0,1-.13-.075.239.239,0,0,0-.134-.038l-.075-.075-.075-.075-.113-.075-.036-.113a1.333,1.333,0,0,1-.056-.339q-.019-.226-.019-.564V24.034q-.041-1.091-.075-2.069T94.6,20.083a7.493,7.493,0,0,0-.228-1.411A.974.974,0,0,0,94,18.051v-.113Zm2.182-8.165H94.672l.115-.038h1.766a2.251,2.251,0,0,1,.4.038,2.069,2.069,0,0,1,.393.113c.125.05.24.1.339.151s.2.1.3.15a2.271,2.271,0,0,1,.263.151.412.412,0,0,1,.15.153l.075.148v3.537l-.15.113a.172.172,0,0,1-.13.04H96.215a.76.76,0,0,1-.169-.021.7.7,0,0,1-.169-.056c-.123-.05-.245-.1-.357-.151a3.154,3.154,0,0,1-.357-.188.724.724,0,0,1-.226-.282.82.82,0,0,1-.073-.32L94.6,9.736H96.1Z" transform="translate(84.461 -5.108)" fill="#7c7b7b"/>
        <path id="Pfad_6336" data-name="Pfad 6336" d="M100.406,16.928a6.811,6.811,0,0,1,1.223-1.112q.6-.414,1.016-.658c.274-.161.489-.282.64-.357a.765.765,0,0,0,.148-.094.7.7,0,0,1,.19-.094c.05-.025.094-.042.132-.056a1.177,1.177,0,0,0,.132-.056.95.95,0,0,0,.188-.017c.05-.015.113-.033.188-.059a5.866,5.866,0,0,1,.7-.207c.263-.063.546-.119.847-.167s.615-.1.939-.134.654-.069.98-.094h1.994a7.206,7.206,0,0,1,1.3.113,5.34,5.34,0,0,1,1.15.339,2.061,2.061,0,0,1,.844.64,1.83,1.83,0,0,1,.357,1.056c0,.224.006.426.021.6s.031.339.056.489c.05.151.092.282.132.4a1.274,1.274,0,0,0,.13.282.8.8,0,0,1,.059.151.632.632,0,0,0,.056.151.315.315,0,0,0,.073.188.339.339,0,0,1,.1.151.618.618,0,0,1,.019.151l-.075.188a1.1,1.1,0,0,1-.113.094,1.234,1.234,0,0,0-.15.132c-.176.025-.458.077-.847.15s-.872.163-1.449.263c-.278.05-.564.1-.865.151l-.9.151c-.3.075-.608.14-.922.188l-.959.151c-.629.1-1.248.2-1.862.3s-1.212.2-1.787.3c-.554.1-1.016.182-1.392.247s-.665.117-.865.167a6.239,6.239,0,0,0,.677,1.752,4.224,4.224,0,0,0,1.166,1.3,3.991,3.991,0,0,0,1.373.7,8.233,8.233,0,0,0,1.825.32c.3-.025.615-.056.939-.094s.667-.082,1.018-.13a14.294,14.294,0,0,0,1.58-.341q.825-.226,1.768-.525c.276-.052.533-.1.769-.153s.445-.088.623-.111a3.254,3.254,0,0,1,.506-.1c.14-.013.257-.019.36-.019h1.505a2.657,2.657,0,0,1,.357.019.205.205,0,0,1,.169.1.293.293,0,0,0,.038.111.161.161,0,0,1-.019.075.3.3,0,0,1-.059.077l-.148.186-.226.113q-.677.263-1.375.489c-.462.151-.947.288-1.447.414-.477.1-.974.2-1.486.3s-1.022.2-1.524.3c-.376.05-.755.107-1.129.169s-.753.107-1.129.132c-.376.05-.748.082-1.112.094s-.719.019-1.07.019l-1.505.04a17.021,17.021,0,0,1-2.5-.247,10.676,10.676,0,0,1-2.088-.583,2.917,2.917,0,0,1-1.411-1.091,3.062,3.062,0,0,1-.47-1.731,5.169,5.169,0,0,1,.073-.847,8.089,8.089,0,0,1,.228-.922c.123-.351.27-.7.433-1.054a10.472,10.472,0,0,1,.621-1.129V18.6A13.963,13.963,0,0,1,100.406,16.928Zm2.483,2.521c.314-.04.621-.071.922-.1a3.743,3.743,0,0,1,.4-.056,3.329,3.329,0,0,0,.4-.056c.276-.048.546-.088.809-.113a5.934,5.934,0,0,0,.732-.111c.228-.027.439-.059.642-.1s.389-.069.564-.094c.426-.073.778-.151,1.051-.226a2.248,2.248,0,0,0,.642-.263A.748.748,0,0,0,109.38,18a1.285,1.285,0,0,0,.113-.564v-.073a.115.115,0,0,1,.036-.077V17.1a.1.1,0,0,1,.04-.077v-.113a1.825,1.825,0,0,0-.188-.828,2.059,2.059,0,0,0-.564-.677,2.961,2.961,0,0,0-.585-.32,3.718,3.718,0,0,0-.732-.207c-.1.025-.215.05-.339.075a3.614,3.614,0,0,0-.416.113,4.931,4.931,0,0,0-.995.357,9.7,9.7,0,0,0-1.035.583,7.983,7.983,0,0,0-.809.677q-.4.376-.811.828a5.845,5.845,0,0,0-.675.922,6.187,6.187,0,0,0-.527,1.148C102.243,19.531,102.574,19.485,102.889,19.449Z" transform="translate(88.641 -0.653)" fill="#7c7b7b"/>
        <path id="Pfad_6337" data-name="Pfad 6337" d="M113.076,17.938l-.04-.038v-.075l.115-.3a.38.38,0,0,1,.132-.094.552.552,0,0,1,.169-.019h1.5a2.158,2.158,0,0,1,.263.019,1,1,0,0,1,.3.094,1.25,1.25,0,0,1,.357.132c.111.065.217.119.32.169a.287.287,0,0,0,.073.056.149.149,0,0,0,.075.019.059.059,0,0,0,.04.056.139.139,0,0,0,.075.019.287.287,0,0,0,.073.056.181.181,0,0,0,.075.019.336.336,0,0,0,.075.056.363.363,0,0,1,.077.056.377.377,0,0,1,.111.077.168.168,0,0,0,.115.036.449.449,0,0,0,.094.075c.036.025.067.052.094.075a1.021,1.021,0,0,1,.2.094.815.815,0,0,1,.169.132.218.218,0,0,1,.094.188c.013.1.031.226.059.376v.226a1.208,1.208,0,0,0,.036.263V21.1a2.993,2.993,0,0,0-.036.454V22c-.027.328-.046.646-.059.959s-.017.646-.017,1l-.038.188v.188c-.027.3-.044.6-.056.9s-.019.6-.019.9c-.027.3-.04.589-.04.865v1.618a3.212,3.212,0,0,0,.019.357,2.858,2.858,0,0,0,.056.322v.111l.04.153v.148l.038.15v.151l-.113.226a1.169,1.169,0,0,1-.115.094.973.973,0,0,1-.148.094l-.115.075-.075.038h-1.844l-.148-.038a.956.956,0,0,0-.3-.094.622.622,0,0,1-.263-.094,1.185,1.185,0,0,1-.13-.075.237.237,0,0,0-.132-.038l-.077-.075-.075-.075-.111-.075-.038-.113a1.333,1.333,0,0,1-.056-.339q-.019-.226-.019-.564V24.034q-.041-1.091-.075-2.069t-.113-1.881a7.524,7.524,0,0,0-.226-1.411.983.983,0,0,0-.376-.621v-.113Zm2.182-8.165h-1.507l.115-.038h1.768a2.228,2.228,0,0,1,.4.038,2.069,2.069,0,0,1,.393.113c.125.05.24.1.341.151s.2.1.3.15a2.268,2.268,0,0,1,.263.151.412.412,0,0,1,.151.153l.075.148v3.537l-.15.113a.169.169,0,0,1-.13.04h-1.977a.761.761,0,0,1-.169-.021.7.7,0,0,1-.169-.056c-.123-.05-.245-.1-.357-.151a2.967,2.967,0,0,1-.355-.188.73.73,0,0,1-.228-.282.82.82,0,0,1-.073-.32l-.263-3.574h1.505Z" transform="translate(105.263 -5.108)" fill="#7c7b7b"/>
        <path id="Pfad_6338" data-name="Pfad 6338" d="M117.576,22.814q.075-1.072.113-1.975c.023-.577.042-1.108.056-1.6s.019-.934.019-1.336v-.753a1.233,1.233,0,0,1-.038-.3v-.83a.659.659,0,0,1-.038-.207v-.207c-.025-.125-.044-.245-.059-.357s-.017-.219-.017-.32v-.715a.7.7,0,0,1,.017-.148.914.914,0,0,1,.059-.153.417.417,0,0,0,.132-.019.475.475,0,0,1,.132-.019.148.148,0,0,1,.111-.038h.247a.135.135,0,0,0,.094-.036h1.731a2.5,2.5,0,0,1,.79.111.956.956,0,0,1,.527.416,1.869,1.869,0,0,1,.282.619,3.208,3.208,0,0,1,.094.809,6.188,6.188,0,0,1-.075.941c-.05.328-.115.679-.188,1.054-.025.128-.05.251-.075.376s-.05.251-.075.378a2.072,2.072,0,0,0-.113.374l-.075.376.075-.075c.025-.025.05-.05.073-.075l.077-.073c.023-.027.05-.052.075-.077.075-.1.157-.2.245-.3s.182-.2.282-.3a1.412,1.412,0,0,0,.132-.151c.038-.048.079-.113.132-.188a.544.544,0,0,1,.113-.151l.15-.151q.147-.151.3-.3l.3-.3a1.863,1.863,0,0,1,.263-.284c.1-.088.2-.182.3-.282q.3-.263.546-.489a2.8,2.8,0,0,1,.508-.376c.276-.151.527-.288.75-.414s.429-.226.6-.3a4.376,4.376,0,0,1,.546-.169,2.2,2.2,0,0,1,.47-.056h1.505a1.284,1.284,0,0,1,.79.226,1.385,1.385,0,0,1,.451.755,6.718,6.718,0,0,1,.226,1.129,12.28,12.28,0,0,1,.075,1.428v.452a1.105,1.105,0,0,0-.038.263v.527q.188-.263.357-.508c.113-.161.232-.33.357-.506a5.439,5.439,0,0,0,.414-.472q.188-.245.414-.508.451-.527.9-1.016a7.842,7.842,0,0,1,.939-.865q.379-.3.755-.546a8.157,8.157,0,0,1,.753-.433,3.949,3.949,0,0,1,.715-.282,2.606,2.606,0,0,1,.677-.094h1.505a1.741,1.741,0,0,1,.715.151,2.134,2.134,0,0,1,.64.452,2.683,2.683,0,0,1,.527.809,6.284,6.284,0,0,1,.376,1.185,2.91,2.91,0,0,1,.132.564c.038.251.069.552.092.9q.078.564.169,1.129c.065.376.134.767.209,1.166q.113.715.282,1.392c.113.452.217.89.32,1.317a3.476,3.476,0,0,0,.4.9.579.579,0,0,0,.47.3l.113.056a.161.161,0,0,0,.075.019.307.307,0,0,0,.075.059.243.243,0,0,1,.075.054.455.455,0,0,1,.075.115.1.1,0,0,1,.038.073v.151a.035.035,0,0,1-.038.04.166.166,0,0,1-.019.073.167.167,0,0,0-.019.075l-.151.226a2.633,2.633,0,0,0-.263.207q-.151.132-.339.282-.188.113-.4.226a4.146,4.146,0,0,1-.4.188,1.484,1.484,0,0,1-.226.056,1.283,1.283,0,0,0-.226.059,1.72,1.72,0,0,1-.228.054,1.138,1.138,0,0,1-.186.019l-1.505.038a.659.659,0,0,0-.207-.038.373.373,0,0,1-.169-.038.337.337,0,0,1-.169-.113.989.989,0,0,1-.094-.15c-.027-.125-.056-.251-.094-.376s-.082-.251-.132-.376c-.025-.125-.059-.249-.094-.376s-.082-.251-.132-.376q-.113-.411-.207-.828c-.065-.276-.119-.552-.169-.828a1.74,1.74,0,0,1-.056-.207,1.042,1.042,0,0,1-.019-.207.669.669,0,0,1-.056-.188,1.779,1.779,0,0,0-.056-.226,1.3,1.3,0,0,1-.056-.224,1.419,1.419,0,0,1-.019-.228.67.67,0,0,1-.056-.188,1.374,1.374,0,0,1-.019-.226c-.077-.324-.15-.64-.226-.941s-.151-.589-.226-.865q-.15-.414-.263-.809t-.226-.771q-.15-.414-.3-.734a1.851,1.851,0,0,0-.339-.508l-.038.04a6.11,6.11,0,0,0-1.994,1.729c-.326.4-.642.828-.941,1.279s-.589.9-.865,1.355c-.251.452-.485.884-.7,1.3s-.41.819-.585,1.223-.324.738-.449,1.014a5.247,5.247,0,0,0-.263.677l-.153.151-.224.038h-1.505a.153.153,0,0,0-.113-.038.109.109,0,0,0-.077-.038h-.148c-.027,0-.038-.013-.038-.038a.182.182,0,0,1-.077-.019.153.153,0,0,0-.073-.019,1.968,1.968,0,0,1-.32-.113,1.059,1.059,0,0,1-.32-.224.83.83,0,0,1-.207-.322,1,1,0,0,1-.056-.32v-.075l.038-.113c.1-.575.188-1.122.263-1.637s.138-.985.188-1.411.088-.815.113-1.166.038-.677.038-.978a5.872,5.872,0,0,0-.075-1,2.159,2.159,0,0,0-.226-.7.592.592,0,0,0-.15-.226.635.635,0,0,0-.226-.15h-.038a4.144,4.144,0,0,0-1.054.677,8.8,8.8,0,0,0-1.054,1.091c-.351.452-.69.918-1.018,1.392s-.625.966-.9,1.467c-.176.328-.351.652-.527.978s-.339.64-.491.941-.286.585-.412.849-.238.506-.339.732a.26.26,0,0,1-.075.188.255.255,0,0,1-.188.075.951.951,0,0,1-.282.094,2.042,2.042,0,0,1-.282.019l-1.505.038a2.8,2.8,0,0,0-.282-.056.585.585,0,0,1-.245-.094c-.075,0-.119-.025-.134-.075a.37.37,0,0,1,.021-.188V25.13Q117.5,23.885,117.576,22.814Z" transform="translate(109.979 -0.672)" fill="#7c7b7b"/>
        <path id="Pfad_6339" data-name="Pfad 6339" d="M141.093,19.018a.917.917,0,0,0-.019.207,1.233,1.233,0,0,0-.056.245,2.842,2.842,0,0,1-.059.282c-.023.1-.042.194-.054.282a1.723,1.723,0,0,0-.021.282,2.6,2.6,0,0,0-.054.3c-.015.1-.033.213-.059.339-.023.1-.042.194-.054.282a1.719,1.719,0,0,0-.021.282c-.023.1-.042.2-.054.282a1.51,1.51,0,0,0-.021.245c-.048.378-.094.74-.13,1.091s-.082.7-.134,1.054c-.023.326-.048.589-.073.79a3.478,3.478,0,0,0-.038.414,4.882,4.882,0,0,0,.414,1.618,5,5,0,0,0,.941,1.392,4.274,4.274,0,0,0,1.014.811,3.865,3.865,0,0,0,1.2.433c.025-.027.044-.04.059-.04h.054c.176-.048.351-.1.527-.151a2.439,2.439,0,0,0,.529-.226,9.293,9.293,0,0,0,2.051-1.355,12.6,12.6,0,0,0,1.787-1.919,26.257,26.257,0,0,0,1.6-2.258q.734-1.163,1.409-2.37.3-.527.546-1.035c.163-.339.332-.669.508-1q.263-.527.51-1t.468-.922a3.147,3.147,0,0,0,.32-.7c.088-.263.171-.558.247-.882s.144-.661.2-1,.121-.671.169-1c.052-.376.107-.746.169-1.11s.107-.721.134-1.07c.048-.351.094-.667.13-.943s.071-.514.094-.713h1.846a3.212,3.212,0,0,1,1.58.337,1.943,1.943,0,0,1,.865,1.016,10.714,10.714,0,0,1,.357,1.411,12.274,12.274,0,0,1,.169,1.561v.339a.355.355,0,0,0-.04.169v1.072a.367.367,0,0,0-.036.151v1.467a.444.444,0,0,0,.036.188c.052.527.107,1.035.169,1.524s.107.972.134,1.449c.048.477.094.928.13,1.355s.071.853.094,1.281c.077,1.152.182,2.205.322,3.158s.293,1.793.468,2.521a4.239,4.239,0,0,0,.924,1.731,3.035,3.035,0,0,0,1.6.9.16.16,0,0,1,0,.151.242.242,0,0,1-.111.113,2.67,2.67,0,0,0-.228.169c-.073.061-.163.132-.263.207l-.148.075c-.05.025-.1.05-.15.075a.342.342,0,0,0-.153.038c-.05.025-.1.05-.151.075l-.3.151c-.1.05-.2.1-.3.151-.178.05-.36.107-.548.169l-.508.169c-.176.05-.318.088-.433.113a1.3,1.3,0,0,1-.242.038l-.075.075h-1.58q-.339-.038-.621-.546a5.754,5.754,0,0,1-.508-1.486c-.15-.677-.291-1.4-.414-2.163s-.251-1.574-.376-2.427c-.027-.176-.05-.351-.075-.527a3.7,3.7,0,0,1-.04-.564q-.035-.263-.075-.527l-.073-.527c-.027-.176-.05-.345-.075-.508a3.089,3.089,0,0,1-.04-.508c-.023-.151-.048-.305-.075-.468s-.048-.322-.073-.472v-.113a.1.1,0,0,1-.04-.075v-.226c-.023,0-.036-.013-.036-.038v-.075a1.132,1.132,0,0,1-.075-.188.775.775,0,0,1-.04-.263,2.74,2.74,0,0,1-.054-.32,2.8,2.8,0,0,1-.019-.357,3.5,3.5,0,0,1-.056-.357c-.013-.113-.033-.23-.059-.357s-.042-.257-.054-.4a4.115,4.115,0,0,1-.021-.433.618.618,0,0,0-.019-.151.721.721,0,0,1-.017-.151.7.7,0,0,1-.059-.151.61.61,0,0,1-.017-.148.684.684,0,0,0-.059.148.685.685,0,0,1-.054.151.677.677,0,0,0-.059.151.552.552,0,0,1-.056.151q-.263.715-.6,1.411c-.226.464-.466.949-.717,1.449a29.813,29.813,0,0,1-1.5,2.653,30.807,30.807,0,0,1-1.808,2.54,13.731,13.731,0,0,1-2.161,2.2,12.549,12.549,0,0,1-2.542,1.6c-.1.048-.2.092-.3.13a2.735,2.735,0,0,0-.3.134,1.654,1.654,0,0,0-.282.092c-.088.038-.18.084-.28.132-.2.027-.4.056-.6.094s-.4.069-.6.094a2.57,2.57,0,0,1-.543.094c-.188.013-.385.019-.585.019l-1.5.038a6.852,6.852,0,0,1-1.637-.263,4.225,4.225,0,0,1-1.411-.715,3.173,3.173,0,0,1-1.035-1.26,5.136,5.136,0,0,1-.433-1.825,3.546,3.546,0,0,1-.038-.506V26.035q0-1.2.038-2.258c.023-.7.075-1.352.151-1.957s.151-1.16.224-1.674.153-1,.228-1.449q.072-.452.169-.847l.169-.734c.048-.226.1-.439.15-.64s.088-.389.113-.564q.151-.64.263-1.2a9.31,9.31,0,0,0,.15-1.054c.048-.351.088-.671.113-.959s.036-.556.036-.809q0-.411-.019-.753a2.641,2.641,0,0,0-.092-.6,2.842,2.842,0,0,1-.059-.282,1.737,1.737,0,0,1-.019-.245,1.773,1.773,0,0,1-.054-.226c-.015-.073-.033-.151-.056-.226-.075-.276-.134-.5-.169-.658a1.7,1.7,0,0,0-.134-.4.249.249,0,0,1,.1-.263,1.531,1.531,0,0,1,.4-.226l.186-.038.228-.075h1.505a9.406,9.406,0,0,1,1.409.357,2.859,2.859,0,0,1,.924.508,1.644,1.644,0,0,1,.508.7,2.613,2.613,0,0,1,.169.959,7.014,7.014,0,0,1-.169,1.411c-.115.539-.27,1.148-.472,1.825q-.335,1.016-.7,2.333c-.238.878-.493,1.844-.771,2.9h-1.505v-.036h1.505A.627.627,0,0,0,141.093,19.018Z" transform="translate(130.992 -7.11)" fill="#7c7b7b"/>
        <path id="Pfad_6340" data-name="Pfad 6340" d="M150.876,24.2c.013-.311.029-.633.056-.959v-.47a2.861,2.861,0,0,1,.038-.47V20.6a2,2,0,0,1-.038-.4V19.1a1.292,1.292,0,0,1-.038-.339v-.339c-.025-.2-.044-.4-.056-.6s-.019-.387-.019-.564v-.978c0-.226,0-.426.019-.6a2.5,2.5,0,0,1,.056-.412,1.06,1.06,0,0,1,.151-.284.272.272,0,0,1,.226-.094h.263l.113-.038h1.768a3.674,3.674,0,0,1,.79.075.834.834,0,0,1,.489.263.911.911,0,0,1,.282.433,1.953,1.953,0,0,1,.094.621,5.21,5.21,0,0,1-.056.734c-.038.263-.082.548-.132.847-.052.251-.107.527-.169.828s-.119.617-.169.941q.452-.564.886-1.091t.807-.976a8.52,8.52,0,0,0,.677-.83c.173-.251.314-.464.414-.64l-.038-.113v-.151a1.374,1.374,0,0,1,.019-.226q.019-.113.056-.263.038-.113.094-.263a2.89,2.89,0,0,0,.094-.3,2.074,2.074,0,0,1,.3-.548c.125-.163.263-.33.414-.508a2.329,2.329,0,0,1,.452-.357.889.889,0,0,1,.451-.132h1.58a.108.108,0,0,1,.075.038.257.257,0,0,0,.113.038.167.167,0,0,1,.075.019.169.169,0,0,0,.077.019.057.057,0,0,0,.036.056.167.167,0,0,0,.075.019,13.2,13.2,0,0,0,.226,1.656,6.453,6.453,0,0,0,.339,1.166,4.016,4.016,0,0,0,.414.771,2.709,2.709,0,0,0,.452.508,1.978,1.978,0,0,0,.3.188,1.615,1.615,0,0,0,.3.115c.1.023.194.042.282.054a1.471,1.471,0,0,0,.245.019h.15a.108.108,0,0,0,.075.038h.075a.178.178,0,0,1,.094.094.417.417,0,0,1,.019.132,1,1,0,0,1-.226.339.921.921,0,0,1-.376.226,1.531,1.531,0,0,1-.451.151,3.242,3.242,0,0,1-.527.038H160.64a.71.71,0,0,1-.226-.038c-.075-.023-.151-.05-.226-.075a3.673,3.673,0,0,1-.847-.245,6.39,6.39,0,0,1-.771-.4l-.038-.038a.11.11,0,0,1-.075-.036v.036a.033.033,0,0,0-.038.038c-.05.075-.109.157-.169.245s-.119.169-.169.245q-.113.15-.207.263a2.653,2.653,0,0,0-.169.226q-.075.116-.169.245c-.063.09-.119.169-.169.245-.075.1-.144.188-.207.263a2.646,2.646,0,0,0-.169.226q-.452.64-.865,1.317t-.828,1.43a9.66,9.66,0,0,0-.715,1.543,12.631,12.631,0,0,0-.489,1.731h-.113l-.113.038-.15.038H152.1q-.3-.038-.564-.075a1.17,1.17,0,0,1-.489-.188.662.662,0,0,1-.282-.32.426.426,0,0,1,.056-.357v-.038Q150.857,24.668,150.876,24.2Z" transform="translate(146.378 -1.34)" fill="#7c7b7b"/>
        <path id="Pfad_6341" data-name="Pfad 6341" d="M158.365,16.891c0-.8-.008-1.536-.021-2.2s-.029-1.248-.054-1.75-.052-.953-.075-1.355-.052-.753-.075-1.054-.059-.558-.094-.771-.069-.4-.094-.546a3.517,3.517,0,0,1-.059-.357c-.01-.113-.017-.217-.017-.32a.373.373,0,0,1-.038-.169.658.658,0,0,1,.038-.207c.023-.048.056-.113.094-.188a1.424,1.424,0,0,0,.094-.263.254.254,0,0,1,.092-.056,1.044,1.044,0,0,0,.134-.056.731.731,0,0,1,.169-.056.855.855,0,0,1,.169-.019h1.693a.3.3,0,0,0,.132.038h.094a1.252,1.252,0,0,0,.224.056A.575.575,0,0,1,161,7.71c.176.075.339.151.487.226a2.47,2.47,0,0,1,.454.3,2,2,0,0,1,.376.32.763.763,0,0,1,.188.357v.056c0,.015.01.031.038.056V9.7c0,.351-.008.79-.021,1.317s-.042,1.141-.094,1.844c-.023.351-.042.715-.054,1.091s-.021.753-.021,1.131c-.023.4-.042.8-.054,1.2s-.033.815-.056,1.242c-.025.276-.046.558-.059.847s-.019.571-.019.847c-.023.3-.042.6-.054.884s-.021.571-.021.847q-.035.9-.075,1.806c-.025.6-.036,1.191-.036,1.768q-.038.865-.038,1.674v1.561q0,.831.019,1.58c.013.5.029.966.054,1.392s.059.79.1,1.091a4.681,4.681,0,0,0,.132.715.241.241,0,0,1-.059.15.368.368,0,0,1-.13.113.344.344,0,0,1-.188.094,1.378,1.378,0,0,1-.228.019l-1.5.038a.157.157,0,0,0-.113-.038.112.112,0,0,0-.075-.038h-.226a.113.113,0,0,0-.077-.038h-.075a2.8,2.8,0,0,0-.282-.056.982.982,0,0,1-.28-.094,1.045,1.045,0,0,0-.134-.056.4.4,0,0,0-.13-.019.252.252,0,0,0-.094-.056.222.222,0,0,1-.094-.056l-.188-.113V32.28c-.027-.15-.05-.314-.075-.489a3.416,3.416,0,0,1-.04-.527,5.127,5.127,0,0,1-.036-.583v-1.6q0-.263.019-.527t.056-.527v-.677a1.346,1.346,0,0,1,.036-.3v-.9a1.628,1.628,0,0,1,.04-.341V16.891Z" transform="translate(154.111 -7.522)" fill="#7c7b7b"/>
        <path id="Pfad_6342" data-name="Pfad 6342" d="M176.953,15.388q.019,0,.056-.038h.075a.417.417,0,0,0,.132-.019,1.032,1.032,0,0,0,.132-.056.229.229,0,0,1,.113-.056.23.23,0,0,0,.113-.056h1.505l.038.226v.075a.289.289,0,0,0,.038.113v.188q.038.339.075.809t.075,1.035c.025.4.056.8.094,1.185s.082.8.132,1.223q.075.941.226,1.787a14.238,14.238,0,0,0,.376,1.6,2.808,2.808,0,0,0,.508,1.166.914.914,0,0,0,.7.378h.113a.518.518,0,0,1,.169.167.169.169,0,0,1,.019.169.452.452,0,0,1-.132.151q-.094.075-.207.151t-.245.151a2.591,2.591,0,0,1-.32.151c-.052.025-.1.05-.151.075l-.151.075a1.461,1.461,0,0,0-.188.075l-.15.075a1.739,1.739,0,0,1-.207.056.672.672,0,0,0-.169.056,1.057,1.057,0,0,0-.207.019.671.671,0,0,0-.169.056.929.929,0,0,1-.3.094,2.187,2.187,0,0,1-.263.019l-1.505.038-.226-.038-.075-.075a2.079,2.079,0,0,1-.188-.414q-.075-.226-.151-.489c-.025-.176-.056-.364-.094-.562s-.082-.416-.134-.642l-.036-.075v-.113q-.038-.226-.075-.433a2.024,2.024,0,0,0-.113-.393,5.887,5.887,0,0,1-.677.506,8.47,8.47,0,0,1-.828.47,13.827,13.827,0,0,1-1.919.753,17.345,17.345,0,0,1-1.994.489c-.278.025-.552.056-.828.094s-.552.069-.828.094c-.251.025-.508.042-.771.056s-.521.019-.771.019l-1.505.038q-.376-.038-.715-.056c-.226-.015-.439-.031-.64-.056s-.4-.054-.583-.094-.357-.069-.508-.094a3.539,3.539,0,0,1-.959-.47,2.2,2.2,0,0,1-.621-.658,2.148,2.148,0,0,1-.376-.734,3.069,3.069,0,0,1-.113-.847,4.352,4.352,0,0,1,.054-.677,6.377,6.377,0,0,1,.171-.715c.075-.226.163-.462.263-.715a5.053,5.053,0,0,1,.376-.753,12.018,12.018,0,0,1,1.279-1.712,19.77,19.77,0,0,1,1.693-1.674,18.815,18.815,0,0,1,1.957-1.392,10.8,10.8,0,0,1,2.032-.978q.3-.113.621-.207a3.881,3.881,0,0,1,.621-.132,3.558,3.558,0,0,1,.621-.094c.211-.013.42-.019.621-.019h1.5a4.523,4.523,0,0,1,1.018.113,5.678,5.678,0,0,1,.941.3,4.1,4.1,0,0,1,.828.506,4.623,4.623,0,0,1,.753.734Zm-1.43,5.512a1.26,1.26,0,0,0,.019-.245v-.132a.3.3,0,0,1,.038-.132v-.263q0-.226-.019-.489c-.015-.176-.031-.349-.056-.525s-.044-.351-.056-.527-.031-.351-.056-.529a2.247,2.247,0,0,1-.056-.282,2.8,2.8,0,0,0-.056-.282,1.4,1.4,0,0,1-.056-.245,2,2,0,0,1-.019-.282,6.458,6.458,0,0,0-.79-.922,3.318,3.318,0,0,0-.9-.621q-.339-.15-.677-.263a3.343,3.343,0,0,0-.64-.151,4.041,4.041,0,0,0-.865.169q-.414.135-.828.282-.6.263-1.072.527a8.868,8.868,0,0,0-.884.564l-.226.226-.226.188a6.393,6.393,0,0,0-.7.828,7.241,7.241,0,0,0-.583.978,5.9,5.9,0,0,0-.414,1.072,8.248,8.248,0,0,0-.226,1.072.34.34,0,0,0-.038.151v.771a1.806,1.806,0,0,0,.038.357c.025.1.048.207.075.32s.05.232.075.357a2.8,2.8,0,0,0,.489.79,2.335,2.335,0,0,0,.79.564,4,4,0,0,0,.715.245,4.934,4.934,0,0,0,.753.132h.226a.265.265,0,0,0,.094-.019.309.309,0,0,1,.094-.019q.3-.075.64-.151a6.818,6.818,0,0,0,.677-.188,8.4,8.4,0,0,0,1.3-.508,13.224,13.224,0,0,0,1.258-.7,8.3,8.3,0,0,0,1.15-.884,9.46,9.46,0,0,0,.959-1.035v-.038A.646.646,0,0,0,175.523,20.9Z" transform="translate(158.152 -0.751)" fill="#7c7b7b"/>
        <path id="Pfad_6343" data-name="Pfad 6343" d="M172.7,18.519a2.178,2.178,0,0,1,.056-.3,1.968,1.968,0,0,1,.019-.28,2.422,2.422,0,0,1,.056-.284v-.132a.3.3,0,0,1,.038-.132v-.357a.277.277,0,0,1,.038-.132.534.534,0,0,1,.019-.113.512.512,0,0,0,.019-.113c.023-.2.042-.393.056-.583s.031-.383.054-.583.059-.426.1-.677.069-.5.094-.753l.188-.113.226-.036h1.693a.131.131,0,0,0,.094.036h.094a.589.589,0,0,0,.188.056.579.579,0,0,1,.226.094.953.953,0,0,1,.132.077.248.248,0,0,0,.132.036.363.363,0,0,0,.113.075.552.552,0,0,1,.113.075,2.642,2.642,0,0,1,.226.169c.075.063.151.119.224.169q.078.075.169.151a.477.477,0,0,1,.134.151l.188.226-.075.151a.341.341,0,0,0-.038.151c-.027.075-.05.144-.075.207s-.052.132-.075.207-.052.151-.075.226a.71.71,0,0,0-.038.226c-.027.075-.05.157-.075.245s-.05.182-.075.282c-.052.176-.1.364-.151.566s-.1.4-.151.6q-.038.3-.094.6c-.038.2-.084.4-.132.6-.025.176-.052.353-.075.527s-.052.353-.075.527a3.5,3.5,0,0,0-.038.489V21.3a3.371,3.371,0,0,0,.188,1.467,1.952,1.952,0,0,0,.282.47.859.859,0,0,0,.4.282h.038c.125-.05.257-.1.4-.151a4.115,4.115,0,0,0,.433-.188,6.367,6.367,0,0,0,1.185-.771,8.254,8.254,0,0,0,1.148-1.148q.564-.64,1.072-1.336a11.41,11.41,0,0,0,.884-1.411q.113-.188.207-.357a2.961,2.961,0,0,0,.169-.357c.05-.1.1-.211.151-.339s.1-.236.151-.339q.15-.339.263-.658c.075-.213.138-.42.188-.619a1.05,1.05,0,0,1,.169-.3,1.229,1.229,0,0,1,.245-.224c.1-.052.2-.1.3-.153a1.426,1.426,0,0,1,.3-.113.531.531,0,0,0,.151-.019.784.784,0,0,1,.186-.019.343.343,0,0,1,.153-.038h.28a.284.284,0,0,0,.134-.038h1.656v.113a.108.108,0,0,0-.038.075v1.091c0,.654.031,1.3.094,1.938s.144,1.26.242,1.865q.191.9.36,1.656T187.879,23a1.383,1.383,0,0,1,.113.32.818.818,0,0,0,.113.284,1.256,1.256,0,0,0,.094.263c.038.073.069.136.092.186a1.588,1.588,0,0,0,.209.282.255.255,0,0,0,.169.094,1.509,1.509,0,0,1,.809.3c.113.123.069.274-.134.449a4.169,4.169,0,0,1-.844.51,14.283,14.283,0,0,1-1.449.581l-.226.115-.226.073h-1.5a3.25,3.25,0,0,1-.3-.583,5.225,5.225,0,0,1-.263-.847q-.151-.527-.263-1.11c-.075-.389-.153-.784-.226-1.185-.1-.452-.194-.876-.282-1.279s-.171-.79-.245-1.164c-.05.073-.107.148-.169.224a2.647,2.647,0,0,0-.169.226,1.461,1.461,0,0,1-.169.263q-.094.113-.207.226c-.253.326-.527.652-.828.98s-.615.638-.941.939-.654.577-.978.828a11.445,11.445,0,0,1-.978.677,4.675,4.675,0,0,1-.677.376c-.226.1-.439.188-.642.263-.2.025-.4.056-.6.094a3.089,3.089,0,0,1-.6.056l-1.505.038c-.2-.025-.4-.054-.583-.094s-.372-.082-.548-.13a2.019,2.019,0,0,1-.506-.322,2.848,2.848,0,0,1-.47-.508,1.7,1.7,0,0,1-.226-.508c-.05-.188-.1-.383-.15-.581-.027-.2-.05-.416-.075-.642a6.487,6.487,0,0,1-.038-.715v-.452a2.745,2.745,0,0,1,.038-.452q0-.226.019-.452c.013-.151.029-.3.056-.452v-.4a1.488,1.488,0,0,1,.038-.357v-.151a.309.309,0,0,1,.038-.151v-.339A1.381,1.381,0,0,0,172.7,18.519Z" transform="translate(170.046 -0.534)" fill="#7c7b7b"/>
        <path id="Pfad_6344" data-name="Pfad 6344" d="M182.29,8.556a1.226,1.226,0,0,1,.148-.414A1.748,1.748,0,0,1,182.7,7.8a2.3,2.3,0,0,1,.4-.188,1.289,1.289,0,0,1,.433-.075h1.618a1.571,1.571,0,0,1,.506.169,2.085,2.085,0,0,1,.472.357,1.786,1.786,0,0,1,.339.621,3.957,3.957,0,0,1,.148.847V9.8a.153.153,0,0,0-.036.113v.151a2.575,2.575,0,0,0-.059.3,2.58,2.58,0,0,1-.054.3c-.027.4-.069.853-.134,1.357s-.13,1.041-.2,1.616q-.041.452-.094.884c-.04.288-.069.583-.094.884-.052.3-.09.61-.115.922s-.063.635-.113.959a3.072,3.072,0,0,0-.056.3,2.366,2.366,0,0,0-.019.3q-.035.151-.056.3a2.45,2.45,0,0,0-.019.3c-.075.552-.136,1.091-.188,1.618s-.1,1.056-.151,1.58c-.025.351-.054.692-.094,1.016s-.069.652-.094.98c.228-.128.452-.265.677-.416s.464-.3.715-.449a7.229,7.229,0,0,1,.959-.585c.364-.188.761-.37,1.187-.546.048-.023.1-.05.169-.075s.13-.05.2-.075c.052-.025.094-.042.134-.056a.3.3,0,0,0,.094-.054.351.351,0,0,0,.13-.021.222.222,0,0,0,.094-.056c.2-.05.414-.1.642-.169a4.381,4.381,0,0,1,.715-.132,7.609,7.609,0,0,1,.771-.113c.263-.025.533-.036.807-.036h1.808a7.463,7.463,0,0,1,1.637.242,6.194,6.194,0,0,1,1.486.621,2.494,2.494,0,0,1,1.072,1.072,3.633,3.633,0,0,1,.355,1.674v.6a.15.15,0,0,1-.036.113.415.415,0,0,1-.021.132.416.416,0,0,0-.019.132c-.023.1-.042.2-.054.282a.606.606,0,0,1-.1.245.246.246,0,0,0-.054.115.39.39,0,0,0-.019.111.71.71,0,0,0-.056.132,1.08,1.08,0,0,1-.059.132,7.953,7.953,0,0,1-1.129,1.656,11.946,11.946,0,0,1-1.731,1.618,17.141,17.141,0,0,1-2.067,1.392,14.441,14.441,0,0,1-2.182,1.016c-.326.1-.648.188-.959.263s-.623.151-.924.226c-.326.075-.631.132-.922.169a6.512,6.512,0,0,1-.845.056l-1.507.038q-.263-.038-.527-.056a2.584,2.584,0,0,1-.527-.094,2.728,2.728,0,0,1-.487-.113c-.153-.05-.291-.1-.416-.151a2.4,2.4,0,0,1-.957-.583,2.691,2.691,0,0,1-.621-1.072,8.821,8.821,0,0,1-.416-1.392,14.237,14.237,0,0,1-.226-1.467c-.025-.151-.044-.3-.054-.452s-.033-.314-.059-.489q0-.226-.019-.452c-.01-.151-.017-.3-.017-.452V24.547Zm2.634,17.383v.414a4.755,4.755,0,0,0,.374,1.919,5,5,0,0,0,1.168,1.618,5.381,5.381,0,0,0,1.392.959,5.247,5.247,0,0,0,1.58.47c.123-.025.257-.054.393-.094s.284-.082.433-.132c.228-.075.452-.163.677-.261a4.606,4.606,0,0,0,.679-.378,2.421,2.421,0,0,0,.339-.245c.1-.086.211-.182.339-.282a2.834,2.834,0,0,0,.318-.282c.115-.113.222-.217.322-.32a10.542,10.542,0,0,0,.638-1,4.754,4.754,0,0,0,.414-.959,4.1,4.1,0,0,0,.263-.9,5.053,5.053,0,0,0,.077-.863,4.124,4.124,0,0,0-.263-1.507,3.107,3.107,0,0,0-.79-1.166,3.476,3.476,0,0,0-.79-.6,3.721,3.721,0,0,0-.865-.339c-.1.025-.222.05-.357.075a2.067,2.067,0,0,0-.4.113c-.276.1-.556.207-.847.32s-.581.234-.884.357a6.985,6.985,0,0,0-.75.357c-.251.138-.5.27-.755.4-.125.077-.245.151-.355.226a2.015,2.015,0,0,1-.357.188l-.3.226-.3.228a4.428,4.428,0,0,0-.433.318c-.14.115-.27.232-.4.357-.1.1-.2.207-.3.32a1.671,1.671,0,0,0-.228.32h-1.505v-.038h1.505A.607.607,0,0,0,184.924,25.939Z" transform="translate(180.114 -7.502)" fill="#7c7b7b"/>
      </g>
      <rect id="Rechteck_517" data-name="Rechteck 517" width="414.769" height="59.253" fill="none"/>
    </g>
  </g>
</svg>
