<svg xmlns="http://www.w3.org/2000/svg" width="584.876" height="83.554" viewBox="0 0 584.876 83.554">
  <g id="Claim_Wohnen_wie_im_Urlaub_1-Line_negativ" data-name="Claim Wohnen wie im Urlaub 1-Line negativ" transform="translate(292.438 41.777)">
    <g id="Gruppe_5183" data-name="Gruppe 5183" transform="translate(-292.438 -41.777)">
      <g id="Gruppe_5182" data-name="Gruppe 5182" transform="translate(25.355 22.172)">
        <path id="Pfad_6355" data-name="Pfad 6355" d="M20.221,43.251q-.265-.053-.584-.531a7.72,7.72,0,0,1-.687-1.433c-.248-.672-.489-1.424-.719-2.255s-.486-1.742-.766-2.732c-.109-.389-.215-.787-.321-1.194s-.212-.822-.318-1.247-.2-.849-.292-1.27-.165-.852-.239-1.276q-.371-1.7-.743-3.316t-.69-3.157q-.318-1.539-.531-2.679t-.315-1.83c-.106-.6-.215-1.167-.321-1.7s-.212-1.023-.318-1.486q-.212-.69-.371-1.273c-.106-.389-.209-.743-.318-1.061q-.371-.955-.716-1.671a10,10,0,0,0-.663-1.194c-.177-.212-.351-.407-.531-.584a2.79,2.79,0,0,0-.531-.424c-.139-.106-.292-.209-.451-.318s-.309-.212-.448-.318c-.074-.035-.144-.068-.215-.106s-.139-.071-.212-.106L8.6,9.878a1.079,1.079,0,0,1,.318-.371,2.673,2.673,0,0,1,.427-.265A3.012,3.012,0,0,1,9.9,9.082a3.406,3.406,0,0,1,.61-.053h2.122a3.419,3.419,0,0,1,.424.027,3.579,3.579,0,0,1,.424.08.872.872,0,0,1,.212.027,1.116,1.116,0,0,0,.265.027.939.939,0,0,0,.212.08.878.878,0,0,0,.215.027c.1.035.209.074.315.106s.23.074.371.106l.318.106.318.106c.212.071.416.153.61.239s.38.168.557.239c.177.106.348.2.5.292s.292.168.4.242.2.13.295.183a.465.465,0,0,1,.183.189,13.5,13.5,0,0,1,.531,1.592q.265.951.584,2.225.265,1.326.56,2.759t.61,3.024c.032.283.077.566.13.849s.1.566.133.849a3.579,3.579,0,0,1,.08.424,2.2,2.2,0,0,0,.08.371,3.626,3.626,0,0,1,.08.427,3.647,3.647,0,0,0,.08.422q.424,2.6.878,5.014c.3,1.609.61,3.139.926,4.589.106.531.212,1.02.321,1.459s.209.822.315,1.141c.141-.283.3-.6.478-.952s.354-.743.531-1.17q.8-1.746,1.727-3.687t1.934-4.059l.318-.743c.106-.248.215-.5.318-.743s.221-.5.345-.743.256-.5.4-.743c.563-1.129,1.12-2.2,1.668-3.21s1.088-1.937,1.618-2.785a10.286,10.286,0,0,1,1.459-1.91,1.855,1.855,0,0,1,1.194-.637h.265l.106-.053h2.228c.354,0,.725.312,1.114.928a13.927,13.927,0,0,1,1.22,2.785c.427,1.273.858,2.6,1.3,3.979s.89,2.812,1.353,4.3c.068.283.139.566.209.849a7.237,7.237,0,0,0,.268.849c.068.248.147.5.239.772s.165.536.236.819c.177.566.354,1.135.531,1.7a15.88,15.88,0,0,0,.587,1.592q.261.743.528,1.459t.531,1.353c.18.389.345.743.5,1.064a4.336,4.336,0,0,0,.5.793,22.352,22.352,0,0,0,2.6-2.865A19.694,19.694,0,0,0,51.9,31.9,31.891,31.891,0,0,0,53.541,28a32.9,32.9,0,0,0,1.114-4c.071-.392.141-.772.212-1.144s.141-.752.212-1.141c.035-.354.083-.725.133-1.114s.1-.76.133-1.114c.074-.743.124-1.477.159-2.2s.053-1.424.053-2.1c0-.707-.009-1.394-.024-2.069s-.065-1.326-.136-1.963q-.053-.955-.186-1.8c-.088-.566-.165-1.094-.239-1.592H57.1a5.938,5.938,0,0,1,2.175.663,3.82,3.82,0,0,1,1.435,1.406,5.938,5.938,0,0,1,.849,1.937,10.375,10.375,0,0,1,.262,2.414,19.027,19.027,0,0,1-.186,2.576,20.566,20.566,0,0,1-.61,2.836q-.371,1.486-.9,2.971t-1.167,3.027q-.637,1.486-1.379,2.968t-1.536,2.918c-.248.46-.516.92-.8,1.379s-.548.92-.8,1.379q-.424.637-.822,1.273c-.265.424-.536.831-.822,1.22-.6.887-1.191,1.689-1.777,2.414a24.8,24.8,0,0,1-1.777,1.99,10.4,10.4,0,0,1-1.618,1.353,6.217,6.217,0,0,1-1.406.716l-2.122.053A3.766,3.766,0,0,1,42.346,41.9a11.333,11.333,0,0,1-1.486-2.839c-.46-1.238-.908-2.52-1.353-3.847s-.875-2.7-1.3-4.112a4.824,4.824,0,0,0-.136-.5,3.438,3.438,0,0,0-.186-.451c-.032-.177-.071-.345-.106-.5s-.071-.312-.106-.454c-.141-.528-.3-1.052-.478-1.565s-.336-1.017-.478-1.512c-.177-.5-.342-.973-.5-1.433s-.324-.92-.5-1.379q-.212-.584-.424-1.114a5.89,5.89,0,0,0-.478-.955q-2.334,4.4-4.006,7.746T28.127,34.6q-1.114,2.441-2.016,4.165A21.625,21.625,0,0,1,24.469,41.5a2.335,2.335,0,0,1-.239.292,1.04,1.04,0,0,1-.242.186.4.4,0,0,0-.159.133.906.906,0,0,1-.1.133.591.591,0,0,0-.162.106l-.106.106a2.945,2.945,0,0,1-.5.4q-.292.186-.557.345l-2.122.053Z" transform="translate(-8.602 -7.066)" fill="#fff"/>
        <path id="Pfad_6356" data-name="Pfad 6356" d="M43.49,13.92a9.455,9.455,0,0,1,1.061.133,10.63,10.63,0,0,1,1.217.186c.427.088.849.186,1.276.292a11.772,11.772,0,0,1,1.99.8,12.023,12.023,0,0,1,1.774,1.117,4.085,4.085,0,0,1,1.276,1.536,4.859,4.859,0,0,1,.422,2.069,5.232,5.232,0,0,1-.106,1.064c-.068.354-.159.725-.265,1.111a8.433,8.433,0,0,1-.448,1.223,13.252,13.252,0,0,1-.716,1.323,11.68,11.68,0,0,1-1.194,1.592,11.264,11.264,0,0,1-1.568,1.433,11.631,11.631,0,0,1-3.658,2.016q-.217.053-.451.133c-.159.053-.312.1-.454.136-.174.032-.336.068-.478.1s-.3.071-.478.106c-.315.071-.619.124-.9.159a6.885,6.885,0,0,1-.852.053h-.315a.613.613,0,0,0-.268.053H39.4a.613.613,0,0,0-.268.053H38.5l-2.119.053h-.637a21.68,21.68,0,0,1-2.868-.4,13.444,13.444,0,0,1-2.6-.822,4.3,4.3,0,0,1-1.963-1.751,6.407,6.407,0,0,1-.793-2.918,6.928,6.928,0,0,1,.077-.955q.084-.531.239-1.22a9.233,9.233,0,0,1,.451-1.406,9.586,9.586,0,0,1,.769-1.459A8.659,8.659,0,0,1,30.621,17.8a15.568,15.568,0,0,1,2.311-1.78,11.291,11.291,0,0,1,3.233-1.406,24.736,24.736,0,0,1,4.3-.716V13.84h2.125C42.871,13.875,43.169,13.9,43.49,13.92Zm1.618,4.457a5.368,5.368,0,0,0-1.618-1.353,8.639,8.639,0,0,0-1.435-.61,6.311,6.311,0,0,0-1.486-.292q-.531.053-1.061.159c-.351.071-.7.162-1.058.265a9.931,9.931,0,0,0-1.459.507,12.291,12.291,0,0,0-1.141.554,4.241,4.241,0,0,1-.4.265c-.124.071-.239.141-.342.212a.968.968,0,0,0-.239.212,2.034,2.034,0,0,1-.189.212.972.972,0,0,1-.133.212,1.951,1.951,0,0,1-.183.212,2.347,2.347,0,0,1-.106.265c-.038.074-.074.141-.106.212a4.453,4.453,0,0,0-.189.424,4.09,4.09,0,0,1-.183.424q-.057.212-.106.451c-.035.159-.074.327-.109.5a1.917,1.917,0,0,0-.05.424v.424a5.876,5.876,0,0,0,.554,2.52,6.912,6.912,0,0,0,1.674,2.2,7.2,7.2,0,0,0,2.04,1.353,7.407,7.407,0,0,0,2.414.61c.177-.032.366-.071.56-.106s.38-.071.554-.106a7.987,7.987,0,0,0,2.122-.793,6.351,6.351,0,0,0,1.7-1.382,5.823,5.823,0,0,0,1.144-1.777,5.514,5.514,0,0,0,.4-2.1V22.17a.4.4,0,0,1-.056-.186v-.133a1.934,1.934,0,0,0-.027-.318,1.785,1.785,0,0,0-.077-.318l-.053-.318-.109-.318v-.053A8.583,8.583,0,0,0,45.108,18.376Z" transform="translate(28.243 4.783)" fill="#fff"/>
        <path id="Pfad_6357" data-name="Pfad 6357" d="M37.611,41.461v-5.12q0-1.088.053-2.2,0-1.114.027-2.228t.08-2.228V28.489a.888.888,0,0,1,.056-.292V27.72c0-.775.006-1.547.024-2.308s.044-1.527.08-2.308.062-1.539.08-2.281.027-1.468.027-2.175q0-1.534-.053-3c-.035-.97-.088-1.9-.156-2.785-.038-.92-.106-1.766-.215-2.547s-.23-1.5-.371-2.175A1.391,1.391,0,0,1,37.4,7.9a.575.575,0,0,1,.265-.186.883.883,0,0,1,.4-.133,4.093,4.093,0,0,1,.451-.027h2.334a.18.18,0,0,0,.133.053h.4a.182.182,0,0,0,.136.053h.133c.28.106.554.221.819.345a5.267,5.267,0,0,1,.772.451,1.859,1.859,0,0,1,.554.61,1.6,1.6,0,0,1,.189.769q0,3.29-.056,6.155t-.159,5.253c-.032,1.592-.1,3.06-.186,4.4s-.168,2.582-.239,3.714c-.035.781-.08,1.512-.133,2.2s-.115,1.335-.186,1.937q.478-.849,1.035-1.671c.371-.548.772-1.088,1.194-1.618a14.83,14.83,0,0,1,2.016-2.043,13,13,0,0,1,2.494-1.618c.248-.106.486-.2.719-.292a3.336,3.336,0,0,1,.66-.186,2.918,2.918,0,0,1,.637-.133q.318-.027.584-.027h2.122a2.79,2.79,0,0,1,1.433.371A2.585,2.585,0,0,1,56.924,27.4a7.613,7.613,0,0,1,.716,1.886,24.189,24.189,0,0,1,.5,2.676q0,.478.053,1.061t.159,1.326q.106.694.292,1.459t.4,1.565q.318,1.167.716,2.255a20.357,20.357,0,0,0,.875,2.043,5.146,5.146,0,0,0,1.035,1.406,1.658,1.658,0,0,0,1.091.5c.174.035.28.1.315.186a.429.429,0,0,1-.053.345,1.722,1.722,0,0,1-.318.5,2.647,2.647,0,0,1-.531.451.649.649,0,0,1-.156.106.328.328,0,0,0-.162.159,1.736,1.736,0,0,0-.186.106,1.732,1.732,0,0,1-.186.106.617.617,0,0,1-.159.106.548.548,0,0,0-.156.106,1.387,1.387,0,0,0-.189.109c-.05.032-.115.068-.183.1a4.228,4.228,0,0,0-.507.239,1.731,1.731,0,0,1-.5.186,2.074,2.074,0,0,1-.424.159,1.579,1.579,0,0,1-.371.056l-2.119.05h-.268l-.159-.106-.106-.106-.106-.106a7.239,7.239,0,0,1-.637-1.061,12.8,12.8,0,0,1-.637-1.592q-.318-.955-.584-1.91t-.531-2.016q-.212-.9-.4-1.748t-.345-1.7q-.159-.849-.239-1.512a11,11,0,0,0-.186-1.141,3.414,3.414,0,0,1-.08-.451,1.328,1.328,0,0,0-.133-.451.909.909,0,0,1-.08-.239,1.206,1.206,0,0,1-.027-.239.947.947,0,0,1-.08-.239c-.018-.088-.044-.186-.077-.292-.144-.386-.295-.769-.454-1.141a8.6,8.6,0,0,0-.557-1.088.783.783,0,0,0-.1-.159,1.2,1.2,0,0,1-.106-.106.7.7,0,0,0-.109-.159c-.035-.035-.071-.068-.106-.106a7.3,7.3,0,0,0-1.326.928,9.789,9.789,0,0,0-1.22,1.3,18.978,18.978,0,0,0-1.3,1.8,20,20,0,0,0-1.091,1.913c-.177.315-.345.634-.5.952s-.33.637-.5.955c-.144.318-.286.628-.427.928s-.283.6-.422.875c-.109.212-.206.424-.295.637s-.168.424-.239.637a5.3,5.3,0,0,1-.133.61,5.14,5.14,0,0,1-.186.557l-.106.318a1,1,0,0,0-.053.318c-.035.106-.071.206-.1.292s-.074.171-.106.239-.083.159-.133.265a1.825,1.825,0,0,0-.133.318.5.5,0,0,0-.106.159.7.7,0,0,1-.109.159l-2.119.053c-.251-.071-.472-.133-.666-.186s-.345-.1-.451-.133l-.424-.106-.05-.053h-.056l-.265-.159a.262.262,0,0,0-.212-.133q-.159-.027-.371-.08A7.282,7.282,0,0,1,37.611,41.461Z" transform="translate(47.173 -7.452)" fill="#fff"/>
        <path id="Pfad_6358" data-name="Pfad 6358" d="M47.021,14.719a.235.235,0,0,1-.027-.106c-.038,0-.056-.018-.056-.053v-.106l-.05-.318.159-.424a.451.451,0,0,1,.239-.133,1.758,1.758,0,0,1,.292-.027h2.388a.18.18,0,0,0,.133.053h.133a1.008,1.008,0,0,0,.265.083,1.785,1.785,0,0,1,.318.077,1.11,1.11,0,0,0,.183.08,1.474,1.474,0,0,1,.189.08.323.323,0,0,0,.159.08.366.366,0,0,1,.159.08c.071.035.133.074.186.106a.249.249,0,0,0,.133.053,1.736,1.736,0,0,1,.186.106,1.387,1.387,0,0,1,.133.106l.265.215.159.209a.393.393,0,0,1,.156.133.917.917,0,0,1,.109.239,2.2,2.2,0,0,1,.08.371,3.913,3.913,0,0,1,.027.478q0,.478-.053,1.035c-.038.371-.088.769-.162,1.194l-.1.64a4.14,4.14,0,0,0-.053.687c-.035.212-.074.433-.106.666s-.071.469-.109.713l-.05.106v.053a20.15,20.15,0,0,1,2.252-2.945A8.1,8.1,0,0,1,56.7,16.576,23.958,23.958,0,0,1,59.542,15.3a6.176,6.176,0,0,1,1.937-.424H64.4a1.936,1.936,0,0,1,1.379.557,4.074,4.074,0,0,1,.955,1.671q.367,1.114.69,2.334a25.037,25.037,0,0,1,.528,2.6V22.2a.2.2,0,0,0,.056.159.588.588,0,0,0,.027.186.587.587,0,0,1,.027.186v.159a.2.2,0,0,0,.053.159.575.575,0,0,0,.027.186.588.588,0,0,1,.027.186c.106.672.23,1.321.371,1.94s.28,1.191.424,1.721a5.314,5.314,0,0,0,.5,1.353,1.474,1.474,0,0,0,.663.663,1.577,1.577,0,0,1,.424.239.865.865,0,0,1,.212.239.546.546,0,0,1,.106.292.526.526,0,0,1-.053.239,1.281,1.281,0,0,1-.318.4,1.482,1.482,0,0,1-.531.292,1.339,1.339,0,0,1-.318.159,1.287,1.287,0,0,0-.318.159,1.6,1.6,0,0,0-.371.136,2.889,2.889,0,0,1-.318.13,3.955,3.955,0,0,1-.4.08,1.971,1.971,0,0,0-.345.08h-.133a.449.449,0,0,0-.189.053h-.262l-2.122.053a3.954,3.954,0,0,0-.4-.08,1.025,1.025,0,0,1-.295-.08.343.343,0,0,1-.209-.159.553.553,0,0,1-.053-.265c-.035-.248-.1-.545-.186-.9s-.186-.8-.292-1.326a6.238,6.238,0,0,0-.159-.822,6.062,6.062,0,0,1-.159-.769c-.071-.283-.133-.563-.186-.849s-.115-.563-.186-.849c-.038-.141-.071-.283-.106-.424s-.071-.283-.106-.424c-.035-.177-.074-.345-.106-.5s-.074-.307-.106-.451q-.164-.478-.292-.955c-.088-.318-.171-.637-.239-.955-.074-.28-.141-.557-.212-.822s-.141-.5-.215-.716a5.559,5.559,0,0,0-.528-1.353,4.579,4.579,0,0,0-.69-.928.946.946,0,0,0-.136-.106A1.045,1.045,0,0,1,60.2,17.8a.531.531,0,0,1-.156-.106.778.778,0,0,0-.159-.106c-.071.038-.153.071-.239.106a.721.721,0,0,0-.239.159,6.193,6.193,0,0,0-.929.637,7.412,7.412,0,0,0-.875.852,16.089,16.089,0,0,0-1.512,1.881c-.478.693-.964,1.441-1.459,2.255q-.69,1.273-1.326,2.547a21.907,21.907,0,0,0-1.114,2.656,3.139,3.139,0,0,1-.133.315,2.431,2.431,0,0,0-.133.318.3.3,0,0,0-.08.133.436.436,0,0,0-.027.133c-.035.074-.062.124-.083.159a.448.448,0,0,0-.024.162.579.579,0,0,1-.159.183,1.548,1.548,0,0,0-.212.189.365.365,0,0,1-.133.077.373.373,0,0,1-.133.027h-2.6a1.57,1.57,0,0,1-.5-.08,3.438,3.438,0,0,1-.451-.186.8.8,0,0,1-.318-.265.654.654,0,0,1-.106-.371V26.9a8.316,8.316,0,0,1,.053-.926V23.739a2.408,2.408,0,0,1,.053-.475V21.855a2.805,2.805,0,0,1,.053-.554V19.68a2.806,2.806,0,0,1,.05-.5V17.107a2.806,2.806,0,0,1-.05-.5v-.451c-.035-.283-.065-.531-.08-.74a3.447,3.447,0,0,0-.08-.534v-.053A.323.323,0,0,1,47.021,14.719Z" transform="translate(65.963 4.222)" fill="#fff"/>
        <path id="Pfad_6359" data-name="Pfad 6359" d="M59.575,18.2A9.506,9.506,0,0,1,61.3,16.634q.844-.584,1.43-.928c.389-.227.693-.4.9-.5a1.176,1.176,0,0,0,.209-.133.99.99,0,0,1,.268-.133c.068-.035.133-.059.183-.08a1.676,1.676,0,0,0,.189-.08,1.362,1.362,0,0,0,.265-.024c.068-.021.156-.047.265-.083A8.11,8.11,0,0,1,66,14.379c.371-.088.766-.168,1.194-.236s.867-.136,1.323-.189.923-.1,1.382-.133h2.812a10.162,10.162,0,0,1,1.827.159,7.579,7.579,0,0,1,1.621.478,2.906,2.906,0,0,1,1.191.9,2.6,2.6,0,0,1,.5,1.489c0,.315.009.6.029.846s.041.478.077.69c.074.212.133.4.189.557a1.672,1.672,0,0,0,.183.4,1.123,1.123,0,0,1,.083.212.78.78,0,0,0,.08.212.362.362,0,0,0,.027.133.328.328,0,0,0,.077.133.505.505,0,0,1,.136.212.872.872,0,0,1,.027.212l-.106.265a1.962,1.962,0,0,1-.159.133,1.544,1.544,0,0,0-.212.186c-.248.035-.646.109-1.2.212s-1.229.23-2.04.371q-.588.106-1.22.212l-1.276.212c-.422.106-.858.2-1.3.265l-1.353.212q-1.331.212-2.629.424c-.867.141-1.707.286-2.517.424q-1.172.212-1.963.348c-.534.085-.94.165-1.22.236a8.709,8.709,0,0,0,.955,2.47,5.919,5.919,0,0,0,1.645,1.828,5.6,5.6,0,0,0,1.937.982,11.609,11.609,0,0,0,2.573.451c.421-.035.867-.08,1.323-.133s.937-.115,1.433-.183a19.87,19.87,0,0,0,2.228-.48q1.167-.318,2.5-.74c.389-.074.752-.141,1.085-.215s.628-.124.878-.156a4.587,4.587,0,0,1,.713-.136c.195-.018.363-.027.507-.027h2.122a3.746,3.746,0,0,1,.5.027.289.289,0,0,1,.239.136.394.394,0,0,0,.05.156.226.226,0,0,1-.027.106.351.351,0,0,1-.08.109l-.209.262-.321.159q-.951.371-1.937.69t-2.04.584c-.675.144-1.374.283-2.1.424s-1.441.283-2.152.424c-.528.071-1.061.15-1.592.239s-1.058.15-1.592.186c-.528.071-1.052.115-1.565.133s-1.017.027-1.512.027l-2.119.056a24.084,24.084,0,0,1-3.531-.348,15.171,15.171,0,0,1-2.945-.822,4.119,4.119,0,0,1-1.987-1.539,4.319,4.319,0,0,1-.663-2.441,7.289,7.289,0,0,1,.1-1.194,11.364,11.364,0,0,1,.318-1.3q.265-.743.61-1.486a15.3,15.3,0,0,1,.875-1.592V20.56A19.694,19.694,0,0,1,59.575,18.2Zm3.5,3.555c.445-.056.875-.1,1.3-.136a5.218,5.218,0,0,1,.554-.08,4.657,4.657,0,0,0,.56-.08c.389-.068.766-.124,1.138-.159a8.418,8.418,0,0,0,1.035-.156c.318-.038.619-.083.9-.136s.545-.1.793-.133c.6-.1,1.1-.212,1.486-.318a3.207,3.207,0,0,0,.9-.371,1.055,1.055,0,0,0,.478-.478,1.812,1.812,0,0,0,.159-.8v-.1a.149.149,0,0,1,.05-.109v-.262a.147.147,0,0,1,.056-.109v-.159a2.612,2.612,0,0,0-.265-1.167,2.951,2.951,0,0,0-.8-.955,4.149,4.149,0,0,0-.822-.451,5.333,5.333,0,0,0-1.035-.292c-.139.035-.3.071-.478.106a5.06,5.06,0,0,0-.584.159,6.953,6.953,0,0,0-1.4.5,13.433,13.433,0,0,0-1.462.822,11.561,11.561,0,0,0-1.138.955q-.557.531-1.144,1.167a8.062,8.062,0,0,0-.952,1.3,8.726,8.726,0,0,0-.743,1.618C62.166,21.872,62.632,21.807,63.074,21.757Z" transform="translate(83.492 4.748)" fill="#fff"/>
        <path id="Pfad_6360" data-name="Pfad 6360" d="M65.885,14.719a.236.236,0,0,1-.027-.106.047.047,0,0,1-.053-.053v-.106l-.053-.318.159-.424a.462.462,0,0,1,.239-.133,1.765,1.765,0,0,1,.295-.027h2.385a.18.18,0,0,0,.133.053h.133a1.045,1.045,0,0,0,.265.083,1.785,1.785,0,0,1,.318.077,1.127,1.127,0,0,0,.186.08,1.455,1.455,0,0,1,.186.08.323.323,0,0,0,.159.08.4.4,0,0,1,.162.08c.068.035.13.074.183.106a.258.258,0,0,0,.133.053,1.736,1.736,0,0,1,.186.106,1.093,1.093,0,0,1,.133.106l.265.215.159.209a.426.426,0,0,1,.159.133,1.04,1.04,0,0,1,.106.239,2.2,2.2,0,0,1,.08.371,3.908,3.908,0,0,1,.027.478q0,.478-.053,1.035t-.159,1.194l-.106.64a4.14,4.14,0,0,0-.053.687c-.035.212-.071.433-.106.666s-.071.469-.106.713l-.053.106v.053a20.149,20.149,0,0,1,2.255-2.945,8.039,8.039,0,0,1,2.149-1.671A24.174,24.174,0,0,1,78.406,15.3a6.193,6.193,0,0,1,1.937-.424h2.921a1.929,1.929,0,0,1,1.377.557,4.076,4.076,0,0,1,.958,1.671q.367,1.114.687,2.334a25.819,25.819,0,0,1,.531,2.6V22.2a.212.212,0,0,0,.053.159.588.588,0,0,0,.027.186.588.588,0,0,1,.027.186v.159a.212.212,0,0,0,.053.159.576.576,0,0,0,.027.186.587.587,0,0,1,.027.186c.106.672.23,1.321.371,1.94s.283,1.191.424,1.721a5.314,5.314,0,0,0,.5,1.353,1.474,1.474,0,0,0,.663.663,1.577,1.577,0,0,1,.424.239.818.818,0,0,1,.212.239.546.546,0,0,1,.106.292.526.526,0,0,1-.053.239,1.282,1.282,0,0,1-.318.4,1.483,1.483,0,0,1-.531.292,1.339,1.339,0,0,1-.318.159,1.4,1.4,0,0,0-.318.159,1.711,1.711,0,0,0-.371.136,2.889,2.889,0,0,1-.318.13,3.956,3.956,0,0,1-.4.08,1.971,1.971,0,0,0-.345.08H86.63a.438.438,0,0,0-.186.053h-.265l-2.122.053a3.954,3.954,0,0,0-.4-.08.976.976,0,0,1-.292-.08.35.35,0,0,1-.212-.159.591.591,0,0,1-.053-.265c-.035-.248-.1-.545-.186-.9s-.186-.8-.292-1.326a6.239,6.239,0,0,0-.159-.822,6.631,6.631,0,0,1-.159-.769c-.071-.283-.133-.563-.186-.849s-.115-.563-.186-.849l-.106-.424c-.035-.139-.071-.283-.106-.424q-.053-.265-.106-.5c-.035-.159-.071-.307-.106-.451q-.159-.478-.292-.955t-.239-.955c-.071-.28-.141-.557-.212-.822s-.142-.5-.212-.716a5.679,5.679,0,0,0-.531-1.353,4.466,4.466,0,0,0-.687-.928A1.462,1.462,0,0,0,79.2,17.9a.744.744,0,0,1-.133-.106.55.55,0,0,1-.159-.106.7.7,0,0,0-.159-.106,2.3,2.3,0,0,1-.239.106.753.753,0,0,0-.239.159,6.194,6.194,0,0,0-.928.637,7.643,7.643,0,0,0-.875.852,16.087,16.087,0,0,0-1.512,1.881c-.478.693-.964,1.441-1.459,2.255q-.69,1.273-1.326,2.547a21.906,21.906,0,0,0-1.114,2.656,2.578,2.578,0,0,1-.133.315,2.428,2.428,0,0,0-.133.318.333.333,0,0,0-.08.133.436.436,0,0,0-.027.133c-.035.074-.062.124-.08.159a.384.384,0,0,0-.027.162.545.545,0,0,1-.159.183,1.742,1.742,0,0,0-.212.189.342.342,0,0,1-.133.077.362.362,0,0,1-.133.027h-2.6a1.584,1.584,0,0,1-.5-.08,3.613,3.613,0,0,1-.451-.186.771.771,0,0,1-.315-.265.634.634,0,0,1-.109-.371V26.9a8.315,8.315,0,0,1,.053-.926V23.739a2.22,2.22,0,0,1,.056-.475V21.855a2.809,2.809,0,0,1,.05-.554V19.68a2.573,2.573,0,0,1,.053-.5V17.107a2.573,2.573,0,0,1-.053-.5v-.451c-.035-.283-.062-.531-.08-.74a3.446,3.446,0,0,0-.08-.534v-.053A.371.371,0,0,1,65.885,14.719Z" transform="translate(102.703 4.222)" fill="#fff"/>
        <path id="Pfad_6361" data-name="Pfad 6361" d="M83.521,21.247a13.359,13.359,0,0,0-1.963-3.472,14.988,14.988,0,0,1-1.379-1.648,2.8,2.8,0,0,1-.531-1.058v-.321a.646.646,0,0,1,.133-.186.663.663,0,0,0,.133-.186h.318l.318-.053h2.706a8.8,8.8,0,0,1,1.963.186,3.263,3.263,0,0,1,1.273.56,3.685,3.685,0,0,1,.875,1.032,8.716,8.716,0,0,1,.716,1.565c.177.566.38,1.206.61,1.91s.469,1.521.716,2.441q.314,1.114.819,2.414c.339.867.737,1.816,1.2,2.839l.053-.053.053-.053a9.458,9.458,0,0,0,.743-.982q.371-.557.743-1.247.212-.318.4-.637c.124-.212.253-.442.4-.69.1-.212.221-.43.345-.663s.253-.469.4-.716q.637-1.22,1.22-2.361t1.114-2.149A9.9,9.9,0,0,1,97.9,16.154a1.138,1.138,0,0,1,.8-.5h2.122c.1-.071.265.062.475.4s.5.858.849,1.562.719,1.459,1.091,2.255.752,1.618,1.141,2.467v.109l.1.1q.535,1.167,1.038,2.281c.333.743.663,1.433.982,2.069q.265.584.5,1.008a4.748,4.748,0,0,0,.451.69,4.451,4.451,0,0,0,.663-.716q.345-.447.716-1.035.424-.743.8-1.456c.248-.48.478-.982.69-1.515a7.547,7.547,0,0,1,.239-.716c.085-.227.168-.466.239-.713s.15-.489.239-.719a3.641,3.641,0,0,0,.186-.663,4.19,4.19,0,0,0,.159-.637l.1-.637a1.661,1.661,0,0,1,.029-.318,1.91,1.91,0,0,0,.027-.318.591.591,0,0,0,.053-.265v-.318q0-.424-.027-.769c-.018-.23-.044-.469-.083-.716a2.286,2.286,0,0,1-.077-.345,2.077,2.077,0,0,1-.027-.345,2.012,2.012,0,0,1-.08-.318,2.518,2.518,0,0,0-.08-.318.909.909,0,0,1-.08-.239,1.269,1.269,0,0,1-.029-.292,1.032,1.032,0,0,1-.077-.239,1.334,1.334,0,0,0-.08-.239c-.035-.174-.065-.327-.083-.451a2.952,2.952,0,0,1-.024-.345v-.239a.505.505,0,0,1,.053-.236.677.677,0,0,1,.133-.189.663.663,0,0,1,.186-.133h2.122a6.155,6.155,0,0,1,1.724.61,2.963,2.963,0,0,1,1.085.982,3.82,3.82,0,0,1,.61,1.273,5.488,5.488,0,0,1,.189,1.433v.371a.486.486,0,0,0-.056.212v.212c-.032.144-.059.274-.077.4a2.436,2.436,0,0,0-.027.4q-.159.637-.345,1.22a11.171,11.171,0,0,1-.451,1.167,4.9,4.9,0,0,1-.239.584c-.091.18-.168.354-.239.531q-.164.265-.292.478a4.771,4.771,0,0,0-.239.424,3.58,3.58,0,0,1-.212.292,2.49,2.49,0,0,1-.215.239l-.371.427c-.139.209-.289.439-.448.687s-.327.513-.5.8q-.265.371-.584.769c-.212.265-.427.539-.637.822a7.288,7.288,0,0,1-.557.69q-.292.318-.557.637c-.177.212-.363.424-.557.64s-.38.4-.557.581a11.923,11.923,0,0,1-1.035.928,7.581,7.581,0,0,1-.982.663,4.494,4.494,0,0,1-.9.478,2.286,2.286,0,0,1-.8.159l-2.122.053h-.265a1.949,1.949,0,0,1-.557-.584,9.119,9.119,0,0,1-.769-1.326q-.424-.9-.9-1.884t-.955-2.043l-.106-.212c-.035-.071-.074-.139-.106-.212a1.037,1.037,0,0,1-.08-.212,1.242,1.242,0,0,0-.08-.212c-.318-.6-.619-1.185-.9-1.751s-.566-1.1-.849-1.592a.207.207,0,0,0-.029-.106.3.3,0,0,0-.077-.1.085.085,0,0,1-.08-.056.226.226,0,0,1-.027-.106c-.074.141-.159.31-.265.5s-.212.383-.318.557c-.354.569-.71,1.15-1.061,1.751s-.725,1.22-1.114,1.857q-.106.217-.212.4c-.071.127-.141.239-.212.345-.074.144-.141.277-.212.4s-.141.236-.212.342q-.637,1.008-1.194,1.83t-1.141,1.565a4.869,4.869,0,0,1-1.011.955,1.23,1.23,0,0,1-.849.265l-2.119.053c-.106-.141-.215-.292-.318-.451s-.212-.327-.318-.5-.212-.363-.321-.557a3.345,3.345,0,0,1-.262-.663,1.556,1.556,0,0,0-.133-.212.859.859,0,0,1-.133-.265,2.053,2.053,0,0,1-.106-.239c-.035-.088-.074-.186-.106-.292l-.106-.212a.586.586,0,0,1-.053-.262c-.035-.074-.074-.141-.106-.215s-.074-.141-.106-.212-.071-.141-.109-.212a2.67,2.67,0,0,1-.1-.265l-.106-.212c-.038-.071-.071-.139-.106-.212v-.053A59.711,59.711,0,0,0,83.521,21.247Z" transform="translate(129.767 3.451)" fill="#fff"/>
        <path id="Pfad_6362" data-name="Pfad 6362" d="M94.013,21.3l-.056-.053v-.106l.162-.424a.558.558,0,0,1,.183-.133.805.805,0,0,1,.239-.027h2.122a3.043,3.043,0,0,1,.371.027,1.4,1.4,0,0,1,.427.133,1.763,1.763,0,0,1,.5.186c.156.091.307.168.451.239a.4.4,0,0,0,.1.08.2.2,0,0,0,.106.027.084.084,0,0,0,.056.08.19.19,0,0,0,.106.027.405.405,0,0,0,.1.08.245.245,0,0,0,.106.027.474.474,0,0,0,.106.08.435.435,0,0,1,.106.08.551.551,0,0,1,.159.109.232.232,0,0,0,.162.05.634.634,0,0,0,.133.106c.05.035.094.074.133.106a1.441,1.441,0,0,1,.289.133,1.149,1.149,0,0,1,.239.186c.074.038.115.124.133.265s.044.318.083.531v.318a1.7,1.7,0,0,0,.05.371v1.963a4.221,4.221,0,0,0-.05.64v.634c-.038.463-.065.911-.083,1.353s-.024.911-.024,1.406l-.053.265v.265q-.057.637-.08,1.273t-.027,1.273c-.038.424-.056.831-.056,1.22V36.37a4.534,4.534,0,0,0,.027.5,4.042,4.042,0,0,0,.08.454v.156l.056.215v.209l.053.212v.212l-.159.318a1.647,1.647,0,0,1-.162.133,1.37,1.37,0,0,1-.209.133l-.162.106-.106.053h-2.6l-.209-.053a1.348,1.348,0,0,0-.427-.133.877.877,0,0,1-.371-.133,1.434,1.434,0,0,1-.183-.106.337.337,0,0,0-.189-.053l-.106-.106-.106-.106-.159-.106-.05-.159a1.88,1.88,0,0,1-.08-.478q-.027-.318-.027-.8V29.9q-.057-1.539-.106-2.918t-.159-2.653a10.571,10.571,0,0,0-.321-1.99,1.373,1.373,0,0,0-.528-.875V21.3ZM97.09,9.789H94.965l.162-.053h2.491a3.174,3.174,0,0,1,.56.053,2.918,2.918,0,0,1,.554.159c.177.071.339.141.478.212s.283.144.424.212a3.2,3.2,0,0,1,.371.212.581.581,0,0,1,.212.215l.106.209V16l-.212.159a.242.242,0,0,1-.183.056H97.14a1.073,1.073,0,0,1-.239-.029.988.988,0,0,1-.239-.08c-.174-.071-.345-.139-.5-.212a4.444,4.444,0,0,1-.5-.265,1.022,1.022,0,0,1-.318-.4,1.156,1.156,0,0,1-.1-.451l-.371-5.04h2.122Z" transform="translate(157.635 -3.21)" fill="#fff"/>
        <path id="Pfad_6363" data-name="Pfad 6363" d="M101.478,18.2a9.6,9.6,0,0,1,1.724-1.568q.849-.584,1.433-.928c.386-.227.69-.4.9-.5a1.079,1.079,0,0,0,.209-.133.99.99,0,0,1,.268-.133c.071-.035.133-.059.186-.08a1.658,1.658,0,0,0,.186-.08,1.34,1.34,0,0,0,.265-.024c.071-.021.159-.047.265-.083a8.273,8.273,0,0,1,.982-.292c.371-.088.769-.168,1.194-.236s.867-.136,1.323-.189.923-.1,1.382-.133h2.812a10.161,10.161,0,0,1,1.827.159,7.529,7.529,0,0,1,1.621.478,2.906,2.906,0,0,1,1.191.9,2.58,2.58,0,0,1,.5,1.489c0,.315.009.6.029.846s.044.478.08.69c.071.212.13.4.186.557a1.8,1.8,0,0,0,.183.4,1.123,1.123,0,0,1,.083.212.889.889,0,0,0,.08.212.362.362,0,0,0,.027.133.366.366,0,0,0,.077.133.478.478,0,0,1,.136.212.874.874,0,0,1,.027.212l-.106.265a1.554,1.554,0,0,1-.159.133,1.742,1.742,0,0,0-.212.186c-.248.035-.646.109-1.194.212s-1.229.23-2.043.371c-.392.071-.8.141-1.22.212l-1.273.212c-.424.106-.858.2-1.3.265s-.9.141-1.353.212c-.887.141-1.76.283-2.626.424s-1.71.286-2.52.424c-.781.141-1.433.256-1.963.348s-.937.165-1.22.236a8.8,8.8,0,0,0,.955,2.47,5.956,5.956,0,0,0,1.645,1.828,5.627,5.627,0,0,0,1.937.982,11.609,11.609,0,0,0,2.573.451c.424-.035.867-.08,1.323-.133s.94-.115,1.435-.183a20.155,20.155,0,0,0,2.228-.48q1.163-.318,2.494-.74c.389-.074.752-.141,1.085-.215s.628-.124.878-.156a4.588,4.588,0,0,1,.713-.136c.2-.018.363-.027.507-.027h2.122a3.747,3.747,0,0,1,.5.027.29.29,0,0,1,.239.136.413.413,0,0,0,.053.156.226.226,0,0,1-.027.106.424.424,0,0,1-.083.109l-.209.262-.318.159q-.955.371-1.94.69c-.651.212-1.335.407-2.04.584-.672.144-1.374.283-2.1.424s-1.441.283-2.149.424c-.531.071-1.064.15-1.592.239s-1.061.15-1.592.186c-.531.071-1.055.115-1.568.133s-1.014.027-1.509.027l-2.122.056a24,24,0,0,1-3.528-.348,15.055,15.055,0,0,1-2.945-.822,4.113,4.113,0,0,1-1.99-1.539,4.319,4.319,0,0,1-.663-2.441,7.289,7.289,0,0,1,.1-1.194,11.4,11.4,0,0,1,.321-1.3c.174-.5.38-.99.61-1.486a14.762,14.762,0,0,1,.875-1.592V20.56A19.693,19.693,0,0,1,101.478,18.2Zm3.5,3.555c.442-.056.875-.1,1.3-.136a5.276,5.276,0,0,1,.557-.08,4.693,4.693,0,0,0,.557-.08c.389-.068.769-.124,1.141-.159a8.367,8.367,0,0,0,1.032-.156c.321-.038.619-.083.9-.136s.548-.1.8-.133c.6-.1,1.1-.212,1.483-.318a3.17,3.17,0,0,0,.9-.371,1.055,1.055,0,0,0,.478-.478,1.812,1.812,0,0,0,.159-.8v-.1a.162.162,0,0,1,.05-.109v-.262a.147.147,0,0,1,.056-.109v-.159a2.573,2.573,0,0,0-.265-1.167,2.9,2.9,0,0,0-.8-.955,4.174,4.174,0,0,0-.825-.451,5.242,5.242,0,0,0-1.032-.292c-.141.035-.3.071-.477.106a5.1,5.1,0,0,0-.587.159,6.953,6.953,0,0,0-1.4.5,13.684,13.684,0,0,0-1.459.822,11.256,11.256,0,0,0-1.141.955q-.557.531-1.144,1.167a8.241,8.241,0,0,0-.952,1.3,8.724,8.724,0,0,0-.743,1.618C104.069,21.872,104.535,21.807,104.98,21.757Z" transform="translate(165.102 4.748)" fill="#fff"/>
        <path id="Pfad_6364" data-name="Pfad 6364" d="M113.092,21.3l-.056-.053v-.106l.162-.424a.535.535,0,0,1,.186-.133.779.779,0,0,1,.239-.027h2.119a3.044,3.044,0,0,1,.371.027,1.4,1.4,0,0,1,.427.133,1.763,1.763,0,0,1,.5.186c.156.091.307.168.451.239a.4.4,0,0,0,.1.08.21.21,0,0,0,.106.027.084.084,0,0,0,.056.08.2.2,0,0,0,.106.027.405.405,0,0,0,.1.08.255.255,0,0,0,.106.027.474.474,0,0,0,.106.08.511.511,0,0,1,.109.08.532.532,0,0,1,.156.109.237.237,0,0,0,.162.05.634.634,0,0,0,.133.106c.05.035.094.074.133.106a1.44,1.44,0,0,1,.289.133,1.149,1.149,0,0,1,.239.186.308.308,0,0,1,.133.265c.018.144.044.318.083.531v.318a1.7,1.7,0,0,0,.05.371v1.963a4.223,4.223,0,0,0-.05.64v.634c-.038.463-.065.911-.083,1.353s-.024.911-.024,1.406l-.053.265v.265c-.038.424-.062.849-.08,1.273s-.027.849-.027,1.273c-.038.424-.056.831-.056,1.22V36.37a4.53,4.53,0,0,0,.027.5,4.033,4.033,0,0,0,.08.454v.156l.056.215v.209l.053.212v.212l-.159.318a1.649,1.649,0,0,1-.162.133,1.371,1.371,0,0,1-.209.133l-.162.106-.106.053h-2.6l-.209-.053a1.349,1.349,0,0,0-.427-.133.877.877,0,0,1-.371-.133,1.673,1.673,0,0,1-.183-.106.334.334,0,0,0-.186-.053l-.109-.106-.106-.106-.156-.106-.053-.159a1.88,1.88,0,0,1-.08-.478q-.027-.318-.027-.8V29.9q-.057-1.539-.106-2.918t-.159-2.653a10.608,10.608,0,0,0-.318-1.99,1.386,1.386,0,0,0-.531-.875V21.3Zm3.077-11.513h-2.125l.162-.053H116.7a3.142,3.142,0,0,1,.557.053,2.917,2.917,0,0,1,.554.159c.177.071.339.141.48.212s.28.144.421.212a3.2,3.2,0,0,1,.371.212.581.581,0,0,1,.212.215l.106.209V16l-.212.159a.238.238,0,0,1-.183.056h-2.788a1.073,1.073,0,0,1-.239-.029.988.988,0,0,1-.239-.08c-.174-.071-.345-.139-.5-.212a4.186,4.186,0,0,1-.5-.265,1.029,1.029,0,0,1-.321-.4,1.157,1.157,0,0,1-.1-.451l-.371-5.04h2.122Z" transform="translate(194.793 -3.21)" fill="#fff"/>
        <path id="Pfad_6365" data-name="Pfad 6365" d="M117.663,26.509q.106-1.512.159-2.785c.032-.814.059-1.562.08-2.255s.027-1.318.027-1.884V18.524a1.739,1.739,0,0,1-.053-.422v-1.17a.929.929,0,0,1-.053-.292v-.292c-.035-.177-.062-.345-.083-.5s-.024-.309-.024-.451V14.386a.99.99,0,0,1,.024-.209,1.29,1.29,0,0,1,.083-.215.588.588,0,0,0,.186-.027.67.67,0,0,1,.186-.027.209.209,0,0,1,.156-.053h.348a.19.19,0,0,0,.133-.05h2.441a3.531,3.531,0,0,1,1.114.156,1.348,1.348,0,0,1,.743.587,2.636,2.636,0,0,1,.4.872,4.523,4.523,0,0,1,.133,1.141,8.725,8.725,0,0,1-.106,1.326c-.071.463-.162.958-.265,1.486-.035.18-.071.354-.106.531s-.071.354-.106.534a2.921,2.921,0,0,0-.159.528l-.106.531.106-.106c.035-.035.071-.071.1-.106s.074-.071.109-.1.071-.074.106-.109c.106-.139.221-.283.345-.424s.256-.283.4-.424a1.992,1.992,0,0,0,.186-.212c.053-.068.112-.159.186-.265a.767.767,0,0,1,.159-.212l.212-.212q.208-.212.424-.424l.424-.422a2.626,2.626,0,0,1,.371-.4c.141-.124.28-.256.424-.4q.424-.371.769-.69a3.941,3.941,0,0,1,.716-.531c.389-.212.743-.407,1.058-.584s.6-.318.852-.424a6.17,6.17,0,0,1,.769-.239,3.106,3.106,0,0,1,.663-.08h2.122a1.81,1.81,0,0,1,1.114.318,1.953,1.953,0,0,1,.637,1.064,9.476,9.476,0,0,1,.318,1.592,17.307,17.307,0,0,1,.106,2.013v.637a1.559,1.559,0,0,0-.053.371v.743q.265-.371.5-.716c.159-.227.327-.466.5-.713a7.675,7.675,0,0,0,.584-.666q.265-.345.584-.716.637-.743,1.273-1.433a11.054,11.054,0,0,1,1.323-1.22q.535-.424,1.064-.769a11.5,11.5,0,0,1,1.061-.61,5.568,5.568,0,0,1,1.008-.4,3.675,3.675,0,0,1,.955-.133h2.122a2.455,2.455,0,0,1,1.008.212,3.009,3.009,0,0,1,.9.637,3.784,3.784,0,0,1,.743,1.141,8.858,8.858,0,0,1,.531,1.671,4.1,4.1,0,0,1,.186.8c.053.354.1.778.13,1.273q.111.8.239,1.592c.091.531.189,1.082.295,1.645q.159,1.008.4,1.963c.159.637.307,1.256.451,1.857a4.9,4.9,0,0,0,.557,1.273.817.817,0,0,0,.663.424l.159.08a.227.227,0,0,0,.106.027.433.433,0,0,0,.106.083.343.343,0,0,1,.106.077.642.642,0,0,1,.106.162.142.142,0,0,1,.053.1v.212a.049.049,0,0,1-.053.056.234.234,0,0,1-.027.1.236.236,0,0,0-.027.106l-.212.318a3.714,3.714,0,0,0-.371.292q-.212.186-.478.4-.265.159-.557.318a5.854,5.854,0,0,1-.557.265,2.093,2.093,0,0,1-.318.08,1.809,1.809,0,0,0-.318.083,2.426,2.426,0,0,1-.321.077,1.6,1.6,0,0,1-.262.027l-2.122.053a.93.93,0,0,0-.292-.053.527.527,0,0,1-.239-.053.476.476,0,0,1-.239-.159,1.393,1.393,0,0,1-.133-.212c-.038-.177-.08-.354-.133-.531s-.115-.354-.186-.531c-.035-.177-.083-.351-.133-.531s-.115-.354-.186-.531q-.159-.579-.292-1.167c-.091-.389-.168-.778-.239-1.167a2.453,2.453,0,0,1-.08-.292,1.469,1.469,0,0,1-.027-.292.943.943,0,0,1-.08-.265,2.515,2.515,0,0,0-.08-.318,1.831,1.831,0,0,1-.08-.315,2,2,0,0,1-.027-.321.943.943,0,0,1-.08-.265,1.932,1.932,0,0,1-.027-.318c-.109-.457-.212-.9-.318-1.326s-.212-.831-.318-1.22q-.212-.584-.371-1.141t-.318-1.088q-.212-.584-.424-1.035a2.611,2.611,0,0,0-.478-.716l-.053.056a8.617,8.617,0,0,0-2.812,2.438c-.46.566-.9,1.167-1.326,1.8s-.831,1.273-1.22,1.91c-.354.637-.684,1.247-.982,1.833s-.578,1.155-.825,1.724-.457,1.041-.634,1.43a7.4,7.4,0,0,0-.371.955l-.215.212-.315.053h-2.122a.216.216,0,0,0-.159-.053.154.154,0,0,0-.109-.053H131.4c-.038,0-.053-.018-.053-.053a.257.257,0,0,1-.109-.027.215.215,0,0,0-.1-.027,2.774,2.774,0,0,1-.451-.159,1.493,1.493,0,0,1-.451-.315,1.17,1.17,0,0,1-.292-.454,1.414,1.414,0,0,1-.08-.451v-.106l.053-.159c.141-.811.265-1.583.371-2.308s.195-1.388.265-1.99.124-1.15.159-1.645.053-.955.053-1.379a8.281,8.281,0,0,0-.106-1.406,3.045,3.045,0,0,0-.318-.982.835.835,0,0,0-.212-.318.9.9,0,0,0-.318-.212h-.053a5.844,5.844,0,0,0-1.486.955,12.411,12.411,0,0,0-1.486,1.539c-.5.637-.973,1.294-1.435,1.963s-.881,1.362-1.27,2.069c-.248.463-.5.92-.743,1.379s-.478.9-.693,1.326-.4.825-.581,1.2-.336.713-.477,1.032a.367.367,0,0,1-.106.265.36.36,0,0,1-.265.106,1.342,1.342,0,0,1-.4.133,2.879,2.879,0,0,1-.4.027l-2.122.053a3.954,3.954,0,0,0-.4-.08.825.825,0,0,1-.345-.133c-.106,0-.168-.035-.189-.106a.522.522,0,0,1,.029-.265v-.05Q117.557,28.02,117.663,26.509Z" transform="translate(203.217 4.715)" fill="#fff"/>
        <path id="Pfad_6366" data-name="Pfad 6366" d="M142.921,23.578a1.293,1.293,0,0,0-.027.292,1.733,1.733,0,0,0-.08.345,4.017,4.017,0,0,1-.083.4c-.032.141-.059.274-.077.4a2.426,2.426,0,0,0-.029.4,3.68,3.68,0,0,0-.077.424c-.021.141-.047.3-.083.478-.032.141-.059.274-.077.4a2.426,2.426,0,0,0-.029.4c-.032.141-.059.277-.077.4a2.13,2.13,0,0,0-.029.345c-.068.534-.133,1.043-.183,1.539s-.115.99-.189,1.486c-.032.46-.068.831-.1,1.114a4.9,4.9,0,0,0-.053.584,6.884,6.884,0,0,0,.584,2.281,7.055,7.055,0,0,0,1.326,1.963,6.028,6.028,0,0,0,1.43,1.144,5.45,5.45,0,0,0,1.7.61c.035-.038.062-.056.083-.056h.077c.248-.068.5-.141.743-.212a3.439,3.439,0,0,0,.746-.318,13.1,13.1,0,0,0,2.892-1.91,17.771,17.771,0,0,0,2.52-2.706,37.033,37.033,0,0,0,2.255-3.183q1.035-1.64,1.987-3.343.425-.743.769-1.459c.23-.478.469-.943.716-1.406q.371-.743.719-1.406t.66-1.3a4.438,4.438,0,0,0,.451-.982c.124-.371.242-.787.348-1.244s.2-.931.289-1.409.171-.946.239-1.406c.074-.531.15-1.052.239-1.565s.15-1.017.189-1.509c.068-.5.133-.94.183-1.329s.1-.725.133-1.005h2.6a4.529,4.529,0,0,1,2.228.475,2.74,2.74,0,0,1,1.22,1.433,15.106,15.106,0,0,1,.5,1.99,17.3,17.3,0,0,1,.239,2.2V17.4a.5.5,0,0,0-.056.239v1.512a.518.518,0,0,0-.05.212v2.069a.625.625,0,0,0,.05.265c.074.743.15,1.459.239,2.149s.15,1.371.189,2.043c.068.672.133,1.309.183,1.91s.1,1.2.133,1.807c.109,1.624.256,3.11.454,4.454s.413,2.529.66,3.555a5.977,5.977,0,0,0,1.3,2.441,4.28,4.28,0,0,0,2.252,1.273.226.226,0,0,1,0,.212.341.341,0,0,1-.156.159,3.759,3.759,0,0,0-.321.239c-.1.085-.23.186-.371.292l-.209.106c-.071.035-.144.071-.212.106a.483.483,0,0,0-.215.053c-.071.035-.139.071-.212.106l-.422.212c-.141.071-.286.141-.424.212-.251.071-.507.15-.772.239l-.716.239c-.248.071-.448.124-.61.159a1.827,1.827,0,0,1-.342.053l-.106.106h-2.228q-.478-.053-.875-.769a8.113,8.113,0,0,1-.716-2.1c-.212-.955-.41-1.972-.584-3.051s-.354-2.22-.531-3.422c-.038-.248-.071-.5-.106-.743a5.213,5.213,0,0,1-.056-.8q-.049-.371-.106-.743l-.1-.743c-.038-.248-.071-.486-.106-.716a4.356,4.356,0,0,1-.056-.716c-.032-.212-.068-.43-.106-.66s-.068-.454-.1-.666v-.159a.142.142,0,0,1-.056-.106v-.318c-.032,0-.05-.018-.05-.053v-.106a1.6,1.6,0,0,1-.106-.265,1.094,1.094,0,0,1-.056-.371,3.874,3.874,0,0,1-.077-.451,3.943,3.943,0,0,1-.027-.5,4.933,4.933,0,0,1-.08-.5c-.018-.159-.047-.324-.083-.5s-.059-.363-.077-.557a5.794,5.794,0,0,1-.029-.61.872.872,0,0,0-.027-.212,1.017,1.017,0,0,1-.024-.212.99.99,0,0,1-.083-.212.86.86,0,0,1-.024-.209.965.965,0,0,0-.083.209.966.966,0,0,1-.077.212.952.952,0,0,0-.083.212.78.78,0,0,1-.08.212q-.371,1.008-.846,1.99c-.318.654-.657,1.338-1.011,2.043a42.035,42.035,0,0,1-2.119,3.74,43.434,43.434,0,0,1-2.55,3.581,19.365,19.365,0,0,1-3.048,3.1,17.7,17.7,0,0,1-3.584,2.258c-.141.068-.28.13-.422.183a3.856,3.856,0,0,0-.427.189,2.331,2.331,0,0,0-.4.13c-.124.053-.253.118-.395.186-.286.038-.569.08-.849.133s-.569.1-.852.133a3.624,3.624,0,0,1-.766.133c-.265.018-.542.027-.825.027l-2.119.053a9.662,9.662,0,0,1-2.308-.371,5.958,5.958,0,0,1-1.99-1.008,4.474,4.474,0,0,1-1.459-1.777,7.243,7.243,0,0,1-.61-2.573,5,5,0,0,1-.053-.713V33.473q0-1.7.053-3.183c.032-.99.106-1.907.212-2.759s.212-1.636.315-2.361.215-1.406.321-2.043q.1-.637.239-1.194l.239-1.035c.068-.318.141-.619.212-.9s.124-.548.159-.8q.212-.9.371-1.7a13.127,13.127,0,0,0,.212-1.486c.068-.5.124-.946.159-1.353s.05-.784.05-1.141q0-.579-.026-1.061a3.723,3.723,0,0,0-.13-.849,4.008,4.008,0,0,1-.083-.4,2.449,2.449,0,0,1-.027-.345,2.483,2.483,0,0,1-.077-.318c-.021-.1-.047-.212-.08-.318-.106-.389-.189-.7-.239-.928a2.393,2.393,0,0,0-.189-.557.351.351,0,0,1,.136-.371,2.158,2.158,0,0,1,.557-.318l.262-.053.321-.106h2.122a13.261,13.261,0,0,1,1.987.5,4.032,4.032,0,0,1,1.3.716,2.319,2.319,0,0,1,.716.982,3.684,3.684,0,0,1,.239,1.353,9.888,9.888,0,0,1-.239,1.99c-.162.76-.38,1.618-.666,2.573q-.473,1.433-.982,3.29c-.336,1.238-.7,2.6-1.088,4.085h-2.122v-.05H143A.887.887,0,0,0,142.921,23.578Z" transform="translate(240.752 -6.786)" fill="#fff"/>
        <path id="Pfad_6367" data-name="Pfad 6367" d="M150.93,28.711c.018-.439.041-.893.08-1.353v-.663a4.033,4.033,0,0,1,.053-.663V23.644a2.816,2.816,0,0,1-.053-.557V21.522a1.821,1.821,0,0,1-.053-.478v-.478c-.035-.28-.062-.566-.08-.849s-.027-.545-.027-.8V17.543c0-.318.006-.6.027-.849a3.528,3.528,0,0,1,.08-.581,1.494,1.494,0,0,1,.212-.4.383.383,0,0,1,.318-.133h.371l.159-.053h2.494a5.18,5.18,0,0,1,1.114.106,1.176,1.176,0,0,1,.69.371,1.285,1.285,0,0,1,.4.61,2.754,2.754,0,0,1,.133.875,7.345,7.345,0,0,1-.08,1.035c-.053.371-.115.772-.186,1.194-.074.354-.15.743-.239,1.167s-.168.87-.239,1.326q.637-.8,1.25-1.539T158.49,19.3a12.014,12.014,0,0,0,.955-1.17c.245-.354.442-.654.584-.9l-.053-.159v-.212a1.932,1.932,0,0,1,.027-.318q.026-.159.08-.371.053-.159.133-.371a4.082,4.082,0,0,0,.133-.422,2.925,2.925,0,0,1,.424-.772c.177-.23.371-.466.584-.716a3.285,3.285,0,0,1,.637-.5,1.254,1.254,0,0,1,.637-.186h2.228a.153.153,0,0,1,.106.053.362.362,0,0,0,.159.053.235.235,0,0,1,.106.027.238.238,0,0,0,.109.027.08.08,0,0,0,.05.08.236.236,0,0,0,.106.027,18.606,18.606,0,0,0,.318,2.334,9.1,9.1,0,0,0,.478,1.645,5.662,5.662,0,0,0,.584,1.088,3.819,3.819,0,0,0,.637.716,2.789,2.789,0,0,0,.424.265,2.278,2.278,0,0,0,.424.162c.141.032.274.059.4.077a2.075,2.075,0,0,0,.345.027h.212a.153.153,0,0,0,.106.053h.106a.252.252,0,0,1,.133.133.588.588,0,0,1,.027.186,1.414,1.414,0,0,1-.318.478,1.3,1.3,0,0,1-.531.318,2.159,2.159,0,0,1-.637.212,4.571,4.571,0,0,1-.743.053H164.7a1,1,0,0,1-.318-.053c-.106-.032-.212-.071-.318-.106a5.181,5.181,0,0,1-1.194-.345,9.011,9.011,0,0,1-1.088-.557l-.053-.053a.155.155,0,0,1-.106-.05v.05a.047.047,0,0,0-.053.053c-.071.106-.153.221-.239.345s-.168.239-.239.345q-.159.212-.292.371a3.736,3.736,0,0,0-.239.318q-.106.164-.239.345c-.088.127-.168.239-.239.345-.106.144-.2.265-.292.371a3.731,3.731,0,0,0-.239.318q-.637.9-1.22,1.857t-1.167,2.016a13.626,13.626,0,0,0-1.008,2.175,17.8,17.8,0,0,0-.69,2.441h-.159l-.159.053-.212.053h-2.281q-.424-.053-.8-.106a1.65,1.65,0,0,1-.69-.265.933.933,0,0,1-.4-.451.6.6,0,0,1,.08-.5v-.053Q150.9,29.374,150.93,28.711Z" transform="translate(268.235 3.521)" fill="#fff"/>
        <path id="Pfad_6368" data-name="Pfad 6368" d="M158.581,20.733c0-1.132-.012-2.166-.029-3.1s-.041-1.76-.077-2.467-.074-1.344-.106-1.91-.074-1.061-.106-1.486-.083-.787-.133-1.088-.1-.557-.133-.769a4.963,4.963,0,0,1-.083-.5c-.015-.159-.024-.307-.024-.451a.526.526,0,0,1-.053-.239.929.929,0,0,1,.053-.292c.032-.068.08-.159.133-.265a2.011,2.011,0,0,0,.133-.371.357.357,0,0,1,.13-.08,1.475,1.475,0,0,0,.189-.08,1.031,1.031,0,0,1,.239-.08,1.206,1.206,0,0,1,.239-.027h2.388a.428.428,0,0,0,.186.053h.133a1.766,1.766,0,0,0,.315.08.811.811,0,0,1,.321.133c.248.106.477.212.687.318a3.482,3.482,0,0,1,.64.424,2.821,2.821,0,0,1,.531.451,1.076,1.076,0,0,1,.265.5v.08c0,.021.015.044.053.08V10.6c0,.5-.012,1.114-.029,1.857s-.059,1.609-.133,2.6c-.032.5-.059,1.008-.077,1.539s-.03,1.061-.03,1.595c-.032.563-.059,1.129-.077,1.695s-.047,1.15-.08,1.751c-.035.389-.065.787-.083,1.194s-.027.8-.027,1.194c-.032.427-.059.84-.077,1.247s-.029.8-.029,1.194q-.049,1.273-.106,2.547c-.035.849-.05,1.68-.05,2.494q-.053,1.22-.053,2.361v2.2q0,1.172.027,2.228c.018.707.041,1.362.077,1.963s.083,1.114.136,1.539a6.606,6.606,0,0,0,.186,1.008.34.34,0,0,1-.083.212.518.518,0,0,1-.183.159.485.485,0,0,1-.265.133,1.943,1.943,0,0,1-.321.027l-2.119.053a.221.221,0,0,0-.159-.053.158.158,0,0,0-.106-.053h-.318a.159.159,0,0,0-.109-.053h-.106a3.952,3.952,0,0,0-.4-.08,1.386,1.386,0,0,1-.395-.133,1.474,1.474,0,0,0-.189-.08.569.569,0,0,0-.183-.027.355.355,0,0,0-.133-.08.314.314,0,0,1-.133-.08l-.265-.159v-.159c-.038-.212-.071-.442-.106-.69a4.818,4.818,0,0,1-.056-.743,7.239,7.239,0,0,1-.05-.822V37.923q0-.371.026-.743t.08-.743v-.955a1.9,1.9,0,0,1,.05-.424v-1.27a2.293,2.293,0,0,1,.056-.48V20.733Z" transform="translate(282.049 -7.522)" fill="#fff"/>
        <path id="Pfad_6369" data-name="Pfad 6369" d="M183.272,16.066q.026,0,.08-.053h.106a.588.588,0,0,0,.186-.027,1.457,1.457,0,0,0,.186-.08.323.323,0,0,1,.159-.08.325.325,0,0,0,.159-.08h2.122l.053.318v.106a.407.407,0,0,0,.053.159V16.6q.053.478.106,1.141t.106,1.459c.035.566.08,1.126.133,1.671s.115,1.123.186,1.724q.106,1.326.318,2.52a20.069,20.069,0,0,0,.531,2.255,3.958,3.958,0,0,0,.716,1.645,1.289,1.289,0,0,0,.982.534h.159a.73.73,0,0,1,.239.236.239.239,0,0,1,.027.239.637.637,0,0,1-.186.212q-.133.106-.292.212t-.345.212a3.654,3.654,0,0,1-.451.212c-.074.035-.142.071-.212.106l-.212.106a2.061,2.061,0,0,0-.265.106l-.212.106a2.453,2.453,0,0,1-.292.08.947.947,0,0,0-.239.08,1.49,1.49,0,0,0-.292.027.947.947,0,0,0-.239.08,1.31,1.31,0,0,1-.424.133,3.085,3.085,0,0,1-.371.027l-2.122.053-.318-.053-.106-.106a2.929,2.929,0,0,1-.265-.584q-.106-.318-.212-.69c-.035-.248-.08-.513-.133-.793s-.115-.587-.189-.9l-.05-.106v-.159q-.053-.318-.106-.61a2.853,2.853,0,0,0-.159-.554,8.3,8.3,0,0,1-.955.713,11.935,11.935,0,0,1-1.167.663,19.5,19.5,0,0,1-2.706,1.061,24.457,24.457,0,0,1-2.812.69c-.392.035-.778.08-1.167.133s-.778.1-1.167.133c-.354.035-.716.059-1.088.08s-.734.027-1.088.027l-2.122.053q-.531-.053-1.008-.08c-.318-.021-.619-.044-.9-.08s-.557-.077-.822-.133-.5-.1-.716-.133a4.99,4.99,0,0,1-1.353-.663,3.106,3.106,0,0,1-.875-.928,3.029,3.029,0,0,1-.531-1.035,4.327,4.327,0,0,1-.159-1.194,6.137,6.137,0,0,1,.077-.955,9,9,0,0,1,.242-1.008c.106-.318.23-.651.371-1.008a7.124,7.124,0,0,1,.531-1.061,16.945,16.945,0,0,1,1.8-2.414,27.879,27.879,0,0,1,2.388-2.361,26.534,26.534,0,0,1,2.759-1.963,15.23,15.23,0,0,1,2.865-1.379q.424-.159.875-.292a5.473,5.473,0,0,1,.875-.186,5.017,5.017,0,0,1,.875-.133c.3-.018.592-.027.875-.027H178.2a6.377,6.377,0,0,1,1.436.159,8.007,8.007,0,0,1,1.326.427,5.781,5.781,0,0,1,1.167.713,6.517,6.517,0,0,1,1.061,1.035Zm-2.016,7.773a1.773,1.773,0,0,0,.027-.345v-.186a.427.427,0,0,1,.053-.186v-.371q0-.318-.027-.69c-.021-.248-.044-.492-.08-.74s-.062-.5-.08-.743-.044-.5-.08-.746a3.163,3.163,0,0,1-.08-.4,3.954,3.954,0,0,0-.08-.4,1.968,1.968,0,0,1-.08-.345,2.817,2.817,0,0,1-.027-.4,9.107,9.107,0,0,0-1.114-1.3,4.679,4.679,0,0,0-1.273-.875q-.478-.212-.955-.371a4.714,4.714,0,0,0-.9-.212,5.7,5.7,0,0,0-1.22.239q-.584.19-1.167.4-.849.371-1.512.743a12.5,12.5,0,0,0-1.247.8l-.318.318-.318.265a9.019,9.019,0,0,0-.982,1.167,10.211,10.211,0,0,0-.822,1.379,8.33,8.33,0,0,0-.584,1.512,11.634,11.634,0,0,0-.318,1.512.48.48,0,0,0-.053.212v1.088a2.55,2.55,0,0,0,.053.5c.035.141.068.292.106.451s.071.327.106.5a3.945,3.945,0,0,0,.69,1.114,3.293,3.293,0,0,0,1.114.8,5.641,5.641,0,0,0,1.008.345,6.958,6.958,0,0,0,1.061.186h.318a.373.373,0,0,0,.133-.027.436.436,0,0,1,.133-.027q.424-.106.9-.212a9.615,9.615,0,0,0,.955-.265,11.844,11.844,0,0,0,1.83-.716,18.644,18.644,0,0,0,1.774-.982,11.7,11.7,0,0,0,1.621-1.247,13.344,13.344,0,0,0,1.353-1.459v-.053A.91.91,0,0,0,181.256,23.839Z" transform="translate(289.268 4.573)" fill="#fff"/>
        <path id="Pfad_6370" data-name="Pfad 6370" d="M172.8,20.4a3.067,3.067,0,0,1,.08-.424,2.779,2.779,0,0,1,.027-.395,3.426,3.426,0,0,1,.08-.4v-.186a.428.428,0,0,1,.053-.186v-.5a.39.39,0,0,1,.053-.186.754.754,0,0,1,.026-.159.722.722,0,0,0,.027-.159c.032-.283.059-.554.08-.822s.044-.539.077-.822.083-.6.136-.955.1-.707.133-1.061l.265-.159.318-.05h2.388a.185.185,0,0,0,.133.05h.133a.831.831,0,0,0,.265.08.817.817,0,0,1,.318.133,1.343,1.343,0,0,1,.186.109.35.35,0,0,0,.186.05.512.512,0,0,0,.159.106.777.777,0,0,1,.159.106,3.727,3.727,0,0,1,.318.239c.106.088.212.168.315.239q.111.106.239.212a.673.673,0,0,1,.189.212l.265.318L179.3,16a.481.481,0,0,0-.053.212c-.038.106-.071.2-.106.292s-.074.186-.106.292-.074.212-.106.318a1,1,0,0,0-.053.318c-.038.106-.071.221-.106.345s-.071.256-.106.4c-.074.248-.142.513-.212.8s-.141.563-.212.846q-.053.424-.133.849c-.053.283-.118.566-.186.849-.035.248-.074.5-.106.743s-.074.5-.106.743a4.936,4.936,0,0,0-.053.69v.637a4.755,4.755,0,0,0,.265,2.069,2.753,2.753,0,0,0,.4.663,1.211,1.211,0,0,0,.557.4h.053c.177-.071.363-.139.557-.212a5.8,5.8,0,0,0,.61-.265,8.977,8.977,0,0,0,1.671-1.088,11.64,11.64,0,0,0,1.618-1.618q.8-.9,1.512-1.884a16.1,16.1,0,0,0,1.247-1.99q.159-.265.292-.5a4.177,4.177,0,0,0,.239-.5c.071-.141.139-.3.212-.478s.141-.333.212-.478q.212-.478.371-.928c.106-.3.195-.592.265-.872a1.482,1.482,0,0,1,.239-.427,1.734,1.734,0,0,1,.345-.315c.141-.074.283-.141.424-.215a2.011,2.011,0,0,1,.424-.159.749.749,0,0,0,.212-.027,1.106,1.106,0,0,1,.262-.027.483.483,0,0,1,.215-.053h.395a.4.4,0,0,0,.189-.053h2.335v.159a.153.153,0,0,0-.053.106v1.539c0,.923.044,1.83.133,2.732s.2,1.777.342,2.629q.27,1.269.507,2.334t.5,1.854a1.95,1.95,0,0,1,.159.451,1.154,1.154,0,0,0,.159.4,1.768,1.768,0,0,0,.133.371c.053.1.1.192.13.262a2.238,2.238,0,0,0,.295.4.36.36,0,0,0,.239.133,2.128,2.128,0,0,1,1.141.427c.159.174.1.386-.189.634a5.88,5.88,0,0,1-1.191.719,20.142,20.142,0,0,1-2.043.819l-.318.162-.318.1H190.28a4.579,4.579,0,0,1-.424-.822,7.368,7.368,0,0,1-.371-1.194q-.212-.743-.371-1.565c-.106-.548-.215-1.105-.318-1.671-.144-.637-.274-1.235-.4-1.8s-.242-1.114-.345-1.642c-.071.1-.15.209-.239.315a3.732,3.732,0,0,0-.239.318,2.061,2.061,0,0,1-.239.371q-.133.159-.292.318c-.357.46-.743.92-1.167,1.382s-.867.9-1.326,1.323-.923.814-1.379,1.167a16.148,16.148,0,0,1-1.379.955,6.593,6.593,0,0,1-.955.531c-.318.141-.619.265-.9.371-.28.035-.563.08-.846.133a4.356,4.356,0,0,1-.849.08l-2.122.053c-.283-.035-.557-.077-.822-.133s-.525-.115-.772-.183a2.846,2.846,0,0,1-.713-.454,4.016,4.016,0,0,1-.663-.716,2.392,2.392,0,0,1-.318-.716c-.071-.265-.144-.539-.212-.819-.038-.286-.071-.587-.106-.9a9.149,9.149,0,0,1-.053-1.008v-.637a3.872,3.872,0,0,1,.053-.637q0-.318.027-.637c.018-.212.041-.424.08-.637v-.557a2.1,2.1,0,0,1,.053-.5v-.212a.436.436,0,0,1,.053-.212v-.478A1.946,1.946,0,0,0,172.8,20.4Z" transform="translate(310.513 4.96)" fill="#fff"/>
        <path id="Pfad_6371" data-name="Pfad 6371" d="M182.537,8.973a1.727,1.727,0,0,1,.209-.584,2.466,2.466,0,0,1,.371-.478,3.244,3.244,0,0,1,.56-.265,1.818,1.818,0,0,1,.61-.106h2.281a2.216,2.216,0,0,1,.713.239,2.94,2.94,0,0,1,.666.5,2.517,2.517,0,0,1,.477.875,5.577,5.577,0,0,1,.209,1.194v.371a.215.215,0,0,0-.05.159v.212a3.647,3.647,0,0,0-.083.427,3.629,3.629,0,0,1-.077.422c-.038.566-.1,1.2-.189,1.913s-.183,1.468-.289,2.278q-.057.637-.133,1.247c-.056.407-.1.822-.133,1.247-.074.424-.127.861-.162,1.3s-.088.9-.159,1.353a4.346,4.346,0,0,0-.08.427,3.337,3.337,0,0,0-.027.422q-.049.212-.08.424a3.461,3.461,0,0,0-.027.424c-.106.778-.192,1.539-.265,2.281s-.139,1.489-.212,2.228c-.035.5-.077.976-.133,1.433s-.1.92-.133,1.382c.321-.18.637-.374.955-.587s.654-.424,1.008-.634a10.2,10.2,0,0,1,1.353-.825c.513-.265,1.073-.522,1.674-.769.068-.032.147-.071.239-.106s.183-.071.289-.106c.074-.035.133-.059.189-.08a.423.423,0,0,0,.133-.077.5.5,0,0,0,.183-.029.313.313,0,0,0,.133-.08c.286-.071.584-.147.9-.239a6.177,6.177,0,0,1,1.008-.186,10.732,10.732,0,0,1,1.088-.159c.371-.035.752-.05,1.138-.05h2.55a10.524,10.524,0,0,1,2.308.342,8.734,8.734,0,0,1,2.1.875,3.517,3.517,0,0,1,1.512,1.512,5.123,5.123,0,0,1,.5,2.361v.849a.211.211,0,0,1-.05.159.584.584,0,0,1-.029.186.587.587,0,0,0-.027.186c-.032.141-.059.277-.077.4a.855.855,0,0,1-.136.345.347.347,0,0,0-.077.162.55.55,0,0,0-.027.156,1,1,0,0,0-.08.186,1.524,1.524,0,0,1-.083.186,11.213,11.213,0,0,1-1.592,2.334,16.844,16.844,0,0,1-2.441,2.281,24.168,24.168,0,0,1-2.915,1.963,20.363,20.363,0,0,1-3.077,1.433c-.46.141-.914.265-1.353.371s-.878.212-1.3.318c-.46.106-.89.186-1.3.239a9.182,9.182,0,0,1-1.191.08l-2.125.053q-.371-.053-.743-.08a3.643,3.643,0,0,1-.743-.133,3.848,3.848,0,0,1-.687-.159c-.215-.071-.41-.141-.587-.212a3.391,3.391,0,0,1-1.35-.822,3.8,3.8,0,0,1-.875-1.512,12.439,12.439,0,0,1-.587-1.963A20.075,20.075,0,0,1,181.9,36.4c-.035-.212-.062-.424-.077-.637s-.047-.442-.083-.69q0-.318-.027-.637c-.015-.212-.024-.424-.024-.637V31.522Zm3.714,24.512v.584a6.7,6.7,0,0,0,.528,2.706,7.054,7.054,0,0,0,1.648,2.281,7.589,7.589,0,0,0,1.963,1.353,7.4,7.4,0,0,0,2.228.663c.174-.035.363-.077.554-.133s.4-.115.61-.186c.321-.106.637-.23.955-.368a6.494,6.494,0,0,0,.958-.534,3.41,3.41,0,0,0,.478-.345c.141-.121.3-.256.478-.4a4,4,0,0,0,.448-.4c.162-.159.312-.307.454-.451a14.864,14.864,0,0,0,.9-1.406,6.7,6.7,0,0,0,.584-1.353,5.775,5.775,0,0,0,.371-1.273,7.125,7.125,0,0,0,.109-1.217,5.816,5.816,0,0,0-.371-2.125,4.382,4.382,0,0,0-1.114-1.645,4.9,4.9,0,0,0-1.114-.849,5.245,5.245,0,0,0-1.22-.478c-.141.035-.312.071-.5.106a2.915,2.915,0,0,0-.56.159c-.389.141-.784.292-1.194.451s-.819.33-1.247.5a9.853,9.853,0,0,0-1.058.5c-.354.195-.707.38-1.064.557-.177.109-.345.212-.5.318a2.839,2.839,0,0,1-.5.265l-.427.318-.422.321a6.246,6.246,0,0,0-.61.448c-.2.162-.38.327-.56.5-.142.144-.283.292-.422.451a2.356,2.356,0,0,0-.321.451h-2.122v-.053H186.3A.856.856,0,0,0,186.251,33.485Z" transform="translate(328.499 -7.487)" fill="#fff"/>
      </g>
      <rect id="Rechteck_519" data-name="Rechteck 519" width="584.876" height="83.554" fill="none"/>
    </g>
  </g>
</svg>
