<svg xmlns="http://www.w3.org/2000/svg" width="198.425" height="99.213" viewBox="0 0 198.425 99.213">
  <g id="Logo_B_W_Wohnbaugruppe_3-Lines" data-name="Logo B&amp;W Wohnbaugruppe 3-Lines" transform="translate(99.213 49.606)">
    <g id="Gruppe_5177" data-name="Gruppe 5177" transform="translate(-99.213 -49.606)">
      <g id="Gruppe_5158" data-name="Gruppe 5158">
        <path id="Pfad_6290" data-name="Pfad 6290" d="M177.918,71.8h-5.655c-4.489,0-7.389-2.382-7.389-6.069a6.583,6.583,0,0,1,2.032-4.869,6.317,6.317,0,0,1,4.5-1.608c4.008.052,6.5,2.378,6.5,6.07v1.22h-7.927V64.1h5.159c-.335-1.253-1.32-2.379-3.766-2.411a3.7,3.7,0,0,0-2.627.906,4.224,4.224,0,0,0-1.252,3.132c0,2.306,1.739,3.629,4.77,3.629h5.655V71.8Z" fill="#726f6b" stroke="#726f6b" stroke-width="0.5"/>
      </g>
      <g id="Gruppe_5159" data-name="Gruppe 5159">
        <path id="Pfad_6291" data-name="Pfad 6291" d="M114.618,71.723H112V59.52h2.619v12.2Z" fill="#726f6b" stroke="#726f6b" stroke-width="0.5"/>
      </g>
      <g id="Gruppe_5160" data-name="Gruppe 5160">
        <path id="Pfad_6292" data-name="Pfad 6292" d="M140.258,71.8h-2.619V56.267h2.619V71.8Z" fill="#726f6b" stroke="#726f6b" stroke-width="0.5"/>
      </g>
      <g id="Gruppe_5161" data-name="Gruppe 5161">
        <path id="Pfad_6293" data-name="Pfad 6293" d="M149.161,71.83h-2.619V65.92a3.981,3.981,0,0,0-1.023-3.234,3.759,3.759,0,0,0-2.451-.812l-.092,0H141.91v-2.44h1.031a6.509,6.509,0,0,1,4.37,1.469,6.131,6.131,0,0,1,1.849,5.053V71.83Z" fill="#726f6b" stroke="#726f6b" stroke-width="0.5"/>
      </g>
      <g id="Gruppe_5162" data-name="Gruppe 5162">
        <path id="Pfad_6294" data-name="Pfad 6294" d="M154.089,71.8H151.47V59.52h2.619V71.8Z" fill="#726f6b" stroke="#726f6b" stroke-width="0.5"/>
      </g>
      <g id="Gruppe_5163" data-name="Gruppe 5163">
        <path id="Pfad_6295" data-name="Pfad 6295" d="M182.8,71.8h-2.619V59.52H182.8V71.8Z" fill="#726f6b" stroke="#726f6b" stroke-width="0.5"/>
      </g>
      <g id="Gruppe_5164" data-name="Gruppe 5164">
        <path id="Pfad_6296" data-name="Pfad 6296" d="M191.884,71.83h-2.619V65.92a3.981,3.981,0,0,0-1.023-3.234,3.773,3.773,0,0,0-2.45-.813l-.093,0h-1.066v-2.44h1.031a6.5,6.5,0,0,1,4.369,1.469,6.132,6.132,0,0,1,1.85,5.053V71.83Z" fill="#726f6b" stroke="#726f6b" stroke-width="0.5"/>
      </g>
      <g id="Gruppe_5165" data-name="Gruppe 5165">
        <path id="Pfad_6297" data-name="Pfad 6297" d="M163.072,71.83h-2.62V65.92a3.978,3.978,0,0,0-1.023-3.234,3.758,3.758,0,0,0-2.45-.812l-.093,0H155.82v-2.44h1.031a6.505,6.505,0,0,1,4.369,1.469,6.132,6.132,0,0,1,1.851,5.053V71.83Z" fill="#726f6b" stroke="#726f6b" stroke-width="0.5"/>
      </g>
      <path id="Pfad_6298" data-name="Pfad 6298" d="M91.7,51.92a4.187,4.187,0,0,1,3.843,1.57,2.329,2.329,0,0,1,.214,1.46,4.766,4.766,0,0,1-1.139,1.88,18.354,18.354,0,0,1-4.2,3.384c-.243.162-.781.415-.806.708s.288.546.474.752c1.2,1.313,2.372,2.321,3.725,3.583.189.175.447.48.737.487.372.007.621-.43.783-.664.221-.319.364-.607.521-.884a5.379,5.379,0,0,0,.855-1.948,1.784,1.784,0,0,0,0-.42c-.055-.477-.81-1.55-.1-1.924a1.283,1.283,0,0,1,1.044.11c.605.269,1.43.78,1.518,1.505a4.6,4.6,0,0,1-1.257,3.627c-.247.3-.622.6-.9.907s-.8.691-.806.995c-.007.344.492.643.759.84a13.912,13.912,0,0,0,2.989,1.791c.361.144,1,.188,1.139.466.219.426-.181,1.009-.355,1.216a2.066,2.066,0,0,1-1.068.707,3.135,3.135,0,0,1-1.044-.132,8.928,8.928,0,0,1-3.607-2.1c-.209-.156-.393-.287-.641-.486a1.617,1.617,0,0,0-.711-.422,1.4,1.4,0,0,0-.807.244,21.4,21.4,0,0,1-5.221,2.1,15.419,15.419,0,0,1-3.725.509,7.533,7.533,0,0,1-3.488-.729,2.969,2.969,0,0,1-1.306-1.593,3.569,3.569,0,0,1,.1-2.432,9.5,9.5,0,0,1,2.99-3.141c.848-.637,1.814-1.233,2.777-1.859.227-.148.785-.345.83-.685.039-.293-.295-.679-.523-.995a6.609,6.609,0,0,1-1.47-3.053,4.076,4.076,0,0,1,.1-1.394,4.75,4.75,0,0,1,3.013-2.786,14.754,14.754,0,0,1,2.207-.752A14.582,14.582,0,0,1,91.7,51.92Zm-4.034,3.141a2.576,2.576,0,0,0-.736,1.282,3.317,3.317,0,0,0,.57,2.3c.2.356.655,1.1,1.114,1.127.39.024.9-.448,1.235-.685.409-.287.733-.574,1.068-.841a3.969,3.969,0,0,0,1.566-2.211,2.469,2.469,0,0,0-.357-1.9,1.657,1.657,0,0,0-1.423-.442A5.191,5.191,0,0,0,87.667,55.061Zm-1.994,8.072c-.3.236-.592.488-.878.708a4.852,4.852,0,0,0-2.111,2.543,2.6,2.6,0,0,0,1.21,3.141c1.209.631,3.275.322,4.6-.089a13.151,13.151,0,0,0,2.777-1.216c.283-.169.68-.372.687-.642.007-.224-.337-.535-.545-.728-1.126-1.051-2.289-2.139-3.275-3.186-.182-.193-.386-.422-.616-.664-.206-.215-.43-.567-.831-.508A2.755,2.755,0,0,0,85.673,63.133Z" fill="#726f6b" fill-rule="evenodd"/>
      <g id="Gruppe_5166" data-name="Gruppe 5166">
        <path id="Pfad_6299" data-name="Pfad 6299" d="M128.261,69.383a3.8,3.8,0,0,1,0-7.42V59.481a6.225,6.225,0,0,0,0,12.384Z" fill="#726f6b" stroke="#726f6b" stroke-width="0.5"/>
        <path id="Pfad_6300" data-name="Pfad 6300" d="M130.116,59.485v2.486a3.8,3.8,0,0,1,0,7.4v2.486a6.224,6.224,0,0,0,0-12.376Z" fill="#726f6b" stroke="#726f6b" stroke-width="0.5"/>
      </g>
      <path id="Pfad_6301" data-name="Pfad 6301" d="M110.36,69.246c-1.438-.186-2.228-1.555-2.228-3.893V59.52h-2.619v5.833c0,4.462,2.478,6.194,4.847,6.342Z" fill="#726f6b" stroke="#726f6b" stroke-width="0.5"/>
      <path id="Pfad_6302" data-name="Pfad 6302" d="M116.233,69.246c1.439-.186,2.228-1.555,2.228-3.893V59.52h2.619v5.833c0,4.462-2.477,6.194-4.847,6.342Z" fill="#726f6b" stroke="#726f6b" stroke-width="0.5"/>
      <g id="Gruppe_5174" data-name="Gruppe 5174">
        <g id="Gruppe_5167" data-name="Gruppe 5167">
          <path id="Pfad_6303" data-name="Pfad 6303" d="M26.623,71.791h-.615a6.23,6.23,0,1,1,0-12.435h.657v2.458h-.657a3.768,3.768,0,1,0,0,7.52h.615v2.457Z" fill="#726f6b" stroke="#726f6b" stroke-width="0.5"/>
        </g>
        <g id="Gruppe_5168" data-name="Gruppe 5168">
          <path id="Pfad_6304" data-name="Pfad 6304" d="M30.824,71.794H28.2V59.43h2.619V71.794Z" fill="#726f6b" stroke="#726f6b" stroke-width="0.5"/>
        </g>
        <g id="Gruppe_5169" data-name="Gruppe 5169">
          <path id="Pfad_6305" data-name="Pfad 6305" d="M39.42,71.824a6.418,6.418,0,0,1-4.163-1.484,6.2,6.2,0,0,1-1.851-5.091V59.364h2.619v5.925a4.026,4.026,0,0,0,1.023,3.258,3.732,3.732,0,0,0,2.45.819l.093,0h1.27V71.82H39.626c-.048,0-.117,0-.206,0Z" fill="#726f6b" stroke="#726f6b" stroke-width="0.5"/>
        </g>
        <g id="Gruppe_5170" data-name="Gruppe 5170">
          <path id="Pfad_6306" data-name="Pfad 6306" d="M44.887,71.793H42.268V59.43h2.619V71.793Z" fill="#726f6b" stroke="#726f6b" stroke-width="0.5"/>
        </g>
        <g id="Gruppe_5171" data-name="Gruppe 5171">
          <path id="Pfad_6307" data-name="Pfad 6307" d="M59.575,71.8H53.92c-4.488,0-7.389-2.4-7.389-6.113a6.659,6.659,0,0,1,2.032-4.9,6.293,6.293,0,0,1,4.5-1.619c4.007.052,6.5,2.4,6.5,6.114V66.5H51.637V64.047H56.8c-.335-1.262-1.32-2.4-3.767-2.428a3.681,3.681,0,0,0-2.626.912,4.269,4.269,0,0,0-1.253,3.154c0,2.323,1.739,3.656,4.77,3.656h5.655V71.8Z" fill="#726f6b" stroke="#726f6b" stroke-width="0.5"/>
        </g>
        <g id="Gruppe_5172" data-name="Gruppe 5172">
          <path id="Pfad_6308" data-name="Pfad 6308" d="M64.467,71.794H61.847V59.43h2.619V71.794Z" fill="#726f6b" stroke="#726f6b" stroke-width="0.5"/>
        </g>
        <g id="Gruppe_5173" data-name="Gruppe 5173">
          <path id="Pfad_6309" data-name="Pfad 6309" d="M73.493,71.828h-2.62V65.876a4.024,4.024,0,0,0-1.023-3.258A3.73,3.73,0,0,0,67.4,61.8l-.093,0H66.243V59.346h1.03a6.483,6.483,0,0,1,4.369,1.48,6.2,6.2,0,0,1,1.85,5.09v5.912Z" fill="#726f6b" stroke="#726f6b" stroke-width="0.5"/>
        </g>
        <path id="Pfad_6310" data-name="Pfad 6310" d="M11.542,59.466v-.007h-.153l-.021,0-.021,0H9.091v2.457h2.2v0l.042,0h.06a3.71,3.71,0,1,1-.03,7.406,3.842,3.842,0,0,1-3.94-3.589v-9.5H4.809v9.291c0,.033-.006.064-.006.1s.005.076.006.115v.205H4.82a6.4,6.4,0,0,0,6.548,5.841,6.165,6.165,0,1,0,.174-12.313Z" fill="#726f6b" stroke="#726f6b" stroke-width="0.5"/>
      </g>
      <g id="Gruppe_5175" data-name="Gruppe 5175">
        <g id="Pfad_6311" data-name="Pfad 6311" fill="none">
          <path d="M93,31.4C90.278,26.6,88.6,23.8,88.6,23.8l-2.069,3.529,2.556,5.112s1.331,3.15-.209,4.946a3.912,3.912,0,0,1-3.02,1.505h-6.1a5.35,5.35,0,0,1-2.6-1.006h0a2.677,2.677,0,0,0-.225-.2c-1.752-1.363-.917-4.419-.917-4.419L88.16,10.691H83.681l-11.814,22s-3.635,6.88,1.753,9.347a6.246,6.246,0,0,0,1.018.376,9.129,9.129,0,0,0,1.643.468h13.08a3.956,3.956,0,0,0,1.718-.3h0s3.365-1.278,3.969-4.328h0S95.73,36.193,93,31.4Z" stroke="none"/>
          <path d="M 89.36100006103516 42.88700103759766 C 90.33200073242188 42.88700103759766 90.85600280761719 42.69900131225586 91.07900238037109 42.59000015258789 L 91.07900238037109 42.59099960327148 C 91.07900238037109 42.59099960327148 94.44400024414062 41.3129997253418 95.04799652099609 38.26300048828125 L 95.05000305175781 38.26200103759766 C 95.05000305175781 38.26200103759766 95.73000335693359 36.19300079345703 93.00400543212891 31.39700126647949 C 90.27799987792969 26.60200119018555 88.59799957275391 23.80300140380859 88.59799957275391 23.80300140380859 L 86.52899932861328 27.33200073242188 L 89.08499908447266 32.44400024414062 C 89.08499908447266 32.44400024414062 90.41600036621094 35.59400177001953 88.87599945068359 37.3900032043457 C 87.36898803710938 39.04501342773438 85.85600280761719 38.8950080871582 85.85600280761719 38.89500045776367 L 79.75400543212891 38.89500045776367 C 78.52100372314453 38.89500045776367 77.15700531005859 37.88899993896484 77.15700531005859 37.88899993896484 L 77.15500640869141 37.8900032043457 C 77.08399963378906 37.82200241088867 77.01100158691406 37.75600051879883 76.93000030517578 37.69400024414062 C 75.17800140380859 36.33100128173828 76.01300048828125 33.27500152587891 76.01300048828125 33.27500152587891 L 88.16000366210938 10.69100189208984 L 83.68099975585938 10.69100189208984 L 71.86698913574219 32.69600296020508 C 71.86698913574219 32.69600296020508 68.23200225830078 39.57600021362305 73.62000274658203 42.04300308227539 C 74.00700378417969 42.22000122070312 74.34400177001953 42.34300231933594 74.63800048828125 42.41900253295898 C 75.656005859375 42.79500198364258 76.281005859375 42.88700103759766 76.281005859375 42.88700103759766 L 89.36100006103516 42.88700103759766 M 89.07900238037109 45.48997116088867 L 89.07900238037109 44.88700103759766 L 76.13459014892578 44.88700103759766 L 75.98974609375 44.86568069458008 C 75.85452270507812 44.84577941894531 75.13848876953125 44.72805786132812 74.03376770019531 44.32758712768555 C 73.64637756347656 44.22027587890625 73.23766326904297 44.06739044189453 72.78815460205078 43.86180114746094 C 70.95069122314453 43.02048110961914 69.66246032714844 41.64223098754883 69.06196594238281 39.87570190429688 C 68.51746368408203 38.27390289306641 68.53398132324219 36.40837097167969 69.11106109619141 34.3309211730957 C 69.50961303710938 32.89620208740234 70.03952026367188 31.87358093261719 70.0986328125 31.7617015838623 L 70.10488128662109 31.74996185302734 L 82.48475646972656 8.691001892089844 L 91.50666046142578 8.691001892089844 L 77.90171051025391 33.98567199707031 C 77.76934814453125 34.67104721069336 77.74765014648438 35.79093170166016 78.15525054931641 36.11322402954102 C 78.25041961669922 36.18654632568359 78.33470916748047 36.25851440429688 78.40543365478516 36.32203674316406 C 78.81756591796875 36.60188293457031 79.45295715332031 36.89500045776367 79.75400543212891 36.89500045776367 L 85.97929382324219 36.89741897583008 C 86.10037231445312 36.88838195800781 86.68972778320312 36.8067626953125 87.37250518798828 36.07034683227539 C 87.84616088867188 35.48072052001953 87.54322052001953 33.99210357666016 87.26007080078125 33.26626968383789 L 84.25504302978516 27.25622177124023 L 88.57781219482422 19.88307189941406 L 90.31282043457031 22.77374076843262 C 90.32975006103516 22.80193138122559 92.03629302978516 25.6480712890625 94.74267578125 30.4085521697998 C 97.5291748046875 35.31098556518555 97.21685791015625 37.92933654785156 96.98595428466797 38.76703262329102 C 96.62101745605469 40.45295333862305 95.60843658447266 41.96966552734375 94.05158233642578 43.15970993041992 C 93.05357360839844 43.92258071899414 92.12277221679688 44.32666397094727 91.85525512695312 44.43467712402344 C 91.73214721679688 44.49004364013672 91.58808898925781 44.54665756225586 91.42163848876953 44.60026168823242 L 89.07900238037109 45.48997116088867 Z" stroke="none" fill="#726f6b"/>
        </g>
        <g id="Pfad_6312" data-name="Pfad 6312" fill="none">
          <path d="M110.538,41.556s.6.876.714,1.006.243.243,0,.26a3.745,3.745,0,0,1-.941-.081,9.313,9.313,0,0,1-1.071-.325c-.195-.1-1.623-.909-1.915-1.136a10.917,10.917,0,0,1-3.294-3.473c-1.25-2.158-11.879-20.917-11.879-20.917l2.191-3.944Z" stroke="none"/>
          <path d="M 111.113151550293 42.82600021362305 C 111.1640930175781 42.82600021362305 111.211067199707 42.8246955871582 111.2519989013672 42.82199859619141 C 111.495002746582 42.80500030517578 111.3660049438477 42.69200134277344 111.2519989013672 42.5620002746582 C 111.1380004882812 42.43199920654297 110.5380020141602 41.55599975585938 110.5380020141602 41.55599975585938 L 94.34300231933594 12.94600009918213 L 92.15200042724609 16.88999938964844 C 92.15200042724609 16.88999938964844 102.7809982299805 35.64900207519531 104.0309982299805 37.80699920654297 C 105.2799987792969 39.96599960327148 107.0330047607422 41.05300140380859 107.3250045776367 41.27999877929688 C 107.6170043945312 41.50699996948242 109.0449981689453 42.31900024414062 109.2399978637695 42.41600036621094 C 109.4350051879883 42.51300048828125 110.0670013427734 42.67599868774414 110.3110046386719 42.74100112915039 C 110.513069152832 42.79421997070312 110.861701965332 42.82600021362305 111.113151550293 42.82600021362305 M 111.113151550293 44.82600021362305 C 110.7561798095703 44.82600021362305 110.2241821289062 44.78633880615234 109.8016052246094 44.67504119873047 L 109.7275848388672 44.65541076660156 C 109.0523986816406 44.47668075561523 108.6538391113281 44.35820007324219 108.349250793457 44.20669174194336 C 108.1773376464844 44.12117004394531 106.587287902832 43.23604965209961 106.1050415039062 42.86484146118164 C 106.0831298828125 42.84865188598633 106.0542068481445 42.8283805847168 106.0193099975586 42.8036003112793 C 105.4280853271484 42.38370895385742 103.6288986206055 41.10593032836914 102.2998199462891 38.80849838256836 C 101.0598602294922 36.66785049438477 90.84609985351562 18.64224052429199 90.41191101074219 17.87594985961914 L 89.85874176025391 16.89966011047363 L 94.32662200927734 8.857080459594727 L 112.2360153198242 40.4957160949707 C 112.4453048706055 40.80020523071289 112.6914215087891 41.15185928344727 112.7815322875977 41.27219390869141 C 113.63134765625 42.22620391845703 113.3864517211914 43.16278457641602 113.2411499023438 43.52207946777344 C 112.9374084472656 44.27322006225586 112.245979309082 44.75735092163086 111.3915786743164 44.81711959838867 L 111.3836135864258 44.81766128540039 C 111.2997512817383 44.82320022583008 111.2087478637695 44.82600021362305 111.113151550293 44.82600021362305 Z" stroke="none" fill="#726f6b"/>
        </g>
        <g id="Pfad_6313" data-name="Pfad 6313" fill="none">
          <path d="M122.222,41.556s.6.876.714,1.006.243.243,0,.26a3.745,3.745,0,0,1-.941-.081,9.313,9.313,0,0,1-1.071-.325c-.2-.1-1.623-.909-1.915-1.136a10.917,10.917,0,0,1-3.294-3.473c-1.25-2.158-11.879-20.917-11.879-20.917l2.191-3.944Z" stroke="none"/>
          <path d="M 122.7971496582031 42.82600021362305 C 122.8480911254883 42.82600021362305 122.8950653076172 42.8246955871582 122.9359970092773 42.82199859619141 C 123.1790008544922 42.80500030517578 123.0500030517578 42.69200134277344 122.9359970092773 42.5620002746582 C 122.8219985961914 42.43199920654297 122.2220001220703 41.55599975585938 122.2220001220703 41.55599975585938 L 106.0270004272461 12.94600009918213 L 103.8359985351562 16.88999938964844 C 103.8359985351562 16.88999938964844 114.4649963378906 35.64900207519531 115.7149963378906 37.80699920654297 C 116.963996887207 39.96599960327148 118.7170028686523 41.05300140380859 119.0090026855469 41.27999877929688 C 119.3010025024414 41.50699996948242 120.7289962768555 42.31900024414062 120.9239959716797 42.41600036621094 C 121.1190032958984 42.51300048828125 121.7509994506836 42.67599868774414 121.995002746582 42.74100112915039 C 122.1970672607422 42.79421997070312 122.5457000732422 42.82600021362305 122.7971496582031 42.82600021362305 M 122.7971496582031 44.82600021362305 C 122.4401779174805 44.82600021362305 121.9081802368164 44.78633880615234 121.4856033325195 44.67504119873047 L 121.4115829467773 44.65541076660156 C 120.7363967895508 44.47668075561523 120.3378372192383 44.35820007324219 120.0332489013672 44.20669174194336 C 119.8613357543945 44.12117004394531 118.2712860107422 43.23604965209961 117.7890396118164 42.86484146118164 C 117.7671279907227 42.84865188598633 117.7382049560547 42.8283805847168 117.7033081054688 42.8036003112793 C 117.1120834350586 42.38370895385742 115.3128967285156 41.10593032836914 113.9838180541992 38.80849838256836 C 112.7438583374023 36.66785049438477 102.5300979614258 18.64224052429199 102.0959091186523 17.87594985961914 L 101.5427398681641 16.89966011047363 L 106.0106201171875 8.857080459594727 L 123.9200134277344 40.4957160949707 C 124.1293029785156 40.80020523071289 124.3754196166992 41.15185928344727 124.4655303955078 41.27219390869141 C 125.3153457641602 42.22620391845703 125.0704498291016 43.16278457641602 124.9251480102539 43.52207946777344 C 124.6214065551758 44.27322006225586 123.9299774169922 44.75735092163086 123.0755767822266 44.81711959838867 L 123.0676116943359 44.81766128540039 C 122.9837493896484 44.82320022583008 122.8927459716797 44.82600021362305 122.7971496582031 44.82600021362305 Z" stroke="none" fill="#726f6b"/>
        </g>
        <g id="Pfad_6314" data-name="Pfad 6314" fill="none">
          <path d="M117.711,12.946l-2.045,3.6,8.86,15.384V24.971Z" stroke="none"/>
          <path d="M 117.7107315063477 12.94633674621582 L 115.6660385131836 16.54890632629395 L 124.5264053344727 31.93283653259277 L 124.5264053344727 24.97111701965332 L 117.7107315063477 12.94633674621582 M 117.7118988037109 8.892436981201172 L 126.5264053344727 24.44372749328613 L 126.5264053344727 39.41266632080078 L 113.3622283935547 16.55618667602539 L 117.7118988037109 8.892436981201172 Z" stroke="none" fill="#726f6b"/>
        </g>
      </g>
      <g id="Gruppe_5176" data-name="Gruppe 5176">
        <path id="Pfad_6315" data-name="Pfad 6315" d="M50.267,82.874l1.955,7.68.241,1H52.5l.2-1,1.778-7.68h.837L53,92.395H51.93L50.013,84.7,49.8,83.686h-.038L49.53,84.7,47.6,92.395H46.56l-2.336-9.521h.863l1.777,7.693.216,1h.038l.229-1L49.3,82.874Z" fill="#726f6b"/>
        <path id="Pfad_6316" data-name="Pfad 6316" d="M60.326,92.56c-2.183,0-3.161-1.092-3.161-3.9,0-2.781.99-3.885,3.161-3.885,2.2,0,3.123,1.1,3.123,3.885C63.449,91.468,62.523,92.56,60.326,92.56Zm0-.673c1.676,0,2.324-.888,2.324-3.224s-.648-3.2-2.324-3.2-2.361.876-2.361,3.2C57.965,91.011,58.638,91.887,60.326,91.887Z" fill="#726f6b"/>
        <path id="Pfad_6317" data-name="Pfad 6317" d="M70.866,92.395V87.33c0-1.156-.622-1.816-1.955-1.816a2.373,2.373,0,0,0-2.044,1.028v5.853h-.774V82.3l.774-.063V84.7l-.012,1.015.025.013a2.849,2.849,0,0,1,2.234-.965,2.283,2.283,0,0,1,2.527,2.565v5.065Z" fill="#726f6b"/>
        <path id="Pfad_6318" data-name="Pfad 6318" d="M79.338,92.395V87.342c0-1.282-.711-1.828-1.98-1.828a2.508,2.508,0,0,0-2.044,1.016v5.865h-.762V84.917l.546-.05.139.9h.039a2.947,2.947,0,0,1,2.272-.99A2.292,2.292,0,0,1,80.1,87.33v5.065Z" fill="#726f6b"/>
        <path id="Pfad_6319" data-name="Pfad 6319" d="M86.1,92.535a2.813,2.813,0,0,1-2.311-1.029l-.038.013-.152.876h-.508V82.277l.775-.051v2.488l-.013,1.016.025.013a2.959,2.959,0,0,1,2.311-.978c1.752,0,2.869.965,2.869,3.872C89.053,91.494,87.974,92.535,86.1,92.535Zm-.114-7.046a2.465,2.465,0,0,0-2.12,1.053v4.241a2.4,2.4,0,0,0,2.145,1.091c1.333,0,2.26-.672,2.26-3.224C88.266,86.136,87.415,85.489,85.981,85.489Z" fill="#726f6b"/>
        <path id="Pfad_6320" data-name="Pfad 6320" d="M95.9,91.341l-.038-.012a2.642,2.642,0,0,1-2.336,1.18,2.078,2.078,0,0,1-2.3-2.348c0-1.422.876-2.235,2.7-2.235a5.572,5.572,0,0,1,1.866.33V87.33c0-1.422-.6-1.879-1.917-1.879a4.559,4.559,0,0,0-2.12.469l-.089-.672a5.413,5.413,0,0,1,2.336-.5c1.828,0,2.564.749,2.564,2.692v4.951h-.584Zm-.1-2.475a3.582,3.582,0,0,0-1.752-.356c-1.447,0-2.082.6-2.082,1.638a1.544,1.544,0,0,0,1.765,1.7c1.091,0,2.069-.762,2.069-1.485Z" fill="#726f6b"/>
        <path id="Pfad_6321" data-name="Pfad 6321" d="M104.877,90.034c0,1.574-.9,2.513-2.78,2.513s-2.768-.952-2.768-2.513V84.9h.762v5.1c0,1.168.686,1.8,2.006,1.8s2.018-.622,2.018-1.8V84.9h.762Z" fill="#726f6b"/>
        <path id="Pfad_6322" data-name="Pfad 6322" d="M109.07,88.993c-.507.114-.774.368-.774.685,0,.292.229.508.736.584l1.841.191c1.841.19,2.387.749,2.387,1.739,0,1.32-.762,2.158-3.034,2.158-1.968,0-2.793-.787-2.793-1.98a1.951,1.951,0,0,1,.825-1.537,1.062,1.062,0,0,1-.686-1,1.2,1.2,0,0,1,.94-1.067l.013-.025a1.835,1.835,0,0,1-.9-1.765c0-1.409.711-2.2,2.527-2.2a2.947,2.947,0,0,1,1.828.52l1.206-.546.177.394-.964.647a2.41,2.41,0,0,1,.266,1.168c0,1.41-.635,2.171-2.513,2.171A3.9,3.9,0,0,1,109.07,88.993Zm-.139,1.98a1.627,1.627,0,0,0-.813,1.308c0,.888.61,1.422,2.082,1.422,1.854,0,2.336-.572,2.336-1.41,0-.647-.33-1-1.777-1.129Zm-.559-3.986c0,1.257.762,1.536,1.765,1.536,1.371,0,1.79-.533,1.79-1.536,0-1.155-.546-1.562-1.777-1.562C108.855,85.425,108.372,85.946,108.372,86.987Z" fill="#726f6b"/>
        <path id="Pfad_6323" data-name="Pfad 6323" d="M115.6,92.395V84.943l.622-.051.025.838.026,1.028h.025a2.664,2.664,0,0,1,2.438-1.955,2.549,2.549,0,0,1,.71.089l-.063.8a2.044,2.044,0,0,0-.686-.1c-1.269,0-2.335,1.168-2.335,2.984v3.821Z" fill="#726f6b"/>
        <path id="Pfad_6324" data-name="Pfad 6324" d="M127.192,90.034c0,1.574-.9,2.513-2.781,2.513s-2.767-.952-2.767-2.513V84.9h.761v5.1c0,1.168.686,1.8,2.006,1.8s2.019-.622,2.019-1.8V84.9h.762Z" fill="#726f6b"/>
        <path id="Pfad_6325" data-name="Pfad 6325" d="M133.111,92.547a2.629,2.629,0,0,1-2.2-.964l-.025.012.013,1.029v1.6h-.8v-9.28l.571-.051.165.863h.038a2.979,2.979,0,0,1,2.323-.977c1.829,0,2.87.927,2.87,3.859C136.069,91.481,134.939,92.547,133.111,92.547Zm-.077-7.033a2.42,2.42,0,0,0-2.132,1.041V90.77a2.288,2.288,0,0,0,2.056,1.092c1.346,0,2.311-.66,2.311-3.225C135.269,86.187,134.456,85.514,133.034,85.514Z" fill="#726f6b"/>
        <path id="Pfad_6326" data-name="Pfad 6326" d="M141.646,92.547a2.631,2.631,0,0,1-2.2-.964l-.025.012.013,1.029v1.6h-.8v-9.28l.571-.051.165.863h.038a2.98,2.98,0,0,1,2.324-.977c1.828,0,2.869.927,2.869,3.859C144.6,91.481,143.474,92.547,141.646,92.547Zm-.077-7.033a2.42,2.42,0,0,0-2.132,1.041V90.77a2.288,2.288,0,0,0,2.056,1.092c1.346,0,2.311-.66,2.311-3.225C143.8,86.187,142.991,85.514,141.569,85.514Z" fill="#726f6b"/>
        <path id="Pfad_6327" data-name="Pfad 6327" d="M146.689,88.4c0-2.349,1-3.618,2.983-3.618,1.689,0,2.869,1.028,2.869,3.453a3.811,3.811,0,0,1-.025.381h-5.04c.038,2.4.838,3.212,2.628,3.212a4.19,4.19,0,0,0,2.069-.533l.1.672a4.408,4.408,0,0,1-2.247.584C147.641,92.547,146.689,91.291,146.689,88.4Zm5.141-.33c-.025-1.892-.914-2.6-2.158-2.6-1.473,0-2.133.876-2.209,2.6Z" fill="#726f6b"/>
      </g>
      <rect id="Rechteck_516" data-name="Rechteck 516" width="198.425" height="99.213" fill="none"/>
    </g>
  </g>
</svg>
