<svg xmlns="http://www.w3.org/2000/svg" width="1468.47" height="880.417" viewBox="0 0 1468.47 880.417">
  <g id="Gruppe_5210" data-name="Gruppe 5210" transform="translate(-1673.171 -3462.148)" opacity="0.173" style="isolation: isolate">
    <g id="Gruppe_5209" data-name="Gruppe 5209" transform="translate(1676.378 3465.357)">
      <g id="Pfad_6461" data-name="Pfad 6461" transform="translate(-70.668 -9.057)" fill="none">
        <path d="M677.008,571.174C603.007,440.981,557.4,365,557.4,365l-56.166,95.826,69.386,138.744s36.132,85.511-5.673,134.265c-40.909,44.954-81.981,40.855-81.981,40.855H317.32c-33.471,0-70.5-27.282-70.5-27.282h-.055c-1.927-1.819-3.909-3.61-6.108-5.321-47.56-37-24.893-119.932-24.893-119.932L545.512,9.057H423.924L103.218,606.41S4.542,793.2,150.806,860.146a169.557,169.557,0,0,0,27.635,10.207c27.635,10.207,44.6,12.7,44.6,12.7H578.114c26.359,0,40.584-5.1,46.637-8.035h0S716.1,840.356,732.495,757.533l.055-.027S751.008,701.34,677.008,571.174Z" stroke="none"/>
        <path d="M 578.1141357421875 883.0570068359375 C 604.4730224609375 883.0570068359375 618.6979370117188 877.9536743164062 624.75146484375 875.0217895507812 C 624.75146484375 875.0217895507812 716.0985717773438 840.3561401367188 732.4944458007812 757.5328979492188 L 732.5493774414062 757.5056762695312 C 732.5493774414062 757.5056762695312 751.0084838867188 701.340087890625 677.0079345703125 571.1740112304688 C 603.0073852539062 440.9806823730469 557.4015502929688 364.9984436035156 557.4015502929688 364.9984436035156 L 501.2360229492188 460.8245544433594 L 570.6217041015625 599.5690307617188 C 570.6217041015625 599.5690307617188 606.7536010742188 685.0796508789062 564.948486328125 733.8343505859375 C 524.0391235351562 778.7882080078125 482.9669189453125 774.6891479492188 482.9670104980469 774.6893310546875 L 317.3204650878906 774.6893310546875 C 283.8492431640625 774.6893310546875 246.8216857910156 747.407470703125 246.8216857910156 747.407470703125 L 246.7671356201172 747.407470703125 C 244.8397979736328 745.5885620117188 242.8582458496094 743.7969970703125 240.6593627929688 742.0867919921875 C 193.099365234375 705.0862426757812 215.766357421875 622.154541015625 215.766357421875 622.154541015625 L 545.51171875 9.0570068359375 L 423.9237060546875 9.0570068359375 L 103.2180252075195 606.4097900390625 C 103.2180252075195 606.4097900390625 4.541580200195312 793.203125 150.8055725097656 860.1456909179688 C 161.3111419677734 864.9505615234375 170.45947265625 868.2894287109375 178.4402465820312 870.3526611328125 C 206.0750274658203 880.5596923828125 223.0413513183594 883.0570068359375 223.0413513183594 883.0570068359375 L 578.1141357421875 883.0570068359375 M 578.1141357421875 886.2658081054688 L 222.8064727783203 886.2658081054688 L 222.5741424560547 886.2315673828125 C 222.3946838378906 886.2051391601562 218.0909118652344 885.5628051757812 210.3346862792969 883.6476440429688 C 203.2581787109375 881.9004516601562 191.8228759765625 878.708984375 177.4788818359375 873.418212890625 C 169.2184753417969 871.26953125 159.7965087890625 867.7862548828125 149.4710235595703 863.0636596679688 C 139.4771423339844 858.4896850585938 130.2564697265625 853.1859130859375 122.064582824707 847.2994384765625 C 114.2434692382812 841.6793212890625 107.1556930541992 835.381591796875 100.9982452392578 828.5808715820312 C 95.15202331542969 822.1241455078125 89.99491119384766 815.0491333007812 85.67013549804688 807.5524291992188 C 81.59158325195312 800.482666015625 78.15036010742188 792.8595581054688 75.44190979003906 784.894775390625 C 72.14602661132812 775.2026977539062 69.84280395507812 764.7354736328125 68.59602355957031 753.7838134765625 C 67.46613311767578 743.8598022460938 67.17824554443359 733.3153686523438 67.74024963378906 722.4435424804688 C 68.68357849121094 704.1952514648438 72.00868988037109 684.6923217773438 77.62346649169922 664.4765625 C 82.60968780517578 646.52392578125 88.51957702636719 631.3091430664062 92.5992431640625 621.7066650390625 C 97.03157806396484 611.2745361328125 100.2461318969727 605.1658935546875 100.3808059692383 604.9110107421875 L 100.3909149169922 604.8920288085938 L 422.0044555664062 5.848228931427002 L 550.8809204101562 5.848228931427002 L 548.3375854492188 10.57689571380615 L 218.7725372314453 623.3392333984375 C 218.4433135986328 624.613037109375 217.2557373046875 629.3972778320312 216.1086883544922 636.3644409179688 C 214.8742523193359 643.863037109375 213.4349060058594 655.5010986328125 213.588134765625 668.3612060546875 C 213.7590179443359 682.7054443359375 215.8353576660156 695.62109375 219.7593536376953 706.7494506835938 C 222.0660247802734 713.2913208007812 225.0454711914062 719.2786865234375 228.6149139404297 724.5453491210938 C 232.5206909179688 730.308349609375 237.2360229492188 735.3580322265625 242.6296844482422 739.55419921875 C 244.9338684082031 741.3463134765625 246.9435424804688 743.1703491210938 248.6301422119141 744.7543334960938 L 248.7250213623047 744.82421875 C 248.8155822753906 744.8908081054688 257.9983520507812 751.6142578125 271.0713500976562 758.2376708984375 C 278.7037048339844 762.1045532226562 286.1496887207031 765.1814575195312 293.2023620605469 767.3828735351562 C 301.9133605957031 770.1018676757812 310.0279235839844 771.4805908203125 317.3204650878906 771.4805908203125 L 483.1344604492188 771.4805908203125 L 483.2862548828125 771.49658203125 L 483.2789001464844 771.4957885742188 C 483.2874755859375 771.49658203125 484.1615905761719 771.578125 485.7469177246094 771.578125 C 495.2486877441406 771.5776977539062 528.861328125 768.7012329101562 562.5438842773438 731.7091064453125 C 567.2947998046875 726.1607055664062 571.2271118164062 719.8108520507812 574.231689453125 712.83544921875 C 576.9846801757812 706.444091796875 579.0242309570312 699.3784790039062 580.2938232421875 691.83447265625 C 582.450439453125 679.0181274414062 582.4537963867188 664.6080322265625 580.3037109375 649.0044555664062 C 579.2411499023438 641.293212890625 577.041015625 629.0971069335938 572.593994140625 614.785888671875 C 570.114013671875 606.8046875 568.0032958984375 601.6321411132812 567.7022094726562 600.905029296875 L 497.5877990722656 460.7033386230469 L 498.4676818847656 459.2019958496094 L 557.3687744140625 358.7087707519531 L 560.15283203125 363.3471069335938 C 560.6090087890625 364.1072387695312 606.6245727539062 440.8512268066406 679.797607421875 569.5884399414062 C 696.7632446289062 599.430908203125 710.26123046875 627.8626708984375 719.9164428710938 654.0938110351562 C 727.6663818359375 675.1485595703125 732.97705078125 694.85546875 735.70068359375 712.6671142578125 C 740.3978881835938 743.3842163085938 735.7958984375 757.9044799804688 735.5977172851562 758.507568359375 L 735.5313110351562 758.7095947265625 C 733.520751953125 768.6392822265625 730.3402709960938 778.38916015625 726.074462890625 787.6973266601562 C 722.1300048828125 796.304443359375 717.1708984375 804.7242431640625 711.334716796875 812.722900390625 C 701.5362548828125 826.1519775390625 689.1172485351562 838.6553344726562 674.4229125976562 849.8854370117188 C 668.6627807617188 854.2876586914062 662.5338134765625 858.5032348632812 656.2061157226562 862.4149780273438 C 651.1451416015625 865.5437622070312 645.9450073242188 868.4872436523438 640.750244140625 871.16357421875 C 632.510986328125 875.4083862304688 626.9739379882812 877.6022338867188 626.0266723632812 877.96923828125 C 622.9158325195312 879.4639282226562 617.5924682617188 881.5767822265625 609.724365234375 883.2753295898438 C 600.532470703125 885.2596435546875 589.897216796875 886.2658081054688 578.1141357421875 886.2658081054688 Z" stroke="none" fill="#fff"/>
      </g>
      <g id="Pfad_6462" data-name="Pfad 6462" transform="translate(491.06 49.929)" fill="none">
        <path d="M591.263,787.94s16.287,23.807,19.382,27.309c3.094,3.529,6.6,6.623,0,7.058s-18.948-.434-25.545-2.2c-6.624-1.765-23.78-6.162-29.074-8.823-5.293-2.633-44.058-24.649-51.985-30.838-7.927-6.162-55.514-35.67-89.42-94.252-33.933-58.609-322.47-567.845-322.47-567.845L151.629,11.313Z" stroke="none"/>
        <path d="M 606.807861328125 822.4171752929688 C 608.2168579101562 822.4171752929688 609.5157470703125 822.3809814453125 610.6450805664062 822.306640625 C 617.2417602539062 821.8721923828125 613.7395629882812 818.777587890625 610.6450805664062 815.2487182617188 C 607.5502319335938 811.7467041015625 591.2627563476562 787.9395141601562 591.2627563476562 787.9395141601562 L 151.6294250488281 11.31294727325439 L 92.1519775390625 118.3506164550781 C 92.1519775390625 118.3506164550781 380.689208984375 627.5867309570312 414.6218566894531 686.1953735351562 C 448.5276489257812 744.7770385742188 496.1150817871094 774.2849731445312 504.041748046875 780.4470825195312 C 511.9683227539062 786.636474609375 550.7332153320312 808.6520385742188 556.0266723632812 811.2852783203125 C 561.3203125 813.9456176757812 578.4766235351562 818.3431396484375 585.1002197265625 820.1077270507812 C 590.5675048828125 821.570068359375 599.987060546875 822.4171752929688 606.807861328125 822.4171752929688 M 606.807861328125 825.6259765625 C 600.1017456054688 825.6259765625 590.2072143554688 824.795166015625 584.2711181640625 823.20751953125 C 583.6342163085938 823.037841796875 582.8956298828125 822.8427124023438 582.0787353515625 822.6268310546875 C 571.2344360351562 819.7615966796875 559.2723999023438 816.5076293945312 554.5857543945312 814.1524047851562 C 551.8613891601562 812.7951049804688 540.8660278320312 806.6466064453125 529.40673828125 799.9724731445312 C 519.402099609375 794.1456298828125 506.5376586914062 786.467041015625 502.0669860839844 782.9761962890625 C 501.2451171875 782.3375854492188 499.8893127441406 781.3748168945312 498.1738586425781 780.156494140625 C 490.7872009277344 774.9107055664062 477.0378723144531 765.1463012695312 461.0714111328125 749.9306030273438 C 441.43798828125 731.2202758789062 424.8757629394531 710.3173828125 411.8447570800781 687.802734375 C 378.29296875 629.8519287109375 92.24564361572266 125.0249481201172 89.36019897460938 119.9323883056641 L 88.47264862060547 118.3659439086914 L 151.6034240722656 4.753502368927002 L 154.4217529296875 9.732280731201172 L 593.9873657226562 786.2391967773438 C 598.5466918945312 792.9015502929688 610.6323852539062 810.388916015625 613.0494384765625 813.1238403320312 L 613.0576171875 813.1331787109375 C 613.3353271484375 813.4498291015625 613.625 813.7722778320312 613.9050903320312 814.0841674804688 C 614.8416748046875 815.1270751953125 615.7261962890625 816.112060546875 616.3934326171875 817.107177734375 C 616.861083984375 817.8047485351562 617.1826171875 818.4526977539062 617.3765258789062 819.08837890625 C 617.7886352539062 820.4393920898438 617.552001953125 821.5164794921875 617.281005859375 822.1821899414062 C 616.939453125 823.0213012695312 616.1587524414062 824.1641845703125 614.37939453125 824.844482421875 C 613.4611206054688 825.1956176757812 612.3085327148438 825.4127197265625 610.85595703125 825.5083618164062 C 609.6714477539062 825.5863647460938 608.3095092773438 825.6259765625 606.807861328125 825.6259765625 Z" stroke="none" fill="#fff"/>
      </g>
      <g id="Pfad_6463" data-name="Pfad 6463" transform="translate(796.552 49.929)" fill="none">
        <path d="M602.947,787.94s16.288,23.807,19.382,27.309c3.095,3.529,6.6,6.623,0,7.058s-18.948-.434-25.545-2.2c-6.623-1.765-23.78-6.162-29.073-8.823-5.293-2.633-44.059-24.649-51.985-30.838-7.927-6.162-55.514-35.67-89.42-94.252-33.933-58.609-322.47-567.845-322.47-567.845L163.313,11.313Z" stroke="none"/>
        <path d="M 618.491943359375 822.4171752929688 C 619.9009399414062 822.4171752929688 621.1997680664062 822.3809814453125 622.3291015625 822.306640625 C 628.9255981445312 821.8721923828125 625.423828125 818.777587890625 622.3291015625 815.2487182617188 C 619.234375 811.7467041015625 602.9467163085938 787.9395141601562 602.9467163085938 787.9395141601562 L 163.3132476806641 11.31294727325439 L 103.8360214233398 118.3506164550781 C 103.8360214233398 118.3506164550781 392.3731384277344 627.5867309570312 426.305908203125 686.1953735351562 C 460.2115783691406 744.7770385742188 507.7990112304688 774.2849731445312 515.7258911132812 780.4470825195312 C 523.65234375 786.636474609375 562.41748046875 808.6520385742188 567.7109375 811.2852783203125 C 573.0043334960938 813.9456176757812 590.1610107421875 818.3431396484375 596.7842407226562 820.1077270507812 C 602.25146484375 821.570068359375 611.671142578125 822.4171752929688 618.491943359375 822.4171752929688 M 618.4918823242188 825.6259765625 C 611.7857055664062 825.6259765625 601.89111328125 824.795166015625 595.9551391601562 823.20751953125 C 595.3173828125 823.03759765625 594.5776977539062 822.8421630859375 593.7595825195312 822.6259765625 C 582.9210815429688 819.7622680664062 570.9663696289062 816.5101928710938 566.2763671875 814.1554565429688 C 563.5628051757812 812.8046875 552.559326171875 806.6517944335938 541.0908813476562 799.9724731445312 C 531.0903930664062 794.1481323242188 518.232421875 786.4734497070312 513.756591796875 782.9803466796875 L 513.756591796875 782.9804077148438 C 512.9353637695312 782.3419189453125 511.5774536132812 781.3776245117188 509.8583679199219 780.1568603515625 C 502.4718017578125 774.9110717773438 488.7224731445312 765.146728515625 472.7559204101562 749.9310302734375 C 453.1222534179688 731.2206420898438 436.5597839355469 710.317626953125 423.52880859375 687.802734375 C 389.9768981933594 629.8519287109375 103.9296875 125.0249481201172 101.0442428588867 119.9323883056641 L 100.1566848754883 118.3659439086914 L 163.2872467041016 4.753502368927002 L 166.1055755615234 9.732280731201172 L 605.6718139648438 786.2401123046875 C 610.2313232421875 792.9024658203125 622.3165283203125 810.3889770507812 624.7335815429688 813.1239624023438 L 624.7415771484375 813.133056640625 C 625.0191040039062 813.4495239257812 625.30859375 813.7718505859375 625.5885620117188 814.08349609375 C 626.5252685546875 815.1265258789062 627.4100341796875 816.1116333007812 628.0772705078125 817.1068115234375 C 628.544921875 817.8043823242188 628.8665771484375 818.4525146484375 629.0604858398438 819.0881958007812 C 629.4727172851562 820.4391479492188 629.2360229492188 821.5164184570312 628.9650268554688 822.1821899414062 C 628.6234741210938 823.0211791992188 627.8427734375 824.1641845703125 626.0634765625 824.844482421875 C 625.1451416015625 825.1956176757812 623.9925537109375 825.4127197265625 622.5400390625 825.5083618164062 C 621.35546875 825.5863647460938 619.9935913085938 825.6259765625 618.4918823242188 825.6259765625 Z" stroke="none" fill="#fff"/>
      </g>
      <g id="Pfad_6464" data-name="Pfad 6464" transform="translate(1105.863 49.922)" fill="none">
        <path d="M171.172,11.313l-55.506,97.8L356.192,526.724V337.74Z" stroke="none"/>
        <path d="M 171.1718444824219 11.312744140625 L 115.6661071777344 109.1087951660156 L 356.1915893554688 526.724365234375 L 356.1915893554688 337.7401733398438 L 171.1718444824219 11.312744140625 M 171.1737060546875 4.80877685546875 L 173.96337890625 9.73046875 L 359.4003295898438 336.89404296875 L 359.4003295898438 538.7247924804688 L 111.9699096679688 109.1204528808594 L 171.1737060546875 4.80877685546875 Z" stroke="none" fill="#fff"/>
      </g>
    </g>
  </g>
</svg>
