<?xml version="1.0" encoding="UTF-8"?><svg xmlns="http://www.w3.org/2000/svg" viewBox="0 0 512 512"><g id="BG"><rect x="6.07" y="6.07" width="499.87" height="499.87" fill="#142f54" stroke="#8f8d8c" stroke-miterlimit="10" stroke-width="12.19"/></g><g id="Text"><g><path d="M197.86,156.82l-74.84,139.15s-5.14,18.82,5.65,27.22c.5,.39,.95,.79,1.38,1.21h.01s8.4,6.19,16,6.19h37.59s.22,.02,.63,.02c2.24,0,10.13-.67,17.98-9.29,9.49-11.06,1.29-30.47,1.29-30.47l-15.75-31.49,12.75-21.75s10.35,17.25,27.14,46.79c16.8,29.54,12.61,42.29,12.61,42.29h-.01c-3.72,18.8-24.45,26.67-24.45,26.67h0c-1.37,.67-4.6,1.82-10.59,1.82H124.67s-3.85-.57-10.12-2.88c-1.81-.47-3.89-1.22-6.27-2.32-33.19-15.2-10.8-57.59-10.8-57.59l72.79-135.57h27.59m20.62-12.32h-55.58l-3.49,6.49-72.79,135.57-.02,.04-.02,.04c-1.46,2.76-14.01,27.58-6.39,50,3.7,10.88,11.64,19.37,22.95,24.55,2.76,1.26,5.28,2.21,7.68,2.87,6.81,2.47,11.22,3.19,12.06,3.32l.89,.13h81.48c2.37,0,4.48-.15,6.36-.39l.68,.76,5.59-2.12c1.1-.35,2.04-.72,2.83-1.08,3.83-1.57,26.51-11.79,31.5-34.85,1.42-5.14,3.37-21.27-13.82-51.51-16.68-29.33-27.19-46.87-27.29-47.04l-10.69-17.82-10.51,17.92-12.75,21.75-3.38,5.77,2.99,5.98,15.52,31.05c1.74,4.47,3.61,13.65,.69,17.27-3.98,4.29-7.44,4.97-8.44,5.08l-.8-.15-.1,.15h-37.59c-1.85,0-5.75-1.8-8.3-3.51-.52-.46-1.02-.89-1.54-1.29-2.56-1.99-2.43-8.95-1.61-13.07l74.08-137.73,9.77-18.16h0Z" fill="#8f8d8c"/><path d="M235.95,170.72l99.78,176.27s3.7,5.4,4.4,6.2c.7,.8,1.5,1.5,0,1.6-.26,.02-.55,.03-.87,.03-1.55,0-3.68-.19-4.93-.53-1.5-.4-5.4-1.4-6.6-2-1.2-.6-10-5.6-11.8-7-1.8-1.4-12.6-8.1-20.3-21.4s-73.19-128.88-73.19-128.88l13.5-24.29m-.1-25.19l-10.67,19.21-13.5,24.29-3.36,6.04,3.41,6.02c2.68,4.72,65.6,115.78,73.24,128.97,8.19,14.15,19.27,22.02,22.91,24.61,.22,.15,.4,.28,.53,.38,2.99,2.3,12.7,7.7,13.8,8.26,1.87,.94,4.31,1.66,8.45,2.76l.49,.13c2.6,.69,5.89,.94,8.1,.94,.6,0,1.17-.02,1.69-.05,5.27-.35,9.54-3.33,11.43-7.96,.9-2.22,2.42-7.99-2.82-13.88-.56-.74-2.07-2.91-3.37-4.79l-99.52-175.8-10.82-19.12h0Z" fill="#8f8d8c"/><path d="M307.93,170.72l99.78,176.27s3.7,5.4,4.4,6.2c.7,.8,1.5,1.5,0,1.6-.26,.02-.55,.03-.87,.03-1.55,0-3.68-.19-4.93-.53-1.5-.4-5.4-1.4-6.6-2-1.2-.6-10-5.6-11.8-7-1.8-1.4-12.6-8.1-20.3-21.4-7.7-13.3-73.19-128.88-73.19-128.88l13.5-24.29m-.1-25.19l-10.67,19.21-13.5,24.29-3.36,6.04,3.41,6.02c2.68,4.72,65.6,115.78,73.24,128.97,8.19,14.15,19.27,22.02,22.91,24.61,.22,.15,.4,.28,.53,.38,2.99,2.3,12.7,7.7,13.8,8.26,1.87,.94,4.31,1.66,8.45,2.76l.49,.13c2.6,.69,5.89,.94,8.1,.94,.6,0,1.17-.02,1.69-.05,5.27-.35,9.54-3.33,11.43-7.96,.9-2.22,2.42-7.99-2.82-13.88-.56-.74-2.07-2.91-3.37-4.79l-99.52-175.8-10.82-19.12h0Z" fill="#8f8d8c"/><path d="M379.92,170.72l41.99,74.09v42.89l-54.59-94.78,12.6-22.2m0-24.98l-10.72,18.89-12.6,22.2-3.48,6.13,3.52,6.1,54.59,94.78,23,39.93v-92.23l-1.6-2.83-41.99-74.09-10.71-18.9h0Z" fill="#8f8d8c"/></g></g></svg>